<svg xmlns="http://www.w3.org/2000/svg" viewBox="0 0 430.9 186.2"><style>.st0{fill:#b295c6}.st1{fill:#46166b}</style><path d="M165.3 19c-6.1-5.6-13.9-8.8-22.2-8.8-18 0-34.1 14.4-34.1 34.2 0 20.1 16.5 34.2 34.1 34.2 9.5 0 17-3.5 23-9.2l6.9 7.8c-7.7 7-19 11.6-29.9 11.6-29.2 0-45.7-23.1-45.7-44.4C97.5 23.1 113.9 0 143.1 0c11.4 0 22.7 4.6 29.6 11zm61.8-19c29.2 0 45.7 23.1 45.7 44.4s-16.4 44.4-45.7 44.4c-29.2 0-45.7-23.1-45.7-44.4S197.9 0 227.1 0m0 78.6c17.6 0 34.1-13.8 34.1-34.2s-16.5-34.2-34.1-34.2S193 24 193 44.4s16.5 34.2 34.1 34.2M389.7 1.4h10.9v75.9h30.3v10.2h-41.1V1.4z" class="st0"/><path d="M353 20.1c-6.2-5.9-14.7-9.3-23.3-9.3-8.5 0-17 3.4-23.3 9.3-6.6 6.3-10.3 15-10.3 24.4s3.7 18.1 10.3 24.4c6.2 5.9 14.7 9.3 23.3 9.3 8.5 0 17-3.4 23.3-9.3 6.6-6.3 10.3-15 10.3-24.4 0-9.5-3.6-18.1-10.3-24.4" class="st1"/><path d="M329.8 0c-29.2 0-45.7 23.1-45.7 44.4s16.4 44.4 45.7 44.4c29.2 0 45.7-23.1 45.7-44.4C375.4 23.1 359 0 329.8 0m24 69.6c-6.4 6.1-15.2 9.6-24 9.6s-17.6-3.5-24-9.6c-6.9-6.5-10.6-15.4-10.6-25.2 0-9.7 3.8-18.6 10.6-25.2 6.4-6.1 15.2-9.6 24-9.6s17.6 3.5 24 9.6c6.9 6.5 10.6 15.4 10.6 25.2 0 9.7-3.8 18.7-10.6 25.2" class="st1"/><path d="M199 105.8h4l-8.1 8.1 8.3 9.4H199l-7.3-8.5v8.5h-3V97.7h3v15.7zm18.5 15.5c-1 1.6-2.9 2.5-4.9 2.5-3.4 0-6.8-1.9-6.8-6.6v-11.4h3V116c0 2.6 1.1 4.9 4.1 4.9 2.8 0 4.6-1.9 4.6-5.3v-9.9h3v17.6h-3zm19.4-8.2c0-2.6-1.1-4.9-4.1-4.9-2.8 0-4.6 1.9-4.6 5.3v9.9h-3v-17.6h3v2.1h.1c.9-1.6 2.9-2.5 4.8-2.5 3.4 0 6.8 1.9 6.8 6.6v11.4h-3zm9.5 5.1c.2 1.9 1.8 2.9 3.6 2.9 2.7 0 3.5-1.5 3.5-2.5 0-1.1-.7-1.9-3.1-2.5l-3.1-.8c-2.6-.7-3.6-2.4-3.6-4.5 0-2.9 2.2-5.3 6.3-5.3 4.5 0 6 2.8 6 5.5h-2.8c-.2-2-1.2-3-3.3-3-1.9 0-3.2 1.1-3.2 2.5 0 1 .5 1.7 2 2.1l4.1 1.2c2.8.8 3.7 2.3 3.7 4.6 0 3.6-3.1 5.5-6.4 5.5-4.1 0-6.5-2.2-6.6-5.5h2.9zm14.5-16.7h3v4.3h2.8v2.7h-2.8v10.8c0 .9.3 1.3 1.5 1.3h1.4v2.8h-1.9c-3.1 0-4-1.1-4-3.8v-11.1h-2.4v-2.7h2.4zm34.7 18.4c-2.4 2.6-4.9 3.8-7.9 3.8-6.2 0-9.6-4.5-9.6-9.2 0-5 3.6-9.2 9.1-9.2 5.4 0 9.2 4.1 9.2 10.4h-15c.5 3 2.9 5.2 6.3 5.2 2.2 0 4.1-1 5.6-2.8zm-2.7-6.7c-.3-2.9-2.7-5-5.8-5-3.7 0-5.5 2.6-5.8 5zm18.9-.1c0-2.6-1.1-4.9-4.1-4.9-2.8 0-4.6 1.9-4.6 5.3v9.9h-3v-17.6h3v2.1h.1c.9-1.6 2.9-2.5 4.8-2.5 3.4 0 6.8 1.9 6.8 6.6v11.4h-3zm28.8-3.1c-1.2-1.2-2.6-1.8-4.1-1.8-3 0-5.8 2.2-5.8 6.5 0 3.6 2.6 6.2 6.1 6.2 1.4 0 2.9-.8 3.9-1.8l1.8 2.2c-1.6 1.6-3.8 2.4-6.1 2.4-5.4 0-9-4.3-9-9.1 0-5 3.9-9.2 9-9.2 2.7 0 4.9 1.1 6.2 2.2zm16.8 11.3c-1 1.6-2.9 2.5-4.9 2.5-3.4 0-6.8-1.9-6.8-6.6v-11.4h3V116c0 2.6 1.1 4.9 4.1 4.9 2.8 0 4.6-1.9 4.6-5.3v-9.9h3v17.6h-3zM368 97.7v20.1c0 2 1 2.7 2 2.7h.9v2.8h-1.2c-2.8 0-4.7-1.6-4.7-5.3V97.7zm6 3.8h3v4.3h2.8v2.7H377v10.8c0 .9.3 1.3 1.5 1.3h1.4v2.8H378c-3.1 0-4-1.1-4-3.8v-11.1h-2.4v-2.7h2.4zm20.9 19.8c-1 1.6-2.9 2.5-4.9 2.5-3.4 0-6.8-1.9-6.8-6.6v-11.4h3V116c0 2.6 1.1 4.9 4.1 4.9 2.8 0 4.6-1.9 4.6-5.3v-9.9h3v17.6h-3zm19.3 0c-1 1.6-2.9 2.5-4.9 2.5-3.4 0-6.8-1.9-6.8-6.6v-11.4h3V116c0 2.6 1.1 4.9 4.1 4.9 2.8 0 4.6-1.9 4.6-5.3v-9.9h3v17.6h-3zm7.9-15.5h3v2.5h.1c1.5-2.7 3-2.9 5.5-2.9v3.2c-.4-.1-.9-.2-1.4-.2-2.5 0-4.2 1.8-4.2 5v10h-3z" class="st0"/><path d="M112.5 97.8c0 13.3-10.8 24-24 24-13.3 0-24-10.8-24-24s10.8-24 24-24V61c-20.3 0-36.8 16.5-36.8 36.8s16.5 36.8 36.8 36.8 36.8-16.5 36.8-36.8z" class="st1"/><path d="M164.2 97.8c0 41.8-34 75.7-75.7 75.7-41.8 0-75.7-34-75.7-75.7s34-75.7 75.7-75.7V9.3C39.7 9.3 0 49 0 97.8s39.7 88.4 88.4 88.4c48.8 0 88.4-39.7 88.4-88.4z" class="st1"/><path d="M138.3 97.8c0 27.5-22.4 49.9-49.9 49.9s-49.9-22.4-49.9-49.9 22.4-49.9 49.9-49.9V35.2c-34.5 0-62.6 28.1-62.6 62.6s28.1 62.6 62.6 62.6S151 132.3 151 97.8z" class="st0"/></svg>