<svg width="32" height="37" viewBox="0 0 32 37" fill="none" xmlns="http://www.w3.org/2000/svg">
<path d="M0 9.25V27.75L15.6 37L31.2 27.75V9.25L15.6 0L0 9.25Z" fill="#FBC5B4"/>
<path d="M18.3302 22.1243C18.3302 22.9052 17.6726 23.5627 16.8917 23.5627H14.8367C14.0558 23.5627 13.3982 22.9052 13.3982 22.1243L13.3981 21.0967H6.00037V24.3846C6.00037 25.0833 6.53466 25.6176 7.23341 25.6176H24.4954C25.1529 25.6176 25.7284 25.0833 25.7284 24.3846V21.0967H18.3303L18.3302 22.1243Z" fill="#090940"/>
<path d="M24.4948 12.4661H19.1518V11.233C19.1518 10.5343 18.5764 10 17.9188 10H13.8089C13.48 10 13.1513 10.1233 12.9457 10.3699C12.6993 10.6166 12.576 10.9043 12.576 11.233V12.4661H7.23304C6.5343 12.4661 6 13.0004 6 13.6991V20.2751H13.3981V19.2477C13.3981 18.4668 14.0557 17.8093 14.8365 17.8093H16.8916C17.6725 17.8093 18.33 18.4668 18.33 19.2477V20.2751H25.7281L25.728 13.6991C25.728 13.0004 25.1525 12.4661 24.4949 12.4661L24.4948 12.4661ZM13.3978 11.233C13.3978 11.1098 13.439 11.0276 13.5211 10.9453C13.6034 10.8632 13.6855 10.822 13.8088 10.822H17.9187C18.1241 10.822 18.3297 11.0275 18.3297 11.2331V12.4661H13.3978L13.3978 11.233Z" fill="#090940"/>
<path d="M16.8913 22.7408C17.2202 22.7408 17.5078 22.4531 17.5078 22.1244L17.5079 21.0968V19.2473C17.5079 18.9184 17.2202 18.6309 16.8915 18.6309H14.8364C14.5076 18.6309 14.22 18.9186 14.22 19.2473L14.2198 20.2749V22.1244C14.2198 22.4532 14.5076 22.7408 14.8363 22.7408H16.8913Z" fill="#090940"/>
</svg>
