<svg xmlns="http://www.w3.org/2000/svg" width="47" height="60" fill="none"><g clip-path="url(#a)"><path fill="#212121" d="m38.56 25.26-6.08 4.85-1.2.97-7.74 6.17-7.82-6.2-1.22-.98-6.06-4.8H.5v33.82h7.98V35.55L13.1 39l1.44 1.07 7.1 5.29h3.83l6.93-5.17 1.44-1.07 4.78-3.56V59.1h7.98V25.26h-8.03Z"/><path fill="#999" d="m23.52 25.1-.25.53-.25-.54-9.42 4.46v29.74h1.43V30.47l8.24-3.9 8.24 3.9v28.82h1.43V29.55l-9.42-4.46Z"/><path fill="#999" d="M22.51 25.9c-.41-1.92-2.89-2.61-5.07-3.22-.77-.21-1.49-.42-2.09-.66-2.47-1.01-5.27-2.16-6.84-4.9a6.06 6.06 0 0 1 0-5.9 4.58 4.58 0 0 1 4.33-2.43c3.4.17 6.12 3.12 8.34 9.02.62 1.63 1.2 3.3 1.72 4.94.09.28.23.6.37.92.3.67.6 1.36.65 2.02l-1.41.21ZM12.6 10.23a3.2 3.2 0 0 0-2.84 1.7 4.56 4.56 0 0 0 0 4.46c1.32 2.32 3.77 3.32 6.14 4.29.53.21 1.2.4 1.93.6 1.14.32 2.4.68 3.5 1.24-.46-1.4-.95-2.8-1.47-4.2-2-5.3-4.31-7.94-7.08-8.08h-.18Z"/><path fill="#999" d="m24.3 25.9-1.42-.2c.05-.67.35-1.36.65-2.03.14-.32.28-.63.37-.92.53-1.66 1.11-3.32 1.72-4.94 2.22-5.9 4.95-8.85 8.34-9.02a4.6 4.6 0 0 1 4.34 2.43 6.05 6.05 0 0 1 0 5.9c-1.58 2.75-4.38 3.9-6.85 4.9-.6.25-1.32.45-2.08.66-2.19.61-4.67 1.3-5.08 3.22Zm9.92-15.67h-.19c-2.76.15-5.07 2.8-7.07 8.1-.52 1.37-1.01 2.78-1.48 4.2 1.1-.57 2.37-.93 3.5-1.25.73-.2 1.41-.39 1.93-.6 2.37-.97 4.82-1.97 6.15-4.29.77-1.34.77-3.1 0-4.45a3.2 3.2 0 0 0-2.84-1.7Z"/></g><defs><clipPath id="a"><path fill="#fff" d="M.23.2h46.36v58.9H.23z"/></clipPath></defs></svg>