<svg width="97" height="97" viewBox="0 0 97 97" fill="none" xmlns="http://www.w3.org/2000/svg">
<path d="M85.7116 30.3127H18.8392L43.0773 9.10435C44.7572 7.63438 44.9273 5.08112 43.4575 3.40124C41.9875 1.72136 39.4343 1.55123 37.7544 3.02101L5.42101 31.3128C4.9847 31.6945 4.65259 32.1504 4.42221 32.6441C1.73444 34.7076 0 37.9514 0 41.6011V75.6077C0 80.7271 3.41072 85.0491 8.08245 86.4313V90.9377C8.08245 93.1698 9.89192 94.9793 12.1241 94.9793C14.3562 94.9793 16.1657 93.1698 16.1657 90.9377V86.8961H80.8323V90.9377C80.8323 93.1698 82.6417 94.9793 84.8739 94.9793C87.106 94.9793 88.9155 93.1698 88.9155 90.9377V86.4317C93.5885 85.05 97 80.7277 97 75.6077V41.6011C97 35.3677 91.945 30.3127 85.7116 30.3127ZM88.9166 75.6077C88.9166 77.3768 87.4807 78.8127 85.7116 78.8127H11.2884C9.51926 78.8127 8.0834 77.3768 8.0834 75.6077V41.6011C8.0834 39.8319 9.51926 38.3961 11.2884 38.3961H85.7116C87.4807 38.3961 88.9166 39.8319 88.9166 41.6011V75.6077Z" fill="white"/>
<path d="M60.6241 46.4795H36.3741C34.142 46.4795 32.3325 48.289 32.3325 50.5211V66.6879C32.3325 68.92 34.142 70.7295 36.3741 70.7295H60.6241C62.8563 70.7295 64.6657 68.92 64.6657 66.6879V50.5213C64.6657 48.2891 62.8563 46.4795 60.6241 46.4795ZM56.5823 62.6463H40.4157V54.5629H56.5823V62.6463Z" fill="white"/>
<path d="M20.2074 62.646C17.9764 62.646 16.1658 64.4566 16.1658 66.6876C16.1658 68.9186 17.9764 70.7292 20.2074 70.7292C22.4384 70.7292 24.249 68.9186 24.249 66.6876C24.249 64.4566 22.4384 62.646 20.2074 62.646Z" fill="white"/>
<path d="M20.2074 46.4795C17.9764 46.4795 16.1658 48.2901 16.1658 50.5211C16.1658 52.7521 17.9764 54.5629 20.2074 54.5629C22.4384 54.5629 24.249 52.7523 24.249 50.5213C24.249 48.2903 22.4384 46.4795 20.2074 46.4795Z" fill="white"/>
<path d="M76.7909 62.646C74.5599 62.646 72.7493 64.4566 72.7493 66.6876C72.7493 68.9186 74.5599 70.7292 76.7909 70.7292C79.0219 70.7292 80.8325 68.9186 80.8325 66.6876C80.8325 64.4566 79.0219 62.646 76.7909 62.646Z" fill="white"/>
<path d="M76.7909 46.4795C74.5599 46.4795 72.7493 48.2901 72.7493 50.5211C72.7493 52.7521 74.5599 54.5629 76.7909 54.5629C79.0219 54.5629 80.8325 52.7523 80.8325 50.5213C80.8325 48.2903 79.0219 46.4795 76.7909 46.4795Z" fill="white"/>
</svg>
