<svg xmlns="http://www.w3.org/2000/svg" width="297" height="46" fill="none"><path fill="#212121" d="M.42 1.96h10.04v42.86H.42V1.96ZM46.59 36.25v8.57h-22.1V1.96h9.91v34.3h12.19ZM80.16 36.25v8.57h-22.1V1.96h9.91v34.3h12.19ZM101.54 9.92v9.73h16.23v7.78h-16.23v9.43h16.23v7.96H91.62V1.96h26.15v7.96h-16.23ZM147.16 1.96c14.2 0 22.28 10.47 22.28 21.43 0 10.96-8.02 21.43-22.28 21.43h-15.74V1.96h15.74Zm-5.82 8.57v25.72h5.32c8.03 0 12.68-6.25 12.68-12.86 0-6.62-4.65-12.86-12.68-12.86h-5.32ZM179.2 23.4c0-11.76 8.44-22.54 22.71-22.54 14.27 0 22.66 10.78 22.66 22.53 0 11.76-8.45 22.54-22.66 22.54-14.2 0-22.72-10.78-22.72-22.54Zm35.27 0c0-7.05-4.78-13.6-12.56-13.6-7.77 0-12.55 6.55-12.55 13.6 0 7.03 4.71 13.59 12.55 13.59 7.84 0 12.56-6.56 12.56-13.6ZM262.3 29.88V1.96h9.87v42.86H261.8l-15.43-27.55v27.55h-9.92V1.96h10.35l15.5 27.92ZM286.2 1.96h10.04v42.86h-10.05V1.96Z"/></svg>