<svg xmlns="http://www.w3.org/2000/svg" width="682.667" height="682.667" version="1.0" viewBox="0 0 512 512"><path fill="#fff" d="M194 1.1c-29.8 3.3-62.4 14.5-87 29.9-25 15.6-47.2 37.1-63.4 61.4-21.4 32-32.8 67.5-34.3 106.6-4 106.3 72.9 197.9 178.5 212.4 14.4 2 40.6 2.1 55.5.1 28.7-3.8 58.9-14.8 82.4-30.1l8.2-5.3 49.7 51.7c85.8 89.2 79.6 83.6 92.4 83.7 6.5 0 8.2-.4 12.9-3 6.3-3.5 10.5-8.2 12.6-14.4 2.8-8.2 1.7-16.8-3-23.8-1.1-1.7-28.6-30.7-61-64.4s-59.9-62.4-61.2-63.9l-2.2-2.6 6.9-9.2c21.6-28.7 35.4-63.3 40-100.2 1.5-12.2 1.2-36.1-.5-49.7C408.7 89.4 337.7 16.6 247 2.4 235.2.6 205.4-.2 194 1.1zm49 55.4c61.3 11.8 108.7 57.9 122.1 118.8 3.2 14.5 3.7 40.8 1.1 56.2-11.2 65.3-61.9 115.6-127 126.1-10.9 1.7-34.8 1.9-45.3.4-55.5-8.4-101.1-45.2-121.4-98-11-28.4-12.5-65.1-3.9-94.8 12.1-41.7 40.3-75.6 79.2-95.1 15.8-8 30.8-12.4 52.7-15.5 6.5-.9 34.4.3 42.5 1.9z"/></svg>