<svg width="28" height="28" viewBox="0 0 28 28" fill="none" xmlns="http://www.w3.org/2000/svg">
<g clip-path="url(#clip0_26_145)">
<path fill-rule="evenodd" clip-rule="evenodd" d="M14.8495 28.0002H13.0995C13.041 27.9798 12.9807 27.9649 12.9194 27.9557C11.7387 27.8827 10.5745 27.6421 9.46167 27.2411C4.38715 25.3608 1.30618 21.767 0.21875 16.4596C0.14875 16.1193 0.107268 15.7706 0.0657868 15.4219L0.065785 15.4219C0.045045 15.2476 0.0243048 15.0732 0 14.8999V13.1499C0.0207615 13.072 0.0365916 12.9929 0.0473959 12.913C0.121538 11.9061 0.3099 10.911 0.608854 9.94671C2.81094 2.78192 10.2579 -1.39329 17.4745 0.48942C20.9393 1.38614 23.9283 3.57745 25.8258 6.61199C27.7233 9.64653 28.3848 13.2932 27.6741 16.8009C26.5606 22.4045 22.0165 26.8276 16.3829 27.7894C16.0504 27.8433 15.7154 27.8866 15.3804 27.9299C15.2033 27.9528 15.0262 27.9757 14.8495 28.0002ZM14.3308 23.2532L14.3309 23.2532C14.5618 23.2409 14.826 23.2267 15.0872 23.1957C16.8751 22.99 18.4873 22.3651 19.8392 21.1489C20.8514 20.2584 21.5456 19.0621 21.8167 17.7415C21.9341 17.1852 21.568 16.7717 20.9971 16.8176C20.9156 16.8251 20.8353 16.8422 20.7579 16.8687C18.954 17.4827 17.0939 17.7801 15.1958 17.8728C13.1235 17.9734 11.0687 17.8407 9.0424 17.3828C8.65358 17.2949 8.27033 17.1824 7.88689 17.0699L7.88679 17.0698C7.63387 16.9956 7.38087 16.9213 7.12615 16.8541C6.46625 16.6798 6.00615 17.1254 6.14615 17.786C6.41483 19.0789 7.09537 20.2499 8.08573 21.1234C9.75698 22.6277 11.7644 23.2241 14.0664 23.2686C14.1473 23.2631 14.2363 23.2583 14.3308 23.2532ZM19.0527 12.5946C19.0023 12.5982 18.9514 12.6 18.9 12.6C17.7402 12.6 16.8 11.6598 16.8 10.5C16.8 9.34025 17.7402 8.40005 18.9 8.40005C20.0598 8.40005 21 9.34025 21 10.5C21 10.868 20.9054 11.2138 20.7391 11.5146C20.6982 11.6089 20.6491 11.7 20.5921 11.7867C20.397 12.0835 20.1182 12.3156 19.791 12.4538C19.5566 12.5528 19.3049 12.6003 19.0527 12.5946ZM9.1 12.6C9.03785 12.6 8.97633 12.5973 8.91555 12.5921C8.90122 12.5925 8.88687 12.5928 8.8725 12.5929C8.51851 12.5952 8.17179 12.4924 7.87621 12.2976C7.58063 12.1028 7.34947 11.8247 7.21198 11.4985C7.16739 11.3928 7.13331 11.2835 7.10988 11.1722C7.03863 10.9612 7 10.7351 7 10.5C7 9.34025 7.9402 8.40005 9.1 8.40005C10.2598 8.40005 11.2 9.34025 11.2 10.5C11.2 11.6598 10.2598 12.6 9.1 12.6Z" fill="white"/>
</g>
<defs>
<clipPath id="clip0_26_145">
<rect width="28" height="28" fill="white"/>
</clipPath>
</defs>
</svg>
