<svg width="24" height="24" viewBox="0 0 24 24" fill="none" xmlns="http://www.w3.org/2000/svg">
<mask id="mask0_730_3958" style="mask-type:alpha" maskUnits="userSpaceOnUse" x="0" y="0" width="24" height="24">
<rect x="21.9508" y="21.9508" width="20.8712" height="20.8712" transform="rotate(-180 21.9508 21.9508)" fill="#D9D9D9" stroke="#212121" stroke-width="2.15909"/>
</mask>
<g mask="url(#mask0_730_3958)">
<mask id="path-2-inside-1_730_3958" fill="white">
<path d="M14.6692 5.75734L20.1514 11.5149L14.6692 17.2725L13.39 15.9291L16.6793 12.4745H5.53214H0.241726V10.5553H3.70473H16.6793L13.39 7.10077L14.6692 5.75734Z"/>
</mask>
<path d="M14.6692 5.75734L20.1514 11.5149L14.6692 17.2725L13.39 15.9291L16.6793 12.4745H5.53214H0.241726V10.5553H3.70473H16.6793L13.39 7.10077L14.6692 5.75734Z" fill="#FEFCFA"/>
<path d="M14.6692 5.75734L16.2328 4.26848L14.6692 2.6263L13.1055 4.26848L14.6692 5.75734ZM20.1514 11.5149L21.715 13.0038L23.1327 11.5149L21.715 10.0261L20.1514 11.5149ZM14.6692 17.2725L13.1055 18.7613L14.6692 20.4035L16.2328 18.7613L14.6692 17.2725ZM13.39 15.9291L11.8263 14.4402L10.4087 15.9291L11.8263 17.4179L13.39 15.9291ZM16.6793 12.4745L18.243 13.9634L21.7164 10.3154H16.6793V12.4745ZM0.241726 12.4745H-1.91736V14.6336L0.241726 14.6336V12.4745ZM0.241726 10.5553V8.39623H-1.91736V10.5553H0.241726ZM16.6793 10.5553V12.7144H21.7164L18.243 9.06646L16.6793 10.5553ZM13.39 7.10077L11.8263 5.61191L10.4087 7.10077L11.8263 8.58963L13.39 7.10077ZM14.6692 5.75734L13.1055 7.2462L18.5878 13.0038L20.1514 11.5149L21.715 10.0261L16.2328 4.26848L14.6692 5.75734ZM20.1514 11.5149L18.5878 10.0261L13.1055 15.7836L14.6692 17.2725L16.2328 18.7613L21.715 13.0038L20.1514 11.5149ZM14.6692 17.2725L16.2328 15.7836L14.9536 14.4402L13.39 15.9291L11.8263 17.4179L13.1055 18.7613L14.6692 17.2725ZM13.39 15.9291L14.9536 17.4179L18.243 13.9634L16.6793 12.4745L15.1157 10.9856L11.8263 14.4402L13.39 15.9291ZM16.6793 12.4745V10.3154H5.53214V12.4745V14.6336H16.6793V12.4745ZM5.53214 12.4745V10.3154H0.241726V12.4745V14.6336H5.53214V12.4745ZM0.241726 12.4745H2.40082V10.5553H0.241726H-1.91736V12.4745H0.241726ZM0.241726 10.5553V12.7144H3.70473V10.5553V8.39623H0.241726V10.5553ZM3.70473 10.5553V12.7144H16.6793V10.5553V8.39623L3.70473 8.39623V10.5553ZM16.6793 10.5553L18.243 9.06646L14.9536 5.61191L13.39 7.10077L11.8263 8.58963L15.1157 12.0442L16.6793 10.5553ZM13.39 7.10077L14.9536 8.58963L16.2328 7.2462L14.6692 5.75734L13.1055 4.26848L11.8263 5.61191L13.39 7.10077Z" fill="#212121" mask="url(#path-2-inside-1_730_3958)"/>
</g>
</svg>
