<svg width="1128" height="81" viewBox="0 0 1128 81" fill="none" xmlns="http://www.w3.org/2000/svg">
<path d="M559.714 74.9916C557.907 66.5706 547.05 63.5409 537.477 60.8685C534.14 59.9363 530.988 59.0507 528.351 57.9709C517.525 53.5506 505.253 48.5399 498.364 36.5143C493.874 28.676 493.881 18.5148 498.372 10.6376C502.424 3.54496 509.267 -0.409195 517.363 0.0336073C532.21 0.779381 544.167 13.7061 553.901 39.5441C556.592 46.691 559.121 53.9701 561.413 61.1715C561.813 62.4222 562.428 63.7972 563.058 65.2188C564.35 68.132 565.68 71.154 565.903 74.0671L559.706 74.9838L559.714 74.9916ZM516.233 6.34937C509.128 6.34937 505.407 11.026 503.815 13.8149C500.417 19.7578 500.409 27.4252 503.8 33.337C509.613 43.4827 520.339 47.8563 530.711 52.0979C533.01 53.0379 535.993 53.8691 539.153 54.7547C544.151 56.1453 549.718 57.7067 554.5 60.1926C552.494 54.0556 550.325 47.8874 548.042 41.8047C539.292 18.5692 529.158 6.97862 517.056 6.36491L516.241 6.3416L516.233 6.34937Z" fill="#997700"/>
<path d="M567.519 74.9924L561.321 74.0757C561.544 71.1548 562.882 68.1328 564.174 65.2119C564.797 63.798 565.412 62.4308 565.812 61.18C568.134 53.9088 570.663 46.6297 573.324 39.5526C583.058 13.7147 595.014 0.787963 609.861 0.0421901C617.919 -0.377307 624.808 3.55354 628.86 10.6617C633.351 18.5389 633.351 28.6845 628.86 36.5229C621.956 48.5641 609.692 53.5669 598.874 57.9794C596.237 59.0593 593.084 59.9371 589.747 60.8693C580.174 63.5494 569.318 66.5791 567.503 75.0002L567.519 74.9924ZM610.992 6.35019L610.176 6.37349C598.082 6.97943 587.948 18.5778 579.198 41.8133C576.93 47.8338 574.761 54.0098 572.739 60.1935C577.522 57.7075 583.089 56.1461 588.086 54.7555C591.246 53.8699 594.23 53.0387 596.529 52.0987C606.893 47.8649 617.612 43.4912 623.432 33.3379C626.823 27.4338 626.823 19.7663 623.424 13.8235C621.841 11.0268 618.104 6.35019 610.992 6.35019Z" fill="#997700"/>
<path d="M0 77.5H1127.5" stroke="#997700" stroke-width="6"/>
</svg>
