<svg width="31" height="33" viewBox="0 0 31 33" fill="none" xmlns="http://www.w3.org/2000/svg">
<g clip-path="url(#clip0_651_4419)">
<path d="M3.55339 6.19349C3.70476 5.78388 6.33054 5.73446 6.46491 3.8993C7.91509 3.8993 6.34924 1.27721 8.12786 1.1545C9.21018 1.07983 11.0276 -0.786832 11.8432 -1.47125C12.8668 -2.33006 13.8507 -3.09753 15.1881 -3.21116C16.2741 -3.31539 16.8647 -2.53747 17.812 -2.24459C18.0997 -2.15563 18.7713 -2.19733 19.1095 -2.16547C20.0733 -2.07465 22.6042 -1.83958 23.443 -1.40829C24.7626 -0.714982 24.7494 -0.00434589 25.1457 1.1545C26.1238 1.78696 26.5899 1.51437 26.7822 3.11958C28.0693 3.75759 28.5935 4.89171 28.495 6.32074C29.3804 7.65641 28.6521 8.27988 29.0783 8.82686C29.3987 9.23782 29.8629 9.42746 30.2363 9.77403C30.5825 10.0558 30.8882 10.5495 31.2044 10.8405C34.3735 13.7575 35.1849 15.7713 33.3408 19.0488C32.5943 20.3755 34.433 21.1428 33.3408 22.241C33.4663 23.0767 32.5248 22.498 32.8089 23.2333C35.1928 23.9171 32.3946 24.5475 32.4897 24.9126C33.2069 25.5621 31.5506 25.8073 31.1021 26.6621C31.4816 28.7563 31.982 31.4553 29.2612 31.7865C29.0433 32.7495 28.8622 32.8146 28.2341 33.3983L28.2142 33.4171C27.9588 34.9085 27.494 37.1584 26.6018 38.3773C25.3719 40.0577 24.498 39.2743 23.1803 39.6255C22.8099 39.7243 22.6673 40.0659 22.2608 40.195C21.4093 40.4653 21.1885 40.134 20.2398 40.6454C19.099 41.2603 18.6529 40.9501 17.6397 41.0774C15.6837 42.0422 14.2752 40.7404 12.3658 40.3973C11.7281 40.2827 11.3829 40.3795 10.7576 40.3994C8.75535 40.463 6.72067 39.7715 6.46491 37.4214C4.63346 36.9304 5.61237 35.167 5.68327 34.0046C5.53903 33.9009 5.22946 33.6955 5.06442 33.6532C3.76647 33.3201 3.95787 33.2848 3.26539 32.3058C2.46021 31.1676 2.0606 30.6246 2.40035 28.9744C2.45885 28.69 2.61305 28.3433 2.64488 28.0623C2.67379 27.562 2.74801 26.4263 2.6985 26.0111C2.54918 24.7582 2.01578 25.1797 2.40035 24.0105C2.47096 23.7747 1.79292 23.4944 1.85151 23.2212C0.911569 22.557 0.157874 21.803 0.255432 20.5148C-1.54493 19.3856 -1.22242 16.9872 -0.209352 14.8721C0.54813 13.2907 -0.425763 11.7443 0.255683 10.2531C-0.388068 9.24803 1.46968 5.56176 2.64488 5.21395C3.48658 4.96903 2.01989 6.61749 3.55339 6.19349ZM23.1595 36.0139C23.3022 36.0563 23.3908 36.09 23.5309 36.0409C24.2064 35.449 23.9109 31.6459 23.7444 30.4163C24.2185 30.0291 24.2149 29.831 24.5951 29.4389C23.9243 26.4142 22.2302 24.2816 19.3576 23.4564L19.4823 23.2333C19.1502 22.8458 18.503 22.7296 18.0592 22.4826C18.5683 22.4535 18.7139 22.4368 19.1824 22.241C20.1101 22.8037 20.4402 22.5543 21.3895 22.241C22.2156 22.9559 23.3312 22.2915 23.8545 21.4948C25.8895 22.8876 27.0282 19.5406 26.6075 17.6797C26.3809 16.677 26.0924 16.1268 25.6205 15.3158C26.1578 14.1974 26.3164 12.6923 25.2407 11.851C25.1325 6.873 21.4879 1.63308 16.4797 1.81016C15.4542 1.84642 13.4433 2.18364 13.0045 3.30402C11.7257 3.05336 11.3342 3.08756 10.2076 3.8993C8.26189 5.30132 7.17985 8.37677 6.96247 10.7914C4.86501 11.0834 4.94811 14.1349 6.87018 15.4141C6.31306 16.8974 5.69323 18.0156 5.77575 19.6971C5.82624 20.7244 6.09499 21.8294 7.24773 20.9287C7.44909 22.0898 8.91541 22.6721 9.74343 21.8087C10.1745 22.562 11.2199 22.5313 11.8403 22.0392C12.6739 23.1937 13.6931 22.193 13.6714 22.7998L13.6491 22.8334L13.6213 22.8348C13.2636 22.8568 13.0534 23.0151 12.7721 23.0495C9.51462 23.4486 7.79118 27.006 6.97458 29.9911C6.8194 30.5586 6.9739 30.9234 7.45554 31.2575C7.34226 32.2524 6.73093 35.7977 6.99694 36.2454C7.04851 36.3322 7.16384 36.3842 7.24773 36.4264C7.33034 36.3775 7.49655 36.2476 7.56159 36.2508C7.59431 36.9049 9.39978 37.2178 9.87283 37.1101L10.1884 37.25C10.4279 37.1628 10.4935 37.1842 10.53 36.9037C10.7262 36.9904 10.8888 37.1499 11.0085 37.3343C10.9357 37.6741 11.9095 37.7294 12.1006 37.7471C14.5434 37.9741 16.9659 37.8575 19.3752 37.3757C20.4083 37.1691 20.5675 37.2286 20.9665 36.1419C21.1097 36.1764 21.2473 36.2123 21.3895 36.2508C21.4339 36.6658 21.7812 36.9447 22.126 36.6709C22.6114 36.6494 22.9331 36.4971 23.1595 36.0139Z" fill="#DCAD51"/>
<path d="M19.6706 24.3942C19.4565 24.3029 19.2597 24.2204 19.0518 24.1125C18.7163 24.9008 18.474 25.6277 18.0096 26.3436C17.1774 27.6267 16.9987 26.9791 16.1898 26.4297C16.1137 27.3391 15.8903 27.7447 15.7583 28.518C15.8683 28.5637 15.9787 28.6115 16.0909 28.6504C16.2052 28.9773 16.1731 29.043 16.0909 29.3826C15.9245 29.3812 15.7466 29.3867 15.583 29.3826C15.5489 29.5714 15.526 29.7011 15.5115 29.892C15.4703 30.3322 15.4971 30.5689 15.5115 30.9916C15.5324 31.2002 15.552 31.4721 15.583 31.6744C15.6026 31.8441 15.6205 32.0266 15.648 32.194C15.8079 32.0558 15.9394 31.9348 16.0909 31.7863C16.8712 30.6897 17.9945 32.4136 16.0202 32.7648C16.2585 32.892 16.8596 33.1246 16.7184 33.4676C16.6602 33.5014 15.892 33.2083 15.7583 33.1736C15.7667 33.4176 15.9866 34.2265 15.5789 34.1349C15.4031 33.9894 15.3535 33.6402 15.3137 33.4169C15.0751 33.4454 14.3869 33.8734 14.3395 33.4071C14.3844 33.2813 14.651 33.1596 14.7795 33.0875C12.6613 33.1067 13.1656 31.1094 14.5772 31.7863C14.7817 31.8867 14.9886 32.0533 15.1734 32.194C15.1443 31.9337 15.0974 31.6888 15.0509 31.4321C14.7529 28.8818 15.645 28.0503 15.648 26.0297C13.8054 29.2936 13.0272 25.6877 12.1871 23.9009C11.6604 24.1759 11.046 24.4746 10.5711 24.8279C8.98502 26.0078 7.86676 28.5891 7.40269 30.5795C7.67379 30.862 8.73141 31.473 9.07975 31.6744C9.08561 31.5148 9.09713 31.412 9.14235 31.2574C9.95729 31.0844 8.98775 32.3129 10.4038 33.1209C10.6373 33.2541 11.0595 33.4442 11.1679 33.704C11.2156 33.818 11.0919 34.0492 10.9331 34.0399C10.6902 34.0255 10.4646 33.8543 10.2618 33.726C10.2607 34.7918 10.3279 35.8707 10.3168 36.9035C10.2803 37.1841 10.2147 37.1626 9.97516 37.2499L9.65963 37.1099C9.41315 35.9606 9.611 34.4632 9.53024 33.2942C9.26481 32.9318 9.01471 32.5781 8.96744 32.1014C8.57926 31.9606 8.24683 31.7915 7.84781 31.6744C7.89195 32.5687 7.56949 35.702 7.3484 36.2507C7.28336 36.2475 7.11715 36.3774 7.03453 36.4262C6.95064 36.3841 6.83531 36.332 6.78375 36.2453C6.51773 35.7976 7.12906 32.2523 7.24234 31.2574C6.7607 30.9232 6.60621 30.5584 6.76138 29.991C7.57799 27.0059 9.30143 23.4484 12.559 23.0494C12.8402 23.0149 13.0504 22.8566 13.4081 22.8347L13.4359 22.8332L13.4582 22.7997C13.48 22.1929 12.4607 23.1936 11.6271 22.0391C11.0067 22.5312 9.96129 22.5618 9.53024 21.8085C8.70221 22.672 7.2359 22.0897 7.03453 20.9286C5.88179 21.8292 5.61304 20.7242 5.56255 19.6969C5.48003 18.0154 6.09986 16.8972 6.65699 15.414C4.73491 14.1348 4.65181 11.0833 6.74927 10.7913C6.96666 8.37664 8.04869 5.30119 9.9944 3.89917C11.121 3.08743 11.5125 3.05322 12.7913 3.30389C13.2301 2.18351 15.241 1.84629 16.2665 1.81003C21.2747 1.63295 24.9193 6.87287 25.0275 11.8508C26.1032 12.6922 25.9446 14.1972 25.4073 15.3156C25.8792 16.1267 26.1677 16.6769 26.3943 17.6796C26.815 19.5405 25.6763 22.8875 23.6413 21.4947C23.118 22.2913 22.0024 22.9558 21.1763 22.2408C20.227 22.5542 19.8969 22.8035 18.9692 22.2408C18.5007 22.4367 18.3552 22.4533 17.846 22.4824C18.2898 22.7294 18.937 22.8457 19.2691 23.2331L19.1444 23.4563C22.017 24.2814 23.7111 26.4141 24.3819 29.4388C24.0018 29.8308 24.0053 30.0289 23.5312 30.4162C23.6977 31.6458 23.9933 35.4488 23.3177 36.0407C23.1776 36.0899 23.089 36.0562 22.9463 36.0137C22.6277 35.7831 22.8073 35.421 22.8669 35.0632C23.0867 33.7434 22.8157 32.3004 22.9463 30.9916C22.518 31.1933 21.9408 31.6514 21.4789 31.9237C21.6294 32.7354 22.2193 35.9869 21.9128 36.6707C21.5681 36.9445 21.2207 36.6657 21.1763 36.2507C21.2298 34.6316 20.7909 32.5201 20.6402 30.8712C20.6115 30.5101 20.2718 29.3277 20.9309 29.4082C21.1102 29.5371 21.2517 30.8058 21.3428 31.1546L21.3517 31.1879C21.931 30.8138 23.1414 29.9902 23.5632 29.3564C23.6222 29.2679 23.5268 28.9587 23.4906 28.84C22.8477 26.736 22.0814 25.6946 20.2164 24.695L19.9302 24.5825C19.8274 24.4957 19.7845 24.4624 19.6706 24.3942ZM15.7583 2.55012C15.0688 2.63892 13.9461 2.92583 13.4607 3.46657C12.7705 4.23539 13.0638 4.15775 12.1799 3.89689C10.8578 3.50674 9.15924 5.74744 8.5942 6.92835C8.07955 8.00398 7.68873 9.96344 7.50777 11.1618C8.80523 9.19566 8.15601 8.13866 10.6569 6.57464C11.4619 6.07124 13.4456 5.48927 13.3511 4.22835C14.162 3.22451 14.1936 4.8364 14.6227 5.58772C16.031 7.94394 19.3703 7.84426 21.3565 9.31522C22.1524 9.90474 22.6679 10.6574 23.2294 11.4759C23.4543 11.3711 23.9952 11.3555 24.2484 11.3752C24.2426 8.76545 22.6308 5.5754 20.5679 4.06034C19.241 3.08589 17.6776 2.53812 16.069 2.54711L15.7583 2.55012ZM13.6285 5.34601C11.7641 7.62532 10.3766 6.20426 8.85992 10.1487C8.68004 10.5559 8.45641 10.9495 8.27564 11.3555C7.55367 12.9437 7.79635 15.5909 8.41187 17.1971C9.6483 20.4236 14.1662 21.1477 17.026 20.8617C17.98 20.6424 19.5298 20.1588 20.2981 19.4902C22.8093 17.3048 24.1919 11.9343 20.7416 9.78849C18.0929 8.23627 15.1783 8.58046 13.6285 5.34601ZM6.74927 11.4759C5.40943 12.0852 5.81695 13.9486 7.03453 14.7027C7.02759 14.4935 7.01705 14.2979 7.03453 14.0885V13.4456C5.77671 13.4643 6.12281 12.277 7.15787 12.8379C7.22535 12.4628 7.27115 12.0596 7.3484 11.6958C7.1563 11.6148 6.9356 11.4719 6.74927 11.4759ZM23.7577 12.0748C23.6392 12.1231 23.578 12.1493 23.4673 12.2139C23.3874 12.7837 23.4838 13.478 23.4673 14.0885C23.7433 13.8025 23.8718 13.6385 24.0415 13.2688C24.2431 12.8767 24.706 12.9937 24.6061 13.4495C24.3477 14.6284 23.4059 14.6976 23.3604 14.8746C23.3165 15.1109 23.264 15.3673 23.2294 15.6035C25.8651 15.6124 25.3942 11.9803 23.7577 12.0748ZM7.3484 15.8121C6.7608 16.8375 6.28111 18.6553 6.30572 19.8108C6.32974 20.934 6.68521 20.4328 6.85796 19.7131C7.78492 19.7143 7.39839 20.0916 7.68258 20.9286C7.80592 20.604 7.92144 19.0361 8.50133 19.3198C9.00299 19.6338 8.28101 21.2497 8.47545 21.5387C8.73482 21.5988 8.986 21.3857 9.14235 21.1873C9.27496 20.9319 9.46529 20.4516 9.73434 20.3646C10.6269 20.0761 9.59635 22.9207 11.6271 21.0437C10.6048 20.7685 8.53141 19.0986 8.00055 18.0852C7.51265 17.1537 7.55006 16.2585 7.3484 15.8121ZM24.8442 15.8982C24.2217 16.2983 23.8498 16.5401 23.0877 16.3328L23.0475 16.3214C21.344 21.5638 17.6137 21.1248 17.3437 21.5373C17.6612 22.2312 18.8046 21.4671 19.2439 21.343L19.2691 21.3357C19.4021 21.5418 19.4819 21.6701 19.5729 21.9027C19.9143 21.901 20.3738 21.8509 20.6706 21.6519C20.9698 21.5213 21.1938 21.3222 21.4789 21.1873C21.5366 21.2747 21.6195 21.4228 21.6721 21.4947C21.6632 21.6582 21.6579 21.7389 21.6721 21.9027C22.5747 21.9181 23.2952 21.1234 23.6157 20.2877C23.7775 19.8583 23.6518 19.3529 23.7371 18.9205C23.8345 18.4264 24.8219 18.6108 24.3599 20.4727C24.2765 20.8084 24.0588 21.0947 24.5033 21.0397C25.4764 20.9194 25.8521 18.962 25.7109 18.0645C25.6576 17.7253 25.1006 15.9959 24.8442 15.8982ZM11.7103 21.0437C11.9546 21.2084 12.3234 21.669 12.5589 21.9027H12.9048L13.1129 21.6519C13.2079 21.5958 13.2655 21.564 13.3511 21.4947C12.9397 21.3559 12.1388 21.1348 11.7103 21.0437ZM14.039 21.5785C14.1678 22.1157 14.5717 23.4129 13.8103 23.5839L13.7832 23.5898C15.015 25.1746 15.201 25.4199 16.7732 24.3942C17.1805 23.954 17.4527 23.7336 17.846 23.2331C17.277 22.9845 16.6998 22.2978 16.5817 21.6519C15.7381 21.6918 14.8105 21.521 14.039 21.5785ZM13.0415 23.5898C12.9621 23.6166 12.8703 23.6504 12.7913 23.6736C13.1894 24.4745 13.7471 26.1305 14.3391 26.662C14.4192 26.5814 14.4939 26.507 14.5772 26.4297C14.7826 26.1591 14.9271 25.9503 15.1734 25.7183C13.8079 25.2286 13.1842 23.6297 13.0415 23.5898ZM18.3232 23.7629C17.5537 24.4409 17.2298 24.8882 16.3066 25.5589C16.4735 25.7119 16.6184 25.8627 16.7732 26.0297C16.9186 26.1357 17.1212 26.2938 17.2741 26.3724C17.4981 26.0689 18.6095 24.0101 18.384 23.7743L18.3232 23.7629ZM16.6594 31.8499C16.4846 31.9614 16.2827 32.1099 16.1545 32.2791L16.1457 32.3188L16.1898 32.3257C16.2732 32.2811 16.8746 31.9682 16.6594 31.8499ZM13.9266 32.1014C13.4533 32.5093 14.6864 32.7308 14.8975 32.7648L14.9594 32.7456C14.9785 32.4388 14.1698 32.0918 13.9266 32.1014Z" fill="#010101"/>
<path d="M7.50781 11.1617C7.68877 9.96332 8.07959 8.00386 8.59424 6.92823C9.15928 5.74732 10.8578 3.50662 12.1799 3.89677C13.0639 4.15763 12.7705 4.23527 13.4608 3.46645C13.9461 2.92571 15.0689 2.6388 15.7583 2.55L16.0691 2.54698C17.6777 2.538 19.241 3.08577 20.5679 4.06022C22.6309 5.57528 24.2426 8.76533 24.2485 11.3751C23.9952 11.3554 23.4543 11.371 23.2294 11.4758C22.6679 10.6573 22.1525 9.90462 21.3566 9.3151C19.3703 7.84414 16.0311 7.94382 14.6228 5.5876C14.1937 4.83628 14.162 3.22439 13.3512 4.22823C13.4456 5.48915 11.4619 6.07112 10.6569 6.57452C8.15606 8.13854 8.80528 9.19554 7.50781 11.1617ZM15.583 2.91286C14.5124 3.45931 17.774 7.08568 19.9302 6.99117C20.4633 6.49398 19.8429 6.256 19.4361 6.13551C18.2682 5.78987 16.1872 4.42636 16.0909 3.02495C15.9474 2.98941 15.7221 2.92322 15.583 2.91286ZM11.2558 4.75398C10.2671 4.98058 9.39356 5.84949 8.87539 6.74563C8.51533 7.36828 8.5918 7.9961 9.14239 7.57779C9.60391 7.12574 9.82969 6.51023 10.4003 6.00808C10.8405 5.56141 11.6039 5.41079 11.9432 5.01909C11.7126 4.78069 11.5906 4.71682 11.2558 4.75398Z" fill="#0F0F0C"/>
<path d="M19.9303 6.99139C17.7742 7.0859 14.5125 3.45954 15.5832 2.91309C15.7222 2.92345 15.9475 2.98964 16.0911 3.02517C16.1874 4.42658 18.2683 5.79009 19.4362 6.13573C19.843 6.25622 20.4634 6.49421 19.9303 6.99139Z" fill="#010101"/>
<path d="M9.14244 7.57827C8.59185 7.99658 8.51539 7.36876 8.87545 6.74611C9.39361 5.84997 10.2671 4.98106 11.2558 4.75446C11.5907 4.7173 11.7127 4.78117 11.9432 5.01957C11.604 5.41127 10.8406 5.56189 10.4004 6.00856C9.82974 6.51071 9.60396 7.12622 9.14244 7.57827Z" fill="#010101"/>
<path d="M17.0261 20.8619C14.1664 21.1479 9.64849 20.4238 8.41206 17.1973C7.79653 15.5911 7.55386 12.9438 8.27583 11.3557C8.45659 10.9497 8.68022 10.556 8.86011 10.1489C10.3768 6.20444 11.7643 7.62551 13.6287 5.34619C15.1785 8.58065 18.0931 8.23646 20.7418 9.78868C24.1921 11.9345 22.8095 17.305 20.2983 19.4904C19.53 20.159 17.9801 20.6426 17.0261 20.8619ZM11.3897 9.33714C9.82036 9.6216 10.1068 10.8525 10.7437 10.4642C11.3691 9.78454 12.0038 10.1712 11.9845 9.66187C11.9721 9.33352 11.6258 9.30961 11.3897 9.33714ZM18.8902 9.57171C18.2242 9.66259 17.9758 10.2382 18.6468 10.2609C19.2103 10.2799 19.2836 10.2418 19.6708 10.6992C20.3833 11.1826 20.2247 9.53061 18.8902 9.57171ZM11.894 11.162C10.217 11.5707 10.9153 13.5985 11.491 12.3353C11.6498 11.9869 12.1125 11.5247 12.3896 12.075L12.4088 12.1037C12.6326 12.4449 12.5624 12.7016 12.6949 13.0586C12.7571 13.2261 13.442 13.3687 13.2401 12.3534C13.0886 11.6424 12.6609 11.02 11.894 11.162ZM18.6121 11.4761C17.6814 11.6532 17.1283 13.2995 17.9283 13.2506C18.3347 13.2257 18.2788 11.8561 18.8902 12.2141C19.2136 12.5553 19.1294 13.4051 19.5247 13.4174C20.1409 13.4366 19.7782 11.3518 18.6121 11.4761ZM14.5774 12.5972C12.6111 12.9428 13.9046 15.114 14.9751 14.4264C15.7169 13.8001 14.5536 13.7841 14.4126 13.5839C14.4103 13.1111 15.2259 13.5267 15.3275 13.0189C15.4238 12.5373 14.8538 12.5738 14.5774 12.5972ZM17.5081 14.8748C16.6617 15.6889 15.8423 16.8091 14.4213 15.9886C14.1845 15.8518 13.9771 15.6546 13.7377 15.5355C13.1805 15.2585 13.0383 15.8406 13.5467 16.3216C16.3561 18.2463 19.0171 14.8205 17.5081 14.8748Z" fill="#FEFEFE"/>
<path d="M10.7438 10.4641C10.1069 10.8524 9.82049 9.62147 11.3898 9.33701C11.626 9.30948 11.9723 9.33339 11.9847 9.66174C12.0039 10.171 11.3692 9.78441 10.7438 10.4641Z" fill="#010101"/>
<path d="M19.6707 10.6991C19.2835 10.2416 19.2103 10.2797 18.6468 10.2608C17.9757 10.2381 18.2242 9.66244 18.8902 9.57156C20.2246 9.53046 20.3832 11.1825 19.6707 10.6991Z" fill="#010101"/>
<path d="M12.3896 12.075C12.1125 11.5247 11.6498 11.9869 11.491 12.3352C10.9153 13.5984 10.2171 11.5706 11.894 11.162C12.6609 11.0199 13.0887 11.6424 13.2401 12.3533C13.442 13.3686 12.7571 13.2261 12.6949 13.0586C12.5624 12.7016 12.6326 12.4448 12.4089 12.1037L12.3896 12.075Z" fill="#010101"/>
<path d="M18.89 12.214C18.2786 11.8561 18.3345 13.2257 17.9281 13.2505C17.1281 13.2995 17.6812 11.6532 18.6119 11.4761C19.778 11.3517 20.1407 13.4365 19.5245 13.4174C19.1292 13.4051 19.2134 12.5553 18.89 12.214Z" fill="#010101"/>
<path d="M7.0345 14.703C5.81692 13.9488 5.4094 12.0855 6.74925 11.4762C6.93558 11.4721 7.15628 11.6151 7.34837 11.696C7.27112 12.0599 7.22532 12.4631 7.15784 12.8381C6.12278 12.2773 5.77669 13.4646 7.0345 13.4459V14.0888C7.01702 14.2981 7.02757 14.4937 7.0345 14.703Z" fill="#FEFEFE"/>
<path d="M23.4674 12.2141C23.5781 12.1495 23.6394 12.1233 23.7578 12.0751C25.3943 11.9805 25.8652 15.6126 23.2295 15.6037C23.2641 15.3675 23.3166 15.1111 23.3605 14.8748C23.4061 14.6978 24.3479 14.6286 24.6062 13.4497C24.7061 12.9939 24.2432 12.8769 24.0416 13.269C23.8719 13.6387 23.7434 13.8027 23.4674 14.0887C23.4839 13.4782 23.3875 12.7839 23.4674 12.2141Z" fill="#FEFEFE"/>
<path d="M14.9749 14.4264C13.9044 15.1141 12.6109 12.9429 14.5772 12.5972C14.8536 12.5738 15.4236 12.5374 15.3273 13.0189C15.2258 13.5268 14.4101 13.1112 14.4124 13.5839C14.5534 13.7841 15.7167 13.8002 14.9749 14.4264Z" fill="#010101"/>
<path d="M13.5467 16.3214C13.0383 15.8405 13.1805 15.2583 13.7376 15.5353C13.977 15.6544 14.1845 15.8516 14.4212 15.9884C15.8422 16.809 16.6616 15.6887 17.508 14.8747C19.017 14.8203 16.3561 18.2462 13.5467 16.3214Z" fill="#010101"/>
<path d="M6.85833 19.713C6.68558 20.4328 6.33011 20.934 6.30608 19.8107C6.28147 18.6553 6.76116 16.8374 7.34876 15.812C7.55042 16.2585 7.51302 17.1537 8.00091 18.0851C8.53177 19.0985 10.6051 20.7685 11.6275 21.0436C9.59672 22.9207 10.6273 20.076 9.7347 20.3645C9.46566 20.4515 9.27533 20.9318 9.14271 21.1873C8.98636 21.3856 8.73519 21.5988 8.47581 21.5386C8.28138 21.2496 9.00335 19.6337 8.50169 19.3198C7.92181 19.036 7.80628 20.604 7.68294 20.9285C7.39876 20.0916 7.78528 19.7142 6.85833 19.713Z" fill="#0F0F0C"/>
<path d="M23.0475 16.3216L23.0877 16.333C23.8498 16.5403 24.2217 16.2985 24.8443 15.8984C25.1006 15.9962 25.6576 17.7255 25.711 18.0647C25.8522 18.9622 25.4764 20.9197 24.5033 21.04C24.0588 21.0949 24.2765 20.8086 24.3599 20.4729C24.8219 18.6111 23.8345 18.4266 23.7371 18.9207C23.6519 19.3532 23.7776 19.8585 23.6157 20.2879C23.2952 21.1236 22.5747 21.9183 21.6721 21.903C21.6579 21.7391 21.6632 21.6585 21.6721 21.4949C21.6195 21.4231 21.5366 21.2749 21.4789 21.1876C21.1939 21.3225 20.9698 21.5215 20.6706 21.6522C20.3738 21.8511 19.9144 21.9012 19.573 21.903C19.4819 21.6704 19.4022 21.542 19.2691 21.3359L19.244 21.3433C18.8046 21.4674 17.6612 22.2314 17.3438 21.5376C17.6138 21.1251 21.3441 21.5641 23.0475 16.3216Z" fill="#0F0F0C"/>
<path d="M12.559 21.903C12.3235 21.6693 11.9547 21.2086 11.7104 21.0439C12.139 21.135 12.9398 21.3561 13.3513 21.495C13.2656 21.5643 13.208 21.5961 13.113 21.6522L12.9049 21.903H12.559Z" fill="#0F0F0C"/>
<path d="M13.7832 23.5902L13.8104 23.5843C14.5717 23.4133 14.1679 22.116 14.0391 21.5789C14.8106 21.5213 15.7381 21.6921 16.5817 21.6523C16.6998 22.2981 17.2771 22.9848 17.846 23.2335C17.4527 23.734 17.1806 23.9544 16.7732 24.3945C15.2011 25.4202 15.015 25.1749 13.7832 23.5902Z" fill="#FEFEFE"/>
<path d="M12.7915 23.6736C12.8705 23.6504 12.9623 23.6166 13.0417 23.5898C13.1845 23.6297 13.8081 25.2286 15.1736 25.7183C14.9273 25.9503 14.7828 26.1591 14.5774 26.4297C14.4941 26.507 14.4194 26.5813 14.3394 26.662C13.7474 26.1305 13.1896 24.4745 12.7915 23.6736Z" fill="#20A687"/>
<path d="M16.3066 25.5592C17.2298 24.8885 17.5537 24.4411 18.3232 23.7632L18.384 23.7746C18.6095 24.0104 17.4981 26.0692 17.2741 26.3726C17.1212 26.294 16.9187 26.136 16.7732 26.03C16.6185 25.863 16.4735 25.7122 16.3066 25.5592Z" fill="#20A687"/>
<path d="M19.6707 24.3941C19.3554 24.5471 19.2601 24.5632 19.3906 24.9405L19.516 25.1668L19.6707 25.3388C19.7161 25.4643 19.7641 25.5922 19.8069 25.7183C19.6922 25.8474 19.6719 25.7312 19.5201 25.8084L19.5142 25.8508C19.5936 25.9489 19.7123 25.9444 19.8321 25.9537L19.8703 25.9567C19.8788 26.1089 19.8744 26.2579 19.9308 26.3949L19.9772 26.4374L20.0763 26.4297C20.0922 26.2852 20.1009 26.1707 20.1399 26.0297C20.2871 26.114 20.3065 26.2051 20.3752 26.3723L20.4662 26.2945L20.6707 26.2079L20.7534 26.0297C20.8668 25.9342 20.9093 25.8531 20.9707 25.7183C21.0738 25.4726 20.6941 25.4001 20.5449 25.3388C20.4021 25.3106 20.3708 25.4425 20.3171 25.5589C20.074 25.5148 20.0086 25.489 19.8069 25.3388L19.8703 25.1668L19.9303 24.9405C19.9484 24.914 20.1777 24.7272 20.2165 24.6949C22.0816 25.6946 22.8479 26.736 23.4908 28.8399C23.527 28.9587 23.6223 29.2679 23.5633 29.3564C23.1415 29.9902 21.9312 30.8138 21.3519 31.1879L21.3429 31.1545C21.2519 30.8058 21.1104 29.5371 20.9311 29.4081C20.2719 29.3277 20.6117 30.5101 20.6404 30.8711C20.791 32.52 21.2299 34.6315 21.1764 36.2506C21.0342 36.2121 20.8966 36.1762 20.7534 36.1417C20.7316 36.1136 20.7066 36.0815 20.6786 36.0455C21.392 34.1283 20.7357 33.4491 19.8069 35.2812C19.6918 34.7712 19.6745 34.1443 19.4623 33.6758C19.3697 33.5841 19.216 33.6468 19.1798 33.7473C19.0254 34.1753 19.2902 35.0059 19.3906 35.4491C19.1736 35.2263 18.2216 33.6971 17.9156 34.085C17.6572 34.4122 17.915 34.9473 17.9104 35.133C17.745 35.0781 17.5891 35.0501 17.5947 35.2832C17.7215 35.5103 18.4578 35.771 18.7149 35.8623C18.6553 35.9147 18.6091 35.9551 18.5537 36.0137L18.5478 36.0399C18.4167 36.6411 19.3315 36.3387 19.539 36.541C19.4992 36.8295 16.9758 37.0717 16.5819 37.1948C16.5121 36.9044 16.3713 36.9084 16.3347 36.7593L16.4236 36.6707C16.579 36.6712 16.6423 36.6579 16.7734 36.5682C16.8715 36.3783 17.0368 36.4413 16.7734 36.2506H16.5203C16.5373 36.1635 16.5569 36.0989 16.5819 36.0137L16.6265 36.0554C16.7359 36.0478 16.7594 36.0429 16.8662 36.0137C17.0688 35.7803 16.8442 35.6067 16.6595 35.7752H16.5819C16.4963 35.3545 16.7679 35.3006 16.1351 35.287C16.1108 35.2865 16.0983 35.3497 16.091 35.3699C16.0614 35.5058 15.9079 35.65 15.8193 35.7846C15.5734 35.5713 16.0086 35.2919 15.1736 35.3699C15.232 35.5454 15.4279 35.5469 15.3659 35.7277L15.3139 35.7752C15.127 35.692 15.0878 35.5539 14.8977 35.4491C14.8116 35.625 14.9356 35.6843 15.064 35.778L15.0683 35.8167C15.004 35.8521 14.9685 35.8521 14.8977 35.8623C14.8642 35.8614 14.8108 35.8578 14.7796 35.8623C14.6116 36.0284 14.6131 36.1868 14.5774 36.4262C14.6344 36.3815 14.7406 36.3052 14.7796 36.2506C15.0572 36.1031 15.1188 36.0729 15.4237 36.0137C15.9676 36.3917 15.8956 36.2812 15.3139 36.5682C15.067 36.643 14.931 36.67 14.7796 36.9035C14.9451 36.9495 15.1897 36.9982 15.3139 37.1099C15.4239 37.1562 15.6404 37.2062 15.7584 37.1948C15.9417 37.1132 16.1318 37.0463 16.3068 37.1948C14.9329 37.3805 12.7299 37.2531 11.3879 37.049C11.2633 37.0302 11.0896 37.0203 10.9654 37.0224L10.7954 37.3341C10.6758 37.1498 10.5132 36.9903 10.3169 36.9035C10.328 35.8706 10.2608 34.7918 10.2619 33.726C10.4648 33.8542 10.6903 34.0255 10.9332 34.0398C11.092 34.0492 11.2157 33.818 11.1681 33.7039C11.0597 33.4442 10.6374 33.2541 10.4039 33.1208C8.98789 32.3129 9.95743 31.0844 9.14249 31.2573C9.09727 31.412 9.08575 31.5148 9.07989 31.6744C8.73155 31.473 7.67393 30.862 7.40283 30.5795C7.8669 28.5891 8.98516 26.0077 10.5712 24.8279C11.0461 24.4746 11.6606 24.1758 12.1872 23.9009C13.0274 25.6877 13.8056 29.2935 15.6482 26.0297C15.6451 28.0503 14.753 28.8818 15.051 31.4321C14.8524 31.5334 14.6961 31.5869 14.5774 31.7863C13.1657 31.1094 12.6614 33.1066 14.7796 33.0875C14.6511 33.1595 14.3846 33.2813 14.3397 33.407C14.387 33.8734 15.0752 33.4453 15.3139 33.4169C15.3536 33.6402 15.4032 33.9893 15.579 34.1349C15.9867 34.2265 15.7668 33.4176 15.7584 33.1735C15.8921 33.2083 16.6604 33.5014 16.7186 33.4676C16.8598 33.1246 16.2586 32.892 16.0203 32.7647C17.9947 32.4136 16.8713 30.6897 16.091 31.7863C15.9247 31.7128 15.7604 31.6974 15.5831 31.6744C15.5522 31.472 15.5325 31.2002 15.5116 30.9916L15.5626 31.0675C15.6257 31.0724 15.5989 31.0823 15.6482 31.0529C15.8469 30.9114 16.3863 30.7307 16.3068 30.4162V30.3471C16.2691 30.2176 16.1799 29.9316 16.0203 29.9788C15.8361 29.9659 15.8463 29.8576 15.5116 29.892C15.5261 29.7011 15.549 29.5714 15.5831 29.3826C15.7467 29.3867 15.9246 29.3812 16.091 29.3826C16.1733 29.0429 16.2053 28.9773 16.091 28.6504C15.9788 28.6115 15.8685 28.5636 15.7584 28.518C15.8904 27.7446 16.1139 27.3391 16.19 26.4297C16.9989 26.979 17.1776 27.6266 18.0098 26.3435C18.4741 25.6276 18.7164 24.9007 19.052 24.1125C19.2599 24.2203 19.4567 24.3028 19.6707 24.3941ZM10.7954 25.4777C10.758 25.4961 10.6506 25.5528 10.6171 25.5589C10.4816 25.7404 10.5592 25.9352 10.6171 26.1343C10.5692 26.2653 10.5644 26.2924 10.6171 26.4297C10.5354 26.4479 10.3844 26.2368 10.2231 26.1343C10.1176 26.0717 10.0936 26.0663 9.9753 26.0297C9.85772 26.0897 9.7709 26.1326 9.65977 26.2079C9.65889 26.2752 9.91592 26.5815 9.9753 26.662C10.0045 26.7259 10.0325 26.7977 10.0737 26.8526L9.9753 26.9516C9.85128 26.943 9.56543 26.9426 9.45674 26.9998L9.43711 27.0471C9.54883 27.182 9.82276 27.1752 9.9753 27.1284L10.0737 27.197C9.95342 27.2018 9.86172 27.1815 9.78301 27.2907L9.79747 27.3886C9.95879 27.4426 10.0185 27.3991 10.1421 27.2844C10.1179 27.416 10.0954 27.5444 10.0737 27.6765C10.0284 27.822 9.65997 28.0546 10.0737 28.0108C9.97784 28.3429 9.92266 28.7628 9.90665 29.1108C9.72374 28.7309 9.41397 28.1407 9.01436 28.0112C8.14356 27.729 9.06055 29.1871 9.26485 29.4388C8.97549 29.4107 8.54112 29.3566 8.26035 29.3826C7.96455 29.888 8.30186 29.9032 8.64756 30.1282C8.57002 30.1778 8.50957 30.2007 8.47705 30.2868L8.4795 30.3721C8.58409 30.4637 9.21915 30.0694 9.46504 29.9788C8.78565 30.4459 9.0793 31.2526 9.53038 29.9788C9.52403 31.0213 9.55245 31.4576 9.9253 30.164L9.94678 30.1612C10.1701 31.0389 10.384 30.7075 10.4095 29.9788C10.593 30.1165 10.7646 30.2384 10.9654 30.3471C11.2366 30.1499 11.1274 30.0647 10.8909 29.892L10.9654 29.6792C11.5239 29.6184 11.3324 29.4182 10.8909 29.3826C11.1568 29.1184 11.5012 29.1246 11.3897 28.8074H11.0853C11.0191 28.8912 10.982 28.9058 10.8909 28.9627C10.7914 28.8407 10.7739 28.6808 10.6863 28.6276L10.6171 28.6504C10.5235 28.5005 10.3738 28.0763 10.2619 28.0108L10.2739 28.0045C10.3217 27.9422 10.3139 27.8959 10.3169 27.8143C10.5927 27.6619 10.5435 28.2159 10.7954 27.9044C10.891 27.811 10.8676 27.8402 11.0208 27.8143L11.2559 27.6765C11.3041 27.7789 11.336 27.8744 11.4183 27.944L11.4607 27.9326C11.5037 27.8282 11.4816 27.728 11.4718 27.6105C11.9292 27.6759 11.8874 27.6066 11.6273 27.2844C11.7448 27.2823 11.8178 27.2799 11.8474 27.1458C11.7175 26.9454 11.1866 27.129 11.3507 26.7338L11.4129 26.7431C11.5328 26.8453 11.7859 27.0137 11.9433 26.9516C12.016 26.8907 12.1106 26.8227 12.1872 26.7641C12.0968 26.6331 12.0244 26.5097 11.9433 26.3723C11.8808 26.387 11.767 26.4104 11.7105 26.4297L11.6587 26.3459C11.7064 26.1636 11.7536 26.1551 11.7105 25.9567C11.7841 25.9057 11.8674 25.8546 11.9433 25.8058C11.7654 25.7888 11.5927 25.6969 11.4718 25.7183C11.3625 25.6369 11.0404 25.4974 11.0208 25.4777C10.9709 25.3517 10.8736 25.42 10.7954 25.4777ZM19.2693 26.9516C18.921 26.399 18.7587 26.8873 18.612 27.2844C18.5605 27.0912 18.4459 26.6158 18.1197 26.7039C17.9122 26.7599 18.5073 27.6987 18.5537 27.8143C18.278 27.6436 17.9096 27.3158 17.6137 27.3421L17.5792 27.3755C17.6471 27.708 18.1338 27.9585 18.408 28.0756C16.6976 28.5267 17.4295 28.5475 18.5537 28.518C18.0896 29.2774 18.3012 29.8025 18.7887 28.8074C18.8114 29.0349 18.7402 30.0968 19.1446 29.6792C19.1432 29.3958 19.1361 29.0889 19.1446 28.8074C19.3146 28.9853 19.6292 29.361 19.8293 29.4282L19.8726 29.412C19.9076 29.1794 19.5232 28.7016 19.3906 28.518C19.6574 28.6126 19.8221 28.6819 20.0763 28.8074C20.1582 28.738 20.2439 28.6702 20.3171 28.5911C19.9854 28.4003 19.7561 28.3023 19.3906 28.1847C19.6196 28.0795 20.2854 27.9647 20.3492 27.8667C20.334 27.3975 19.591 27.7987 19.3906 27.9044C19.5504 27.5849 19.6373 27.5447 19.8703 27.2844C19.777 27.2375 19.6594 27.1837 19.5731 27.1284L19.2693 27.3899C19.2632 27.2393 19.2831 27.1322 19.2693 26.9516ZM21.7878 27.6105L21.8264 27.5633L21.8115 27.5201C21.6607 27.4594 21.5542 27.5452 21.479 27.6765C21.4557 27.7444 21.4204 27.8367 21.4072 27.9044C21.2985 27.9628 21.2561 27.9411 21.1356 27.9218L21.1011 27.9393C21.1148 28.0143 21.2147 28.1244 21.2659 28.1847C21.2039 28.2686 21.1455 28.3674 21.0576 28.4126L21.047 28.4395L20.9393 28.5232L20.9401 28.5536C21.1646 28.6294 21.0805 28.7853 20.95 28.926C21.0179 28.9275 21.5692 28.7299 21.6398 28.6971L21.6722 28.7256C21.6584 28.8868 21.6548 28.9515 21.6104 29.1108C21.5379 29.1783 21.414 29.3021 21.3519 29.3826C21.4545 29.4221 21.5737 29.4643 21.6722 29.5107C21.7955 29.4487 21.8807 29.4379 22.0183 29.4388C22.1222 29.3772 22.0774 29.0453 22.0183 28.9627C22.0593 28.7392 21.9977 28.8144 21.9311 28.6399L21.9129 28.5911C21.9627 28.5406 22.01 28.5082 22.0183 28.4395C22.173 28.402 22.3576 28.3733 22.5154 28.3456C22.5763 28.3281 22.7438 28.3023 22.8138 28.2891L22.7012 28.0756C22.6014 28.0506 22.5308 28.0402 22.4355 28.0756H22.3623C22.1888 27.9435 22.2047 27.8014 22.3623 27.6765C22.0968 27.5546 22.0899 27.6294 22.0183 27.9044C21.8744 27.8466 21.8182 27.7656 21.7878 27.6105ZM13.3513 28.2891C13.0656 28.0166 13.1027 28.2389 13.0416 28.518C12.7884 28.0299 12.6888 28.03 12.559 28.5911C12.5017 28.6461 12.4609 28.6946 12.3896 28.7256L12.3212 28.6857C12.2945 28.7708 12.3492 28.9191 12.3157 29.1108L12.199 29.0636C12.0884 29.123 12.1363 29.3015 12.116 29.4388V29.5107C12.0634 29.8145 12.1242 30.2331 12.116 30.5795C12.0462 30.8806 12.2999 30.8751 12.4955 30.728C12.5609 30.7444 12.5794 30.735 12.6482 30.728L12.7914 30.656L12.9049 30.728C12.9337 30.8391 12.9517 30.9918 13.017 31.058L13.0416 31.0529C13.1445 31.0121 13.2327 30.9358 13.3277 30.8729L13.3513 30.8576C13.4173 30.8096 13.491 30.7195 13.5467 30.656C13.731 30.7216 13.5782 30.4386 13.5467 30.3471V30.2368C13.7174 30.229 13.7804 30.2206 13.9268 30.1282C13.9327 30.0741 14.0022 30.0147 14.0392 29.9788C14.0138 29.8692 14.0024 29.8641 13.9268 29.7782C13.9981 29.6774 14.2088 29.6243 14.3393 29.5756C14.2251 29.5401 14.1221 29.5235 14.0392 29.4388L14.3393 29.3826C13.5361 28.7678 13.9757 29.1798 13.5467 29.1108C13.5958 28.894 13.707 28.8808 13.7833 28.6504C13.8587 28.472 13.5859 28.4757 13.4458 28.4395L13.3513 28.2891ZM18.612 30.1282C18.5924 30.0449 18.5896 30.0181 18.5486 29.9418L18.5045 29.9305C18.5218 29.9073 18.3982 30.0724 18.4345 30.0343C18.2254 30.254 18.1801 30.0917 18.1137 30.4408L18.0762 30.4671C17.983 30.4333 17.9063 30.3209 17.8461 30.2368C17.3027 30.6904 17.6393 30.8077 18.1253 30.9164C18.2592 30.9557 18.2875 30.9763 18.408 31.0529C18.5161 31.1306 18.5195 31.1259 18.5537 31.2573C18.4213 31.5783 18.1972 31.5739 17.9026 31.5999C17.7746 31.5997 17.6348 31.5967 17.508 31.5999C17.6325 31.6518 17.7556 31.6873 17.8461 31.7863C17.5284 32.127 17.6823 32.0662 17.98 32.1014C18.0698 32.0468 18.0727 32.0244 18.1253 31.9237C18.1462 32.0849 18.1438 32.1663 18.1253 32.3256L18.408 32.1939H18.5537C18.5458 32.3486 18.5501 32.4883 18.5537 32.6429C18.8763 32.3279 19.0926 32.3859 18.9694 31.8499C19.1519 31.8839 19.4339 32.0108 19.516 31.7863C19.523 31.7419 19.5576 31.6469 19.5731 31.5999C19.6774 31.4901 19.4442 31.456 19.3913 31.419C19.4991 31.3269 19.7429 31.3247 19.9303 31.1879C19.7779 31.1827 18.9088 31.2162 18.7887 31.2573C18.7905 31.1652 18.8567 31.0091 18.8902 30.9164C19.0327 30.726 19.1801 30.7075 19.3906 30.656C19.3498 30.5634 19.307 30.4436 19.2693 30.3471C19.1368 30.4417 19.0593 30.5479 18.9434 30.666L18.8902 30.656C18.9227 30.4491 19.0657 30.074 18.8576 30.2734L18.7887 30.2368C18.7234 30.1603 18.7029 30.16 18.612 30.1282ZM10.852 31.1879L10.7437 31.4321V31.5999C10.7454 31.7027 10.7512 31.8228 10.7437 31.9237C10.6238 32.1738 10.5061 32.4604 10.2851 32.5882C9.96563 32.7731 10.32 32.8935 10.7437 32.4261C10.8753 32.5843 10.9589 32.62 11.1568 32.6429C11.259 32.5811 11.3471 32.5006 11.4718 32.4261C11.6518 32.3318 11.7388 32.1695 11.9433 32.1014C12.0277 32.1261 12.0549 32.1262 12.116 32.1939C12.1472 32.2214 12.1271 32.2073 12.181 32.2281L12.2184 32.1877C12.2872 31.9298 12.2859 31.7744 12.0306 31.6744C12.1161 31.4751 12.1642 31.387 12.0306 31.1879C11.9595 31.2032 11.9634 31.206 11.894 31.1879C11.9195 31.0968 11.93 31.0807 11.9084 30.9867L11.8654 30.9554C11.7369 30.9951 11.6558 31.1234 11.6273 31.2573C11.5647 31.2355 11.5309 31.2171 11.4718 31.1879C11.3365 31.1333 11.0441 31.1877 10.852 31.1879ZM19.516 32.876C19.5442 33.4746 19.6134 33.2831 20.0763 33.2942C20.0214 32.9508 20.1229 32.9454 20.3752 32.7647C20.0703 32.7254 19.7324 32.6187 19.516 32.876ZM12.9799 34.0044C12.7724 33.9589 12.4961 33.8325 12.4955 34.156H12.3896C12.2965 34.1538 12.2092 34.1543 12.116 34.156C12.0034 34.1577 11.9148 34.237 11.8118 34.2778C11.4567 34.3413 11.6074 34.8854 11.9433 34.5943L12.116 34.6896H12.1872C12.0884 34.7493 11.9975 34.7889 11.9347 34.8856L11.9433 34.9917C11.6342 34.9333 11.7295 35.1954 11.7105 35.4491C11.8723 35.407 11.9505 35.389 12.116 35.3699H12.3157C12.2088 35.4056 12.0937 35.4036 12.0306 35.4491C12.0453 35.6072 11.752 35.9267 12.058 35.738L12.0973 35.7556C12.1075 35.8003 12.1144 35.8167 12.116 35.8623C12.2175 35.9786 12.2507 35.9645 12.3896 36.0137C12.422 36.0282 12.402 36.0226 12.4512 36.0208L12.4955 35.9414C12.663 35.9978 12.7713 35.8837 12.9799 35.8623C13.2962 36.2419 13.3272 35.8635 13.2596 35.5386C13.3764 35.4103 13.4533 35.5285 13.6889 35.3811L13.686 35.345C13.6338 35.3278 13.2415 35.2906 13.1589 35.2812C13.5258 35.1896 13.4902 35.0907 13.7833 34.9917C13.8124 34.866 13.8364 34.7223 13.8608 34.5943C13.5402 34.6884 13.2907 35.0476 12.9799 34.8141H12.9049C12.9591 34.749 12.9987 34.6697 13.0416 34.5943C13.1846 34.5317 13.4448 34.4572 13.4458 34.2778C13.4134 34.1905 13.4345 34.0998 13.4458 34.0044L13.4535 33.9491L13.4267 33.9146C13.2922 33.8817 13.1117 33.9578 12.9799 34.0044ZM22.6087 28.6504C22.3522 28.6968 21.9338 28.7093 22.3623 28.9627C22.6372 29.1314 22.7286 29.0013 22.6833 28.6814L22.651 28.6473L22.6087 28.6504ZM17.508 34.156L17.4123 34.242C17.004 34.1592 17.1407 34.1897 17.2742 34.5943C17.8085 34.5699 17.9436 34.3041 17.508 34.156Z" fill="#20A687"/>
<path d="M19.3907 24.9409C19.2602 24.5636 19.3555 24.5475 19.6708 24.3945C19.7847 24.4627 19.8277 24.4961 19.9304 24.5828C19.3206 24.5626 19.4138 25.078 19.9304 24.9409L19.8705 25.1672C19.7401 25.0403 19.656 25.0975 19.5162 25.1672L19.3907 24.9409Z" fill="#20A687"/>
<path d="M19.9305 24.9407C19.4139 25.0778 19.3206 24.5624 19.9305 24.5826L20.2167 24.6951C20.1778 24.7274 19.9485 24.9142 19.9305 24.9407Z" fill="#FEFEFE"/>
<path d="M19.5161 25.167C19.656 25.0973 19.74 25.0401 19.8704 25.167L19.8069 25.3391H19.6708L19.5161 25.167Z" fill="#20A687"/>
<path d="M19.6709 25.3388H19.807C20.0088 25.489 20.0741 25.5148 20.3173 25.5589C20.371 25.4426 20.4022 25.3106 20.545 25.3388C20.5657 25.4353 20.5701 25.6272 20.545 25.7183V25.8058V25.9567L20.4664 26.2945L20.3754 26.3723C20.3066 26.2052 20.2873 26.1141 20.14 26.0297L19.8705 25.9567L19.807 25.7183C19.7643 25.5922 19.7163 25.4643 19.6709 25.3388Z" fill="#FEFEFE"/>
<path d="M20.5449 25.3389C20.6941 25.4001 21.0738 25.4726 20.9708 25.7184C20.8253 25.7122 20.6898 25.7021 20.5449 25.7184C20.57 25.6273 20.5656 25.4353 20.5449 25.3389Z" fill="#20A687"/>
<path d="M10.7954 25.4779C10.8736 25.4202 10.9709 25.3518 11.0208 25.4779L10.9654 25.6325C10.9328 25.7 10.9129 25.7333 10.8909 25.806L10.819 25.8065L10.7954 25.8523C10.7884 25.7379 10.7941 25.5949 10.7954 25.4779Z" fill="#20A687"/>
<path d="M10.6172 25.5592C10.6507 25.5531 10.7582 25.4963 10.7956 25.478C10.7943 25.595 10.7886 25.7381 10.7956 25.8524C10.7348 25.9156 10.6812 25.9707 10.6172 26.03C10.565 25.8657 10.6521 25.7722 10.6172 25.5592Z" fill="#20A687"/>
<path d="M10.9653 25.6326L11.0207 25.478C11.0403 25.4977 11.3624 25.6372 11.4717 25.7186V25.8061C11.3729 25.9217 11.1667 26.1917 11.0365 26.22L11.0207 26.2082C11.0327 25.9684 11.2321 25.7429 10.9653 25.6326Z" fill="#20A687"/>
<path d="M10.6172 26.1345C10.5593 25.9354 10.4818 25.7405 10.6172 25.5591C10.6521 25.7721 10.565 25.8656 10.6172 26.0299C10.62 26.0758 10.6242 26.0898 10.6172 26.1345Z" fill="#20A687"/>
<path d="M10.8911 25.8058C10.9131 25.7331 10.933 25.6998 10.9656 25.6323C11.2324 25.7427 11.033 25.9681 11.021 26.208C11.0172 25.9977 10.9934 25.9838 10.8911 25.8058Z" fill="#F1E1B4"/>
<path d="M19.8068 25.7183L19.8703 25.9567L19.832 25.9537C19.7123 25.9443 19.5936 25.9489 19.5142 25.8508L19.5201 25.8083C19.6719 25.7312 19.6922 25.8473 19.8068 25.7183Z" fill="#20A687"/>
<path d="M20.5449 25.7183C20.6898 25.702 20.8253 25.7121 20.9708 25.7183C20.9094 25.853 20.8669 25.9342 20.7535 26.0296C20.6961 25.8377 20.7191 25.8282 20.5449 25.8057V25.7183Z" fill="#20A687"/>
<path d="M11.4717 25.7186C11.5926 25.6971 11.7653 25.789 11.9432 25.806C11.8673 25.8549 11.784 25.9059 11.7104 25.9569C11.6857 25.9812 11.654 26.0197 11.6271 26.0299L11.4717 25.806V25.7186Z" fill="#20A687"/>
<path d="M10.7957 25.8525L10.8193 25.8067L10.8912 25.8062C10.9934 25.9841 11.0172 25.9981 11.021 26.2083L11.0369 26.2201C11.167 26.1917 11.3732 25.9218 11.472 25.8062L11.6275 26.0301L11.3899 26.5635V26.6623C11.2395 26.7337 11.1743 26.7253 11.021 26.7645C10.925 26.7151 10.8609 26.6501 10.7957 26.5635C10.7513 26.5064 10.6891 26.4363 10.6173 26.43C10.5646 26.2928 10.5695 26.2657 10.6173 26.1347C10.6244 26.09 10.6201 26.076 10.6173 26.0301C10.6813 25.9707 10.7349 25.9157 10.7957 25.8525Z" fill="#FEFEFE"/>
<path d="M20.5449 25.8062C20.7191 25.8286 20.6961 25.8381 20.7535 26.0301L20.6708 26.2083C20.6497 26.0682 20.6346 26.0463 20.5449 25.9571V25.8062Z" fill="#20A687"/>
<path d="M11.6272 26.03C11.6541 26.0198 11.6858 25.9813 11.7105 25.957C11.7536 26.1555 11.7063 26.164 11.6587 26.3463L11.7105 26.43C11.5958 26.5236 11.5419 26.595 11.3896 26.5634L11.6272 26.03Z" fill="#20A687"/>
<path d="M20.5449 25.957C20.6346 26.0463 20.6497 26.0681 20.6708 26.2083L20.4663 26.2948L20.5449 25.957Z" fill="#20A687"/>
<path d="M19.8706 25.957L20.1401 26.03C20.1012 26.171 20.0925 26.2855 20.0766 26.43L19.9774 26.4378L19.9311 26.3952C19.8747 26.2583 19.8791 26.1092 19.8706 25.957Z" fill="#20A687"/>
<path d="M10.2229 26.1344C10.094 26.362 10.2243 26.4596 10.4094 26.5632C10.2773 26.7057 10.1977 26.6762 10.142 26.7642C10.1385 26.6968 10.141 26.6307 10.142 26.5632C9.98496 26.3557 9.88516 26.2933 9.65967 26.208C9.7708 26.1327 9.85762 26.0898 9.9752 26.0298C10.0935 26.0664 10.1175 26.0718 10.2229 26.1344Z" fill="#20A687"/>
<path d="M10.4096 26.563C10.2246 26.4594 10.0943 26.3618 10.2232 26.1343C10.3845 26.2368 10.5355 26.4478 10.6172 26.4296C10.689 26.4358 10.7512 26.506 10.7956 26.563C10.6414 26.5625 10.5806 26.5856 10.4096 26.563Z" fill="#20A687"/>
<path d="M9.9752 26.662C9.91582 26.5816 9.65879 26.2753 9.65967 26.208C9.88516 26.2933 9.98496 26.3556 10.142 26.5632C10.068 26.651 10.0952 26.6232 9.9752 26.662Z" fill="#20A687"/>
<path d="M11.7105 26.4299C11.767 26.4107 11.8808 26.3873 11.9433 26.3726C11.8704 26.4971 11.806 26.5592 11.7105 26.6622C11.7897 26.7564 11.872 26.8298 11.8939 26.9518C11.5436 26.8343 11.59 26.7512 11.3896 26.6622V26.5633C11.5419 26.5949 11.5958 26.5235 11.7105 26.4299Z" fill="#20A687"/>
<path d="M11.9433 26.3726C12.0244 26.5099 12.0968 26.6333 12.1872 26.7644C12.1105 26.823 12.016 26.891 11.9433 26.9518H11.8939C11.872 26.8298 11.7897 26.7564 11.7104 26.6622C11.806 26.5592 11.8704 26.4971 11.9433 26.3726Z" fill="#20A687"/>
<path d="M10.1419 26.5635C10.1409 26.631 10.1384 26.6971 10.1419 26.7645L10.0735 26.853C10.0323 26.798 10.0043 26.7263 9.9751 26.6623C10.0951 26.6235 10.0679 26.6513 10.1419 26.5635Z" fill="#20A687"/>
<path d="M10.1419 26.7645C10.1976 26.6765 10.2772 26.706 10.4093 26.5635C10.5803 26.5861 10.641 26.563 10.7952 26.5635C10.8605 26.6501 10.9246 26.7151 11.0206 26.7645C10.782 27.2869 10.5826 27.2447 10.1317 26.9856L10.0735 26.952L10.0505 26.9682L9.9751 26.952L10.0735 26.853L10.1419 26.7645Z" fill="#DCAD51"/>
<path d="M11.3898 26.6621C11.5902 26.7511 11.5438 26.8343 11.8941 26.9517H11.9435C11.786 27.0139 11.533 26.8454 11.4131 26.7433L11.3509 26.7339C11.1868 27.1292 11.7177 26.9455 11.8476 27.1459C11.818 27.2801 11.745 27.2825 11.6274 27.2846C11.6388 27.2408 11.6604 27.2581 11.6837 27.1776L11.6519 27.1299C11.3804 27.1023 11.2914 26.9056 11.021 26.7643C11.1742 26.725 11.2395 26.7334 11.3898 26.6621Z" fill="#20A687"/>
<path d="M19.2695 26.9518C19.0515 27.0956 19.0287 27.1275 18.9696 27.3901C19.0568 27.3914 19.1863 27.3977 19.2695 27.3901L19.5733 27.1287C19.6597 27.1839 19.7772 27.2378 19.8706 27.2846C19.6376 27.545 19.5507 27.5852 19.3908 27.9046C19.5913 27.7989 20.3343 27.3978 20.3495 27.8669C20.2857 27.965 19.6198 28.0798 19.3908 28.1849C19.7564 28.3025 19.9856 28.4006 20.3174 28.5913C20.2441 28.6704 20.1585 28.7382 20.0766 28.8077C19.8224 28.6821 19.6576 28.6129 19.3908 28.5182C19.5234 28.7019 19.9079 29.1796 19.8729 29.4122L19.8296 29.4285C19.6295 29.3613 19.3148 28.9855 19.1448 28.8077C19.1363 29.0891 19.1435 29.3961 19.1448 29.6795C18.7404 30.0971 18.8116 29.0351 18.789 28.8077C18.3015 29.8028 18.0898 29.2776 18.554 28.5182C17.4298 28.5478 16.6978 28.5269 18.4083 28.0758C18.1341 27.9587 17.6474 27.7082 17.5795 27.3757L17.614 27.3423C17.9099 27.316 18.2782 27.6439 18.554 27.8145C18.5076 27.6989 17.9125 26.7601 18.1199 26.7041C18.4462 26.616 18.5607 27.0915 18.6123 27.2846C18.759 26.8876 18.9213 26.3993 19.2695 26.9518Z" fill="#010101"/>
<path d="M11.0206 26.7642C11.291 26.9055 11.38 27.1021 11.6515 27.1298L11.6833 27.1775C11.66 27.2579 11.6384 27.2406 11.6271 27.2844C11.8872 27.6067 11.929 27.6759 11.4716 27.6105L11.2557 27.6766L11.0206 27.8143C11.0193 27.6534 11.0363 27.5255 10.9652 27.3899L10.8735 27.2738C10.5551 27.246 10.8313 27.6301 10.8518 27.6766C10.7552 27.7656 10.6398 27.8232 10.7952 27.9044C10.5433 28.216 10.5925 27.662 10.3167 27.8143C10.1694 27.8235 10.1062 27.8406 10.0735 27.6766C10.0952 27.5445 10.1177 27.416 10.1419 27.2844L10.0735 27.1971L9.9751 27.1284C10.0058 27.0601 10.0355 27.0151 10.0735 26.9516L10.1317 26.9853C10.5826 27.2444 10.782 27.2865 11.0206 26.7642Z" fill="#FEFEFE"/>
<path d="M9.9752 27.1288C9.82266 27.1756 9.54873 27.1824 9.43701 27.0475L9.45664 27.0002C9.56533 26.943 9.85117 26.9434 9.9752 26.952L10.0506 26.9682L10.0736 26.952C10.0356 27.0154 10.0059 27.0604 9.9752 27.1288Z" fill="#20A687"/>
<path d="M18.9692 27.3899C19.0283 27.1273 19.0511 27.0954 19.2691 26.9517C19.283 27.1323 19.2631 27.2393 19.2691 27.3899C19.1859 27.3975 19.0564 27.3912 18.9692 27.3899Z" fill="#20A687"/>
<path d="M10.1423 27.2846C10.0187 27.3993 9.95898 27.4428 9.79766 27.3889L9.7832 27.2909C9.86191 27.1817 9.95361 27.202 10.0739 27.1973L10.1423 27.2846Z" fill="#20A687"/>
<path d="M10.9653 27.39C10.9377 27.4564 10.8759 27.629 10.8518 27.6767C10.8314 27.6302 10.5551 27.2462 10.8736 27.2739L10.9653 27.39Z" fill="#20A687"/>
<path d="M10.8519 27.6768C10.876 27.6291 10.9378 27.4565 10.9653 27.3901C11.0364 27.5257 11.0194 27.6536 11.0207 27.8146C10.8675 27.8404 10.8909 27.8112 10.7953 27.9046C10.6399 27.8235 10.7553 27.7658 10.8519 27.6768Z" fill="#20A687"/>
<path d="M21.7878 27.6107C21.7071 27.666 21.696 27.7116 21.6722 27.8145L21.479 27.6768C21.5542 27.5454 21.6606 27.4597 21.8114 27.5204L21.8264 27.5635L21.7878 27.6107Z" fill="#20A687"/>
<path d="M22.0186 27.9045C22.0901 27.6296 22.0971 27.5548 22.3626 27.6767C22.205 27.8015 22.1891 27.9437 22.3626 28.0757L22.2695 28.1339C22.2145 28.114 22.2179 28.1153 22.173 28.0757C22.1647 27.9647 22.1059 27.9605 22.0186 27.9045Z" fill="#20A687"/>
<path d="M21.6722 27.8147C21.696 27.7118 21.7071 27.6661 21.7878 27.6108C21.8182 27.766 21.8743 27.847 22.0183 27.9047C21.8582 28.1102 21.7957 28.0559 21.6104 27.9047C21.6515 27.8634 21.6425 27.8688 21.6722 27.8147Z" fill="#20A687"/>
<path d="M11.2559 27.6769L11.4718 27.6108C11.4816 27.7283 11.5037 27.8285 11.4606 27.933L11.4183 27.9444C11.336 27.8748 11.3041 27.7793 11.2559 27.6769Z" fill="#20A687"/>
<path d="M10.0738 28.011C9.66001 28.0548 10.0285 27.8222 10.0738 27.6768C10.1064 27.8408 10.1697 27.8237 10.3169 27.8145C10.3139 27.8961 10.3217 27.9425 10.274 28.0047L10.262 28.011C10.1716 27.9969 10.1655 27.9905 10.0738 28.011Z" fill="#20A687"/>
<path d="M21.4072 27.9046C21.4205 27.8369 21.4558 27.7447 21.4791 27.6768L21.6723 27.8145C21.6426 27.8687 21.6516 27.8633 21.6105 27.9046L21.4791 28.011L21.4072 27.9046Z" fill="#20A687"/>
<path d="M21.2659 28.1846C21.2147 28.1244 21.1147 28.0142 21.1011 27.9393L21.1355 27.9218C21.2561 27.941 21.2984 27.9628 21.4071 27.9043L21.479 28.0107C21.4403 28.0563 21.3636 28.1336 21.3519 28.1846H21.2659Z" fill="#20A687"/>
<path d="M21.4792 28.0107L21.6105 27.9043C21.7959 28.0554 21.8584 28.1098 22.0185 27.9043C22.1058 27.9603 22.1647 27.9644 22.173 28.0755C22.1194 28.1824 22.0525 28.3239 22.0185 28.4395C22.0102 28.5081 21.9629 28.5405 21.9131 28.591C21.8142 28.5364 21.8209 28.5298 21.788 28.4395C21.6226 28.3012 21.5566 28.2311 21.3521 28.1846C21.3638 28.1336 21.4405 28.0563 21.4792 28.0107Z" fill="#FEFEFE"/>
<path d="M10.0738 28.0108C10.1655 27.9903 10.1716 27.9967 10.262 28.0108C10.3739 28.0763 10.5236 28.5005 10.6172 28.6504C10.7049 28.8696 10.6933 28.8803 10.6172 29.1108L10.891 28.9627C10.9821 28.9058 11.0191 28.8912 11.0853 28.8074H11.3897C11.5012 29.1246 11.1569 29.1184 10.891 29.3826C11.3325 29.4182 11.524 29.6184 10.9655 29.6792C10.8612 29.6718 10.7772 29.6582 10.6753 29.6813L10.6543 29.7165C10.7087 29.8026 10.806 29.8351 10.891 29.892C11.1274 30.0647 11.2367 30.1499 10.9655 30.3471C10.7646 30.2384 10.593 30.1165 10.4095 29.9788C10.384 30.7075 10.1702 31.0389 9.94684 30.1612L9.92535 30.164C9.5525 31.4576 9.52408 31.0213 9.53043 29.9788C9.07936 31.2526 8.7857 30.4459 9.4651 29.9788C9.2192 30.0694 8.58414 30.4637 8.47955 30.3721L8.47711 30.2868C8.50963 30.2007 8.57008 30.1778 8.64762 30.1282C8.30191 29.9032 7.96461 29.888 8.26041 29.3826C8.54117 29.3566 8.97555 29.4107 9.2649 29.4388C9.0606 29.1871 8.14361 27.729 9.01441 28.0112C9.41402 28.1407 9.72379 28.7309 9.9067 29.1108C9.92272 28.7628 9.97789 28.3429 10.0738 28.0108ZM10.2231 28.2891C10.1485 28.5867 10.0372 28.853 10.4095 28.8953C10.4161 28.75 10.4177 28.6656 10.4095 28.518L10.2231 28.2891ZM8.96764 28.518C9.08668 28.8311 9.31256 29.0518 9.53043 29.2947C9.46686 28.9735 9.36158 28.4862 8.96764 28.518ZM8.64762 29.6792L8.62086 29.7277C8.6899 29.9421 8.90455 29.9527 9.07994 29.892L9.12057 29.8403C9.04273 29.6881 8.79371 29.666 8.64762 29.6792Z" fill="#010101"/>
<path d="M22.4355 28.0755C22.5309 28.0401 22.6015 28.0506 22.7013 28.0755L22.8139 28.2891C22.7439 28.3022 22.5764 28.3281 22.5154 28.3456C22.4824 28.2487 22.4609 28.175 22.4355 28.0755Z" fill="#20A687"/>
<path d="M22.3626 28.0757H22.4357C22.4611 28.1752 22.4826 28.2489 22.5156 28.3458C22.3578 28.3734 22.1732 28.4021 22.0186 28.4396C22.0526 28.3241 22.1195 28.1826 22.173 28.0757C22.2179 28.1152 22.2145 28.114 22.2695 28.1339L22.3626 28.0757Z" fill="#20A687"/>
<path d="M12.5591 28.5911C12.6889 28.03 12.7885 28.0299 13.0417 28.518C13.0878 28.5111 13.0804 28.5031 13.1131 28.518C13.1074 28.6025 13.0974 28.644 13.1131 28.7257C13.2112 28.7881 13.2631 28.8201 13.3514 28.8953C13.3106 29.1175 13.3313 29.1539 13.5468 29.1108C13.7599 29.2246 13.8586 29.1718 13.9269 29.4388C13.8321 29.4869 13.7285 29.5456 13.6287 29.5756C13.5904 29.6862 13.5771 29.8024 13.5468 29.892C13.2923 29.8057 13.2416 29.8627 13.3514 30.1282C13.4283 30.2359 13.4453 30.2714 13.5468 30.3471C13.5783 30.4386 13.7311 30.7217 13.5468 30.656C13.4784 30.5571 13.4549 30.5645 13.3514 30.5795L13.159 30.656C13.1198 30.636 13.0788 30.605 13.0417 30.5795C12.9094 30.3785 12.8163 30.2914 12.6482 30.1282C12.6552 30.0005 12.6395 29.9039 12.7361 29.822L12.8424 29.8244C12.9408 29.827 12.9584 29.8369 13.0417 29.7782C13.4417 29.4537 13.1608 28.9451 12.7086 29.1108H12.5591C12.5781 28.952 12.587 28.7483 12.5591 28.5911Z" fill="#FEFEFE"/>
<path d="M13.0415 28.5184C13.1026 28.2393 13.0655 28.0169 13.3512 28.2895C13.1957 28.3633 13.2295 28.3944 13.1129 28.5184C13.0802 28.5035 13.0876 28.5114 13.0415 28.5184Z" fill="#F1E1B4"/>
<path d="M21.2658 28.1851H21.3518C21.5563 28.2315 21.6223 28.3016 21.7877 28.4399C21.7441 28.4632 21.4362 28.5033 21.3518 28.5184C21.2412 28.4475 21.1766 28.4278 21.0469 28.4399L21.0575 28.413C21.1454 28.3678 21.2038 28.269 21.2658 28.1851Z" fill="#20A687"/>
<path d="M13.3512 28.2891L13.4457 28.4395L13.4056 28.4318C13.2778 28.6011 13.3286 28.6688 13.1129 28.7256C13.0972 28.6439 13.1073 28.6024 13.1129 28.5179C13.2295 28.3939 13.1957 28.3629 13.3512 28.2891Z" fill="#20A687"/>
<path d="M10.4095 28.8953C10.0372 28.8529 10.1485 28.5867 10.2231 28.2891L10.4095 28.5179C10.4177 28.6655 10.4161 28.7499 10.4095 28.8953Z" fill="#20A687"/>
<path d="M21.0472 28.4399C21.1769 28.4277 21.2415 28.4474 21.3521 28.5183C21.4365 28.5032 21.7444 28.4632 21.788 28.4399C21.8209 28.5302 21.8142 28.5368 21.9131 28.5914L21.9313 28.6403C21.9979 28.8147 22.0595 28.7395 22.0185 28.963C21.8082 28.8656 21.8616 28.4396 21.6724 28.726L21.6399 28.6974C21.5693 28.7302 21.0181 28.9278 20.9502 28.9263C21.0807 28.7856 21.1647 28.6297 20.9402 28.5539L20.9395 28.5235L21.0472 28.4399Z" fill="#20A687"/>
<path d="M13.1128 28.7259C13.3285 28.6691 13.2776 28.6014 13.4055 28.4321L13.4456 28.4398V28.6507C13.4133 28.7607 13.4002 28.7919 13.3511 28.8956C13.2628 28.8203 13.2109 28.7883 13.1128 28.7259Z" fill="#20A687"/>
<path d="M13.4458 28.4395C13.5858 28.4756 13.8587 28.472 13.7833 28.6503C13.5493 28.5866 13.6575 28.5665 13.5052 28.7446L13.4744 28.7376L13.4458 28.6503V28.4395Z" fill="#20A687"/>
<path d="M9.53057 29.2948C9.3127 29.0519 9.08682 28.8312 8.96777 28.5181C9.36172 28.4863 9.46699 28.9735 9.53057 29.2948Z" fill="#DCAD51"/>
<path d="M13.3514 28.8957C13.4006 28.7921 13.4136 28.7608 13.446 28.6508L13.4746 28.738L13.5053 28.7451C13.6577 28.5669 13.5495 28.587 13.7835 28.6508C13.7072 28.8812 13.596 28.8943 13.5468 29.1112C13.3314 29.1543 13.3107 29.1178 13.3514 28.8957Z" fill="#20A687"/>
<path d="M21.6722 28.726C21.8614 28.4395 21.808 28.8656 22.0183 28.963C22.0773 29.0456 22.1222 29.3775 22.0183 29.4391C21.8302 29.2646 21.8688 29.0814 21.6104 29.1111C21.6548 28.9518 21.6584 28.8871 21.6722 28.726Z" fill="#FEFEFE"/>
<path d="M12.5591 28.5913C12.587 28.7485 12.5781 28.9523 12.5591 29.1111C12.5077 29.0713 12.4314 28.8224 12.3896 28.7259C12.4609 28.6948 12.5018 28.6464 12.5591 28.5913Z" fill="#20A687"/>
<path d="M10.6172 28.6507L10.6864 28.6279C10.774 28.6811 10.7915 28.841 10.891 28.963L10.6172 29.1111C10.6934 28.8806 10.705 28.8699 10.6172 28.6507Z" fill="#DCAD51"/>
<path d="M22.3622 28.9629C21.9336 28.7095 22.352 28.6969 22.6085 28.6506L22.6508 28.6475L22.6831 28.6816C22.7285 29.0015 22.6371 29.1316 22.3622 28.9629Z" fill="#FEFEFE"/>
<path d="M12.3156 29.1112C12.3491 28.9195 12.2944 28.7711 12.3211 28.686L12.3894 28.726C12.4312 28.8225 12.5075 29.0714 12.5589 29.1112H12.7084C12.6471 29.1757 12.5737 29.269 12.4954 29.295C12.3651 29.2716 12.3419 29.2449 12.3156 29.1112Z" fill="#20A687"/>
<path d="M13.5469 29.1109C13.9759 29.1799 13.5363 28.7679 14.3395 29.3827L14.0394 29.4389H13.927C13.8587 29.1719 13.76 29.2247 13.5469 29.1109Z" fill="#20A687"/>
<path d="M12.1159 29.4391C12.1362 29.3018 12.0883 29.1234 12.1989 29.064L12.3156 29.1112C12.3419 29.2449 12.3651 29.2716 12.4954 29.295L12.4179 29.319C12.3633 29.4363 12.4718 29.511 12.5589 29.576C12.4194 29.6766 12.4324 29.6933 12.3894 29.8923C12.3519 30.0145 12.2287 30.2507 12.3894 30.303C12.3078 30.429 12.2279 30.485 12.1159 30.5798C12.1241 30.2335 12.0633 29.8149 12.1159 29.511C12.3846 29.4915 12.3941 29.4419 12.1159 29.4391Z" fill="#20A687"/>
<path d="M12.7086 29.111C13.1608 28.9452 13.4417 29.4538 13.0417 29.7783C12.8842 29.7263 12.7129 29.6445 12.5591 29.5758C12.4719 29.5109 12.3635 29.4361 12.418 29.3188L12.4956 29.2948C12.5739 29.2688 12.6472 29.1755 12.7086 29.111Z" fill="#20A687"/>
<path d="M21.3521 29.3828C21.4142 29.3024 21.5381 29.1786 21.6105 29.1111C21.869 29.0814 21.8304 29.2646 22.0185 29.439C21.8809 29.4382 21.7957 29.449 21.6724 29.511C21.5738 29.4646 21.4547 29.4224 21.3521 29.3828Z" fill="#20A687"/>
<path d="M12.1162 29.439C12.3944 29.4418 12.3849 29.4913 12.1162 29.5109V29.439Z" fill="#20A687"/>
<path d="M13.6289 29.5758C13.7287 29.5458 13.8323 29.4871 13.9271 29.439H14.0395C14.1224 29.5237 14.2254 29.5403 14.3396 29.5758C14.2091 29.6245 13.9983 29.6776 13.9271 29.7784C13.8164 29.6952 13.749 29.6478 13.6289 29.5758Z" fill="#20A687"/>
<path d="M12.3896 29.892C12.4326 29.6931 12.4196 29.6763 12.5591 29.5757C12.7129 29.6444 12.8842 29.7262 13.0417 29.7783C12.9584 29.837 12.9408 29.827 12.8424 29.8244L12.7361 29.8221C12.6395 29.9039 12.6552 30.0005 12.6482 30.1283C12.6301 29.8914 12.5959 29.8858 12.3896 29.9789V29.892Z" fill="#20A687"/>
<path d="M13.5465 29.892C13.5768 29.8025 13.5901 29.6862 13.6284 29.5757C13.7485 29.6476 13.8159 29.695 13.9266 29.7783C14.0022 29.8642 14.0136 29.8693 14.039 29.9789C13.8667 29.946 13.7252 29.8397 13.6284 30.0436C13.6005 30.108 13.5727 30.1715 13.5465 30.2368V30.3472C13.445 30.2714 13.428 30.2359 13.3511 30.1283C13.4558 30.0796 13.5389 30.0588 13.5789 29.9556L13.5465 29.892Z" fill="#20A687"/>
<path d="M9.07969 29.8923C8.9043 29.953 8.68965 29.9424 8.62061 29.728L8.64736 29.6795C8.79346 29.6663 9.04248 29.6884 9.12031 29.8406L9.07969 29.8923Z" fill="#20A687"/>
<path d="M10.891 29.892C10.8061 29.8351 10.7087 29.8026 10.6543 29.7165L10.6753 29.6813C10.7772 29.6582 10.8612 29.6718 10.9655 29.6792L10.891 29.892Z" fill="#DCAD51"/>
<path d="M13.3511 30.1285C13.2413 29.863 13.292 29.8061 13.5465 29.8923L13.5789 29.9559C13.5389 30.0591 13.4558 30.0799 13.3511 30.1285Z" fill="#20A687"/>
<path d="M15.5117 29.892C15.8464 29.8576 15.8361 29.9659 16.0204 29.9788C15.9154 30.0604 15.8657 30.0896 15.7972 30.2108L15.7952 30.26C15.93 30.3775 15.9668 30.2739 16.0911 30.3471C15.8617 30.4697 15.8237 30.2633 15.5832 30.5795C15.574 30.7677 15.5904 30.8754 15.6482 31.0529C15.599 31.0823 15.6257 31.0724 15.5627 31.0675L15.5117 30.9916C15.4973 30.5689 15.4705 30.3322 15.5117 29.892Z" fill="#20A687"/>
<path d="M12.3896 29.9789C12.5959 29.8859 12.6301 29.8915 12.6482 30.1283C12.8163 30.2916 12.9094 30.3786 13.0417 30.5796L12.905 30.7281L12.7915 30.6561C12.6084 30.5577 12.5291 30.4619 12.3896 30.3028C12.5212 30.1195 12.4219 30.1519 12.3896 29.9789Z" fill="#20A687"/>
<path d="M12.3896 29.8921V29.9789C12.4218 30.1519 12.5212 30.1195 12.3896 30.3028C12.2289 30.2505 12.3521 30.0143 12.3896 29.8921Z" fill="#20A687"/>
<path d="M13.6289 30.0437C13.7257 29.8398 13.8672 29.9461 14.0395 29.979C14.0024 30.0149 13.933 30.0743 13.9271 30.1284C13.8267 30.0322 13.7643 30.0484 13.6289 30.0437Z" fill="#20A687"/>
<path d="M18.6122 30.1282C18.4308 30.1636 18.4024 30.2109 18.4082 30.4162C18.3591 30.5291 18.3714 30.5078 18.4082 30.656C18.3588 30.6893 18.3555 30.6821 18.3235 30.728L18.2324 30.7181C18.1354 30.8147 18.2507 30.8691 18.1255 30.9163C17.6394 30.8077 17.3028 30.6904 17.8463 30.2368C17.9064 30.3209 17.9832 30.4333 18.0763 30.4671L18.1138 30.4408C18.1802 30.0917 18.2256 30.254 18.4346 30.0343C18.3983 30.0724 18.5219 29.9073 18.5047 29.9305L18.5487 29.9417C18.5897 30.0181 18.5925 30.0449 18.6122 30.1282Z" fill="#20A687"/>
<path d="M16.0206 29.9788C16.1802 29.9316 16.2693 30.2176 16.307 30.3471C16.2379 30.4322 16.1729 30.4085 16.0913 30.3471C15.967 30.274 15.9303 30.3775 15.7954 30.26L15.7975 30.2108C15.8659 30.0896 15.9156 30.0604 16.0206 29.9788Z" fill="#20A687"/>
<path d="M13.5469 30.2367C13.573 30.1714 13.6009 30.1078 13.6288 30.0435C13.7642 30.0481 13.8266 30.032 13.927 30.1281C13.7806 30.2206 13.7176 30.229 13.5469 30.2367Z" fill="#F1E1B4"/>
<path d="M18.4079 30.4164C18.4021 30.2111 18.4306 30.1638 18.6119 30.1284C18.7027 30.1602 18.7232 30.1605 18.7886 30.237C18.7724 30.3967 18.7391 30.5781 18.7886 30.7282C18.7966 30.8043 18.7985 30.7834 18.7886 30.8578C18.6346 30.9637 18.5717 30.7943 18.5536 30.6562C18.5402 30.5098 18.5147 30.4996 18.4079 30.4164Z" fill="#FEFEFE"/>
<path d="M18.7887 30.2368L18.8577 30.2734C19.0658 30.0741 18.9227 30.4491 18.8902 30.656L18.7887 30.728C18.7392 30.5779 18.7726 30.3965 18.7887 30.2368Z" fill="#20A687"/>
<path d="M12.3894 30.3027C12.5288 30.4618 12.6081 30.5576 12.7912 30.656L12.648 30.728C12.5472 30.5042 12.3618 30.5796 12.187 30.656C12.2975 30.7092 12.3757 30.7116 12.4953 30.728C12.2997 30.8751 12.046 30.8807 12.1158 30.5795C12.2278 30.4847 12.3077 30.4287 12.3894 30.3027Z" fill="#20A687"/>
<path d="M16.3066 30.3472V30.4162C16.0641 30.623 15.8893 30.5856 15.583 30.5796C15.8235 30.2633 15.8615 30.4697 16.0909 30.3472C16.1725 30.4086 16.2375 30.4323 16.3066 30.3472Z" fill="#F1E1B4"/>
<path d="M16.3066 30.4165C16.3862 30.7311 15.8467 30.9117 15.648 31.0532C15.5902 30.8757 15.5738 30.768 15.583 30.5799C15.8892 30.5859 16.064 30.6233 16.3066 30.4165Z" fill="#20A687"/>
<path d="M18.7886 30.728L18.89 30.6561L18.9433 30.666C19.0592 30.548 19.1367 30.4418 19.2691 30.3472C19.3068 30.4436 19.3497 30.5634 19.3904 30.6561C19.18 30.7075 19.0326 30.726 18.89 30.9164L18.7886 30.8576C18.7985 30.7832 18.7966 30.8041 18.7886 30.728Z" fill="#20A687"/>
<path d="M18.4078 30.6564C18.371 30.5081 18.3588 30.5294 18.4078 30.4165C18.5147 30.4997 18.5402 30.5099 18.5535 30.6564H18.4078Z" fill="#20A687"/>
<path d="M13.3514 30.5796C13.4549 30.5646 13.4784 30.5572 13.5468 30.6561C13.4911 30.7196 13.4174 30.8098 13.3514 30.8577C13.3059 30.7597 13.3321 30.689 13.3514 30.5796Z" fill="#20A687"/>
<path d="M13.0415 30.5796C13.0786 30.6051 13.1196 30.6361 13.1588 30.6561C13.1124 30.7976 13.0772 30.9074 13.0415 31.053L13.0169 31.058C12.9516 30.9919 12.9336 30.8392 12.9048 30.728L13.0415 30.5796Z" fill="#20A687"/>
<path d="M12.187 30.6562C12.3618 30.5798 12.5472 30.5043 12.648 30.7281C12.5792 30.7352 12.5607 30.7446 12.4953 30.7281C12.3757 30.7118 12.2975 30.7094 12.187 30.6562Z" fill="#20A687"/>
<path d="M13.1588 30.6561L13.3512 30.5796C13.3319 30.6889 13.3057 30.7596 13.3512 30.8576L13.3276 30.873C13.2326 30.9359 13.1444 31.0122 13.0415 31.053C13.0772 30.9074 13.1124 30.7976 13.1588 30.6561Z" fill="#20A687"/>
<path d="M18.3232 30.7282C18.3553 30.6823 18.3585 30.6896 18.4079 30.6562H18.5536C18.5717 30.7943 18.6346 30.9637 18.7886 30.8578L18.89 30.9166C18.8565 31.0093 18.7903 31.1654 18.7886 31.2576C18.6784 31.3005 18.5978 31.2438 18.5536 31.2576C18.5193 31.1261 18.516 31.1309 18.4079 31.0531C18.4364 30.8907 18.4077 30.8704 18.3232 30.7282Z" fill="#20A687"/>
<path d="M18.1255 30.9165C18.2507 30.8693 18.1354 30.8148 18.2324 30.7183L18.3235 30.7281C18.408 30.8703 18.4367 30.8906 18.4082 31.053C18.2877 30.9764 18.2594 30.9558 18.1255 30.9165Z" fill="#20A687"/>
<path d="M11.8939 31.1881C11.7875 31.212 11.6684 31.2344 11.7104 31.3739C11.6645 31.4171 11.6825 31.4064 11.6272 31.4323C11.5939 31.3566 11.6105 31.3577 11.6272 31.2575C11.6557 31.1236 11.7368 30.9953 11.8653 30.9556L11.9083 30.9869C11.9299 31.0809 11.9194 31.097 11.8939 31.1881Z" fill="#20A687"/>
<path d="M10.7437 31.4322L10.852 31.188L10.9802 31.2424C11.1082 31.6243 11.0298 31.1689 11.2559 31.3738C11.2396 31.5085 11.2418 31.5388 11.2559 31.6745L11.0853 31.6C10.8595 31.4723 11.1267 31.5279 10.7437 31.4322Z" fill="#20A687"/>
<path d="M10.8521 31.1879C11.0442 31.1877 11.3366 31.1333 11.4719 31.1879C11.4189 31.3044 11.3938 31.401 11.256 31.3737C11.0299 31.1688 11.1083 31.6242 10.9803 31.2423L10.8521 31.1879Z" fill="#20A687"/>
<path d="M11.7103 31.3738C11.6683 31.2344 11.7874 31.2119 11.8938 31.188C11.9632 31.2061 11.9593 31.2033 12.0304 31.188C11.9213 31.2389 11.8969 31.2799 11.8117 31.3738H11.7103Z" fill="#20A687"/>
<path d="M18.789 31.2575C18.9091 31.2164 19.7781 31.1829 19.9306 31.188C19.7432 31.3249 19.4994 31.3271 19.3916 31.4192C19.4444 31.4561 19.6776 31.4903 19.5733 31.6C19.4645 31.6149 19.2224 31.6297 19.1448 31.6746C19.0862 31.721 19.0141 31.7715 18.9686 31.83L18.9696 31.85C19.0929 32.386 18.8766 32.328 18.554 32.643C18.5504 32.4885 18.5461 32.3488 18.554 32.1941C18.5559 31.9388 18.4708 31.9063 18.3236 32.1016C18.1916 32.0433 18.1872 32.0458 18.1256 31.9238C18.041 31.7806 18.0091 31.7296 17.9028 31.6C18.1975 31.574 18.4216 31.5785 18.554 31.2575C18.5981 31.2437 18.6788 31.3004 18.789 31.2575Z" fill="#FEFEFE"/>
<path d="M11.4719 31.188C11.531 31.2172 11.5648 31.2356 11.6274 31.2574C11.6107 31.3576 11.5941 31.3565 11.6274 31.4322C11.6594 31.5224 11.753 31.7166 11.7294 31.7778L11.7106 31.7864C11.5715 31.6596 11.4567 31.6973 11.256 31.6745C11.2419 31.5388 11.2398 31.5085 11.256 31.3738C11.3939 31.4011 11.419 31.3045 11.4719 31.188Z" fill="#20A687"/>
<path d="M11.812 31.3738C11.8973 31.2799 11.9217 31.2389 12.0308 31.188C12.1644 31.3872 12.1163 31.4752 12.0308 31.6745C11.9396 31.5828 11.8831 31.4837 11.812 31.3738Z" fill="#20A687"/>
<path d="M11.6273 31.4324C11.6827 31.4065 11.6646 31.4173 11.7105 31.374H11.8119C11.883 31.484 11.9394 31.583 12.0306 31.6747L11.9433 31.7866L11.8455 31.8376L11.8347 31.886C11.8847 31.9676 11.9107 31.9827 11.9815 32.0417L11.9845 32.0869L11.9433 32.1017C11.7388 32.1699 11.6518 32.3322 11.4719 32.4265C11.4553 32.3142 11.4553 32.3075 11.4719 32.1943C11.5138 32.1261 11.527 32.0087 11.5425 31.924C11.5832 31.9118 11.6719 31.8219 11.7105 31.7866L11.7294 31.778C11.7529 31.7169 11.6594 31.5227 11.6273 31.4324Z" fill="#20A687"/>
<path d="M10.7437 31.4321C11.1267 31.5279 10.8595 31.4723 11.0853 31.5999C11.0594 31.668 11.0394 31.7151 11.0208 31.7864C10.9219 31.6806 10.8796 31.635 10.7437 31.5999V31.4321Z" fill="#F1E1B4"/>
<path d="M14.5776 31.7864C14.6964 31.587 14.8526 31.5335 15.0513 31.4321C15.0979 31.6888 15.1447 31.9338 15.1738 32.194C14.9891 32.0533 14.7821 31.8868 14.5776 31.7864Z" fill="#FEFEFE"/>
<path d="M17.5083 31.6001C17.6351 31.5969 17.7749 31.5999 17.9028 31.6001C18.0091 31.7297 18.041 31.7806 18.1256 31.9239C18.073 32.0246 18.0701 32.0471 17.9803 32.1016C17.9403 31.9664 17.9282 31.9026 17.8464 31.7865C17.7559 31.6876 17.6328 31.6521 17.5083 31.6001Z" fill="#20A687"/>
<path d="M19.1445 31.6746C19.2221 31.6298 19.4642 31.615 19.573 31.6001C19.5576 31.6471 19.5229 31.7421 19.516 31.7865C19.3782 31.7543 19.274 31.7363 19.1445 31.6746Z" fill="#20A687"/>
<path d="M10.7437 31.6001C10.8796 31.6352 10.9219 31.6807 11.0208 31.7865V31.8501C10.8669 31.7747 10.7654 31.4573 10.7954 31.9239H10.7437C10.7512 31.8231 10.7454 31.7029 10.7437 31.6001Z" fill="#20A687"/>
<path d="M11.0854 31.6001L11.2561 31.6746C11.4567 31.6974 11.5716 31.6597 11.7106 31.7865C11.672 31.8218 11.5833 31.9117 11.5426 31.9239C11.4175 31.8715 11.2769 31.9761 11.157 32.0372C11.0226 31.971 11.0446 31.9923 11.021 31.8501V31.7865C11.0396 31.7153 11.0596 31.6682 11.0854 31.6001Z" fill="#20A687"/>
<path d="M18.9693 31.8498L18.9683 31.8298C19.0138 31.7713 19.0859 31.7208 19.1445 31.6743C19.274 31.736 19.3782 31.754 19.516 31.7862C19.4339 32.0107 19.1519 31.8838 18.9693 31.8498Z" fill="#FEFEFE"/>
<path d="M10.7953 31.9241C10.7653 31.4575 10.8668 31.7749 11.0207 31.8503C11.0443 31.9925 11.0222 31.9712 11.1567 32.0374V32.1018C11.0812 32.2227 11.0127 32.2568 10.8908 32.326C10.9157 32.1422 10.9794 32.2192 11.0207 32.0374C10.8566 32.0609 10.8358 32.2486 10.7953 31.9241Z" fill="#F1E1B4"/>
<path d="M15.583 31.6743C15.7603 31.6973 15.9246 31.7127 16.0909 31.7862C15.9395 31.9347 15.8079 32.0557 15.648 32.1939C15.6205 32.0265 15.6026 31.844 15.583 31.6743Z" fill="#FEFEFE"/>
<path d="M11.9434 31.7862L12.0307 31.6743C12.286 31.7743 12.2873 31.9297 12.2185 32.1877L12.1811 32.228C12.1271 32.2072 12.1473 32.2213 12.1161 32.1939C12.1696 32.0311 12.0897 31.8587 11.9434 31.7862Z" fill="#20A687"/>
<path d="M11.9431 32.1017L11.9843 32.0869L11.9813 32.0417C11.9104 31.9827 11.8845 31.9676 11.8345 31.886L11.8452 31.8376L11.9431 31.7866C12.0895 31.8591 12.1693 32.0315 12.1158 32.1943C12.0547 32.1266 12.0275 32.1265 11.9431 32.1017Z" fill="#20A687"/>
<path d="M17.8464 31.7866C17.9282 31.9027 17.9403 31.9665 17.9802 32.1017C17.6826 32.0665 17.5287 32.1273 17.8464 31.7866Z" fill="#20A687"/>
<path d="M16.1901 32.3259L16.146 32.319L16.1548 32.2793C16.283 32.1101 16.485 31.9616 16.6597 31.8501C16.8749 31.9684 16.2735 32.2813 16.1901 32.3259Z" fill="#20A687"/>
<path d="M11.5423 31.9239C11.5269 32.0086 11.5137 32.126 11.4717 32.1942H11.2558L11.1567 32.1016V32.0373C11.2766 31.9761 11.4172 31.8715 11.5423 31.9239Z" fill="#20A687"/>
<path d="M10.7435 31.9238H10.7952C10.8358 32.2484 10.8566 32.0607 11.0206 32.0372C10.9793 32.219 10.9157 32.1419 10.8908 32.3258C10.8374 32.36 10.7946 32.3894 10.7435 32.4263C10.3199 32.8937 9.96546 32.7733 10.2849 32.5884C10.5059 32.4606 10.6237 32.1739 10.7435 31.9238Z" fill="#20A687"/>
<path d="M18.1255 31.9238C18.1871 32.0458 18.1915 32.0433 18.3235 32.1016L18.4082 32.1941L18.1255 32.3258C18.1439 32.1665 18.1464 32.0851 18.1255 31.9238Z" fill="#20A687"/>
<path d="M18.3232 32.1015C18.4704 31.9063 18.5555 31.9388 18.5536 32.194H18.4079L18.3232 32.1015Z" fill="#20A687"/>
<path d="M14.8976 32.7651C14.6864 32.7311 13.4533 32.5096 13.9267 32.1018C14.1698 32.0921 14.9785 32.4391 14.9595 32.7459L14.8976 32.7651Z" fill="#20A687"/>
<path d="M10.8909 32.3258C11.0128 32.2565 11.0813 32.2225 11.1568 32.1016L11.2559 32.1941C11.0861 32.3644 11.0135 32.4234 11.1568 32.6431C10.9589 32.6202 10.8753 32.5845 10.7437 32.4263C10.7947 32.3894 10.8376 32.36 10.8909 32.3258Z" fill="#20A687"/>
<path d="M11.157 32.6433C11.0136 32.4236 11.0863 32.3646 11.256 32.1943H11.4719C11.4554 32.3076 11.4554 32.3142 11.4719 32.4265C11.3472 32.501 11.2592 32.5815 11.157 32.6433Z" fill="#20A687"/>
<path d="M19.5161 32.8764C19.7324 32.619 20.0704 32.7258 20.3753 32.7651C20.123 32.9457 20.0215 32.9511 20.0764 33.2946L19.9847 33.2688C19.8327 33.1044 19.6757 33.0111 19.5161 32.8764Z" fill="#FEFEFE"/>
<path d="M20.0764 33.2942C19.6135 33.2831 19.5442 33.4746 19.5161 32.876C19.6757 33.0108 19.8327 33.104 19.9847 33.2684L20.0764 33.2942Z" fill="#20A687"/>
</g>
<path d="M15.5 0.5C23.7843 0.5 30.5 7.21573 30.5 15.5V17.5C30.5 25.7843 23.7843 32.5 15.5 32.5C7.21573 32.5 0.5 25.7843 0.5 17.5V15.5C0.500001 7.21573 7.21573 0.5 15.5 0.5Z" stroke="black"/>
<defs>
<clipPath id="clip0_651_4419">
<path d="M0 15.5C0 6.93959 6.93959 0 15.5 0C24.0604 0 31 6.93959 31 15.5V17.5C31 26.0604 24.0604 33 15.5 33C6.93959 33 0 26.0604 0 17.5V15.5Z" fill="white"/>
</clipPath>
</defs>
</svg>
