<svg width="21" height="22" viewBox="0 0 21 22" fill="none" xmlns="http://www.w3.org/2000/svg">
<path d="M17.7803 7.55167e-05C17.9995 7.55072e-05 18.2098 0.0869934 18.3649 0.24171C18.5199 0.396428 18.607 0.606269 18.607 0.825072L18.607 6.43505C19.2935 6.6188 19.9002 7.02346 20.3328 7.58628C20.7655 8.14911 21 8.83867 21 9.54804C21 10.2574 20.7655 10.947 20.3328 11.5098C19.9002 12.0726 19.2935 12.4773 18.607 12.661L18.607 21.175C18.607 21.3938 18.5199 21.6036 18.3649 21.7584C18.2098 21.9131 17.9995 22 17.7803 22C17.5611 22 17.3508 21.9131 17.1957 21.7584C17.0407 21.6036 16.9536 21.3938 16.9536 21.175L16.9536 12.661C16.2671 12.4773 15.6604 12.0726 15.2278 11.5098C14.7951 10.947 14.5606 10.2574 14.5606 9.54804C14.5606 8.83867 14.7951 8.14911 15.2278 7.58628C15.6604 7.02346 16.2671 6.6188 16.9536 6.43505L16.9536 0.825073C16.9536 0.606269 17.0407 0.396428 17.1957 0.24171C17.3508 0.0869934 17.561 7.55263e-05 17.7803 7.55167e-05ZM3.2197 7.61532e-05C3.43895 7.61436e-05 3.64922 0.086994 3.80425 0.24171C3.95929 0.396429 4.04638 0.60627 4.04638 0.825073L4.04638 3.52007C4.73294 3.70381 5.33958 4.10847 5.77224 4.67129C6.2049 5.23412 6.43941 5.92368 6.43941 6.63305C6.43941 7.34242 6.2049 8.03198 5.77224 8.59481C5.33958 9.15764 4.73294 9.5623 4.04638 9.74604L4.04638 21.175C4.04638 21.2833 4.025 21.3906 3.98346 21.4907C3.94191 21.5908 3.88102 21.6818 3.80425 21.7584C3.72749 21.835 3.63636 21.8957 3.53606 21.9372C3.43576 21.9787 3.32826 22 3.2197 22C3.11114 22 3.00364 21.9787 2.90335 21.9372C2.80305 21.8957 2.71192 21.835 2.63515 21.7584C2.55839 21.6818 2.49749 21.5908 2.45595 21.4907C2.41441 21.3906 2.39302 21.2833 2.39302 21.175L2.39302 9.74604C1.70646 9.5623 1.09983 9.15764 0.667167 8.59481C0.234509 8.03198 -6.40703e-07 7.34242 -6.71711e-07 6.63305C-7.02718e-07 5.92368 0.234508 5.23413 0.667167 4.6713C1.09983 4.10847 1.70646 3.70381 2.39302 3.52007L2.39302 0.825073C2.39154 0.716324 2.41191 0.608379 2.45293 0.507618C2.49395 0.406855 2.55479 0.315319 2.63185 0.238415C2.70891 0.16151 2.80063 0.100796 2.9016 0.0598601C3.00257 0.0189246 3.11073 -0.00140394 3.2197 7.61532e-05ZM10.4945 7.58352e-05C10.6035 -0.00140427 10.7116 0.0189242 10.8126 0.0598598C10.9136 0.100795 11.0053 0.16151 11.0823 0.238414C11.1594 0.315319 11.2202 0.406854 11.2613 0.507617C11.3023 0.608379 11.3227 0.716323 11.3212 0.825073L11.3212 13.695C12.0077 13.8788 12.6144 14.2834 13.047 14.8463C13.4797 15.4091 13.7142 16.0986 13.7142 16.808C13.7142 17.5174 13.4797 18.2069 13.047 18.7698C12.6144 19.3326 12.0077 19.7373 11.3212 19.921L11.3212 21.175C11.3212 21.3938 11.2341 21.6036 11.079 21.7584C10.924 21.9131 10.7137 22 10.4945 22C10.2752 22 10.065 21.9131 9.90994 21.7584C9.75491 21.6036 9.66781 21.3938 9.66781 21.175L9.66781 19.921C8.98125 19.7373 8.37461 19.3326 7.94195 18.7698C7.5093 18.2069 7.27479 17.5174 7.27479 16.808C7.27479 16.0986 7.5093 15.4091 7.94195 14.8463C8.37461 14.2834 8.98125 13.8788 9.66781 13.695L9.66781 0.825073C9.66781 0.606269 9.75491 0.396429 9.90994 0.24171C10.065 0.0869937 10.2752 7.58448e-05 10.4945 7.58352e-05Z" fill="#212121"/>
</svg>
