<svg width="403" height="354" viewBox="0 0 403 354" fill="none" xmlns="http://www.w3.org/2000/svg">
<path d="M32.5376 423.086L8.04688 422.505C9.32244 368.747 27.0952 319.975 55.6677 291.975C77.6924 270.456 112.728 254.586 148.699 249.684C164.856 187.286 207.374 146.49 268.431 134.608C268.601 133.528 268.856 132.365 269.026 131.285C276.085 93.3143 300.49 65.7294 337.652 53.5156L345.475 76.1984C326.257 82.513 302.106 97.2193 294.027 131.368C297.514 131.202 301.086 131.036 304.657 131.036H306.188C335.526 131.036 373.197 140.092 392.501 165.683C410.444 189.197 404.746 227.084 380.34 245.031C368.86 253.506 354.914 256.829 340.288 254.669C316.392 251.263 296.579 234.894 285.949 220.687C273.023 203.404 266.39 182.882 266.305 159.368C220.045 170.17 188.496 200.579 174.38 248.022C196.064 248.354 217.069 253.257 234.586 263.809C254.825 276.022 267.836 298.456 267.751 320.972C267.666 341.495 256.781 359.691 237.903 370.908C221.235 380.795 202.697 380.38 185.52 369.828C158.818 353.376 139.685 314.492 142.831 283.085C143.086 280.343 143.426 277.601 143.766 274.942C116.044 280.26 89.4276 292.806 73.0154 308.842C48.7797 332.522 33.6431 375.228 32.5376 423.003V423.086ZM168.938 272.283C168.257 276.604 167.662 281.008 167.237 285.577C165.026 307.595 179.992 338.171 198.616 349.721C207.885 355.37 216.558 355.703 225.232 350.634C240.114 341.827 243.26 329.697 243.26 321.056C243.26 306.682 234.841 292.224 221.746 284.331C206.949 275.358 188.156 271.868 168.938 272.283ZM290.881 155.713C290.201 175.82 295.133 192.603 305.763 206.645C315.287 219.357 330.594 229.161 343.859 231.072C352.023 232.236 359.336 230.574 365.629 225.921C378.98 216.034 382.721 192.852 372.857 179.974C359.506 162.36 329.233 154.716 304.912 154.965C300.15 154.965 295.388 155.214 290.881 155.629V155.713Z" fill="white"/>
<path d="M32.2835 386.936L8.21796 382.283C10.0037 373.559 12.2147 364.253 14.5107 354.698C21.3988 325.95 29.2222 293.463 26.2459 267.374C26.2459 267.208 26.2459 266.958 26.2459 266.792C11.9596 271.362 -3.77228 273.024 -17.0381 271.196C-44.08 267.291 -72.6525 250.258 -71.547 222.091C-71.1218 211.207 -65.9346 201.153 -56.9206 193.759C-45.9508 184.702 -30.0488 180.132 -15.6775 181.877C12.1297 185.201 31.5182 206.637 41.9778 231.729C57.2845 219.931 65.8733 203.48 74.8872 179.634C80.2446 165.426 83.6461 149.224 83.7311 133.687C80.7548 135.93 77.6935 138.007 74.5471 139.918C53.2027 152.631 19.4429 150.055 -0.795982 140.334C-24.3513 128.951 -35.066 100.037 -24.6915 75.8584C-15.2523 54.1727 7.6227 43.8699 39.9369 46.7779C56.179 48.1904 71.7408 55.3359 83.6461 66.9681C88.2381 71.4548 92.1499 76.3569 95.3813 81.6745C99.2079 73.615 101.589 65.2232 102.099 57.33C103.375 39.3832 100.824 23.4305 94.4458 9.88735L116.726 0C124.719 17.199 128.036 36.9737 126.505 58.9086C125.314 76.2738 117.746 94.8022 106.181 110.589C111.283 136.844 106.351 165.758 97.9323 187.943C88.068 213.949 76.8431 238.792 49.376 255.991C49.8863 258.899 50.3965 261.807 50.7367 264.632C54.2232 294.792 45.8045 329.523 38.4913 360.099C36.2803 369.405 34.0693 378.378 32.3686 386.936H32.2835ZM-21.9703 205.391C-28.8583 205.391 -36.1715 207.884 -41.1037 211.955C-44.9304 215.112 -46.8862 218.768 -47.0563 223.005C-47.6516 237.213 -26.8174 245.522 -13.5516 247.433C-3.68725 248.845 8.98331 247.184 20.1232 243.445C13.0651 225.498 0.309502 207.884 -18.7389 205.557C-19.8443 205.391 -20.8648 205.391 -21.9703 205.391ZM29.0521 70.2085C12.6399 70.2085 2.18033 75.1937 -2.15658 85.1641C-7.51392 97.6272 -1.9865 112.998 10.0038 118.814C25.4806 126.292 49.7162 126.624 61.7915 119.396C68.0842 115.657 74.0369 110.755 79.3092 105.022C76.503 96.9625 72.2511 89.7339 66.2135 83.8347C58.305 76.1907 48.1855 71.4548 37.5558 70.5408C34.4945 70.2915 31.6883 70.1254 28.9671 70.1254L29.0521 70.2085Z" fill="white"/>
<path d="M4.97925 435.292C1.66281 379.623 -42.5566 316.643 -95.705 292.05C-99.9568 290.056 -104.634 288.228 -109.651 286.649C-109.311 310.827 -116.369 335.837 -140.52 353.202C-162.289 368.822 -180.487 364.668 -189.501 360.763C-204.723 354.199 -215.352 339.409 -217.223 322.21C-219.179 304.43 -211.271 287.895 -195.709 276.928C-178.361 264.631 -158.888 258.4 -138.224 258.233C-141.54 245.272 -146.217 234.221 -149.023 228.156C-155.741 213.699 -167.732 197.663 -182.018 186.197C-182.273 202.233 -186.695 219.099 -194.773 230.732C-208.294 250.34 -229.724 260.975 -252.174 259.064C-271.902 257.403 -288.74 246.352 -296.138 230.15C-300.9 219.847 -305.662 198.494 -284.743 171.241C-270.967 153.295 -247.241 144.155 -221.135 145.817C-241.459 116.321 -269.946 112.665 -333.554 116.155L-335 92.2257C-264.249 88.2375 -218.754 90.4808 -188.991 153.544C-160.929 166.173 -138.054 193.758 -126.744 218.185C-122.917 226.494 -116.369 242.364 -112.627 260.892C-103.613 262.886 -94.4294 266.044 -85.3304 270.281C-24.7838 298.281 25.5583 370.068 29.3849 433.713L4.8942 435.125L4.97925 435.292ZM-137.373 282.079C-151.574 282.079 -166.626 285.818 -181.338 296.287C-192.648 304.264 -193.413 314.317 -192.818 319.635C-191.882 328.193 -186.695 335.753 -179.552 338.828C-172.324 341.902 -163.905 340.157 -155.061 333.842C-137.458 321.13 -133.036 301.439 -134.227 282.162C-135.247 282.162 -136.353 282.162 -137.373 282.162V282.079ZM-227.258 169.663C-241.289 169.663 -255.915 173.817 -265.014 185.698C-274.964 198.577 -278.025 210.957 -273.688 220.429C-269.946 228.654 -260.847 234.304 -249.963 235.218C-236.272 236.382 -223.516 229.818 -214.927 217.355C-207.444 206.387 -204.383 185.782 -207.699 172.238C-207.784 172.238 -207.869 172.238 -207.954 172.238C-213.737 170.66 -220.37 169.746 -227.173 169.746L-227.258 169.663Z" fill="white"/>
</svg>
