<svg width="292" height="52" viewBox="0 0 292 52" fill="none" xmlns="http://www.w3.org/2000/svg">
<path d="M23.5192 16.3076L23.27 16.8432L23.0207 16.3076L13.5957 20.7639V50.5109H15.0296V21.6842L23.27 17.7865L31.512 21.6842V50.5109H32.9442V20.7639L23.5192 16.3076Z" fill="#997700"/>
<path d="M22.5103 17.1182C22.0978 15.1959 19.6196 14.5043 17.4345 13.8943C16.6727 13.6815 15.9531 13.4794 15.3511 13.2329C12.8799 12.2239 10.0787 11.0801 8.50615 8.33505C7.48116 6.5458 7.48291 4.22633 8.50791 2.42822C9.43286 0.8092 10.9949 -0.0934062 12.8431 0.00767147C16.2322 0.177907 18.9614 3.12867 21.1834 9.02664C21.7977 10.6581 22.3752 12.3196 22.8982 13.9635C22.9894 14.249 23.1299 14.5629 23.2738 14.8874C23.5686 15.5523 23.8723 16.2422 23.9232 16.9071L22.5085 17.1164L22.5103 17.1182ZM12.5851 1.44936C10.9633 1.44936 10.1138 2.51688 9.75053 3.15349C8.97477 4.51006 8.97301 6.2603 9.74702 7.60977C11.0739 9.92569 13.5223 10.9241 15.89 11.8923C16.4147 12.1068 17.0957 12.2966 17.8171 12.4987C18.9579 12.8162 20.2286 13.1726 21.3203 13.74C20.8622 12.3391 20.3673 10.9312 19.846 9.54266C17.8487 4.23875 15.5354 1.59299 12.7729 1.4529L12.5868 1.44758L12.5851 1.44936Z" fill="#997700"/>
<path d="M24.2916 17.1186L22.877 16.9094C22.9279 16.2426 23.2332 15.5528 23.5281 14.886C23.6703 14.5633 23.8107 14.2512 23.9019 13.9657C24.432 12.3059 25.0094 10.6443 25.6167 9.02885C27.8387 3.13088 30.5679 0.180121 33.9571 0.00988533C35.7964 -0.0858724 37.369 0.811414 38.294 2.43398C39.319 4.23209 39.319 6.54801 38.294 8.33726C36.7179 11.0859 33.9184 12.2279 31.449 13.2351C30.847 13.4816 30.1274 13.682 29.3657 13.8948C27.1805 14.5065 24.7023 15.1981 24.2881 17.1204L24.2916 17.1186ZM34.2151 1.4498L34.029 1.45512C31.2682 1.59343 28.955 4.24096 26.9576 9.54487C26.4399 10.9192 25.9449 12.3289 25.4833 13.7405C26.575 13.173 27.8457 12.8166 28.9865 12.4992C29.7079 12.297 30.3889 12.1073 30.9137 11.8927C33.2796 10.9263 35.7262 9.9279 37.0549 7.61021C37.8289 6.26251 37.8289 4.51227 37.0531 3.15571C36.6915 2.51732 35.8386 1.4498 34.2151 1.4498Z" fill="#997700"/>
<path d="M38.4365 15.8555L32.2982 20.7518L31.0806 21.7299L23.2743 27.9545L15.3791 21.691L14.1503 20.7129L8.02869 15.8555H0V50.0128H8.06205V26.2427L12.7214 29.7162L14.1781 30.8L21.3394 36.1353H25.2148L32.2148 30.9167L33.666 29.8385L38.4921 26.2427V50.0128H46.5486V15.8555H38.4365Z" fill="#212121"/>
<path d="M56.8262 16.4512H64.8088V50.5286H56.8262V16.4512Z" fill="#212121"/>
<path d="M93.5298 43.716V50.5286H75.957V16.4512H83.8412V43.716H93.5298Z" fill="#212121"/>
<path d="M120.219 43.716V50.5286H102.646V16.4512H110.531V43.716H120.219Z" fill="#212121"/>
<path d="M137.22 22.779V30.5174H150.12V36.6993H137.22V44.1972H150.12V50.525H129.332V16.4512H150.12V22.779H137.22Z" fill="#212121"/>
<path d="M173.482 16.4512C184.775 16.4512 191.201 24.7764 191.201 33.4917C191.201 42.207 184.826 50.5286 173.482 50.5286H160.973V16.4512H173.482ZM168.857 23.2674V43.7124H173.092C179.471 43.7124 183.171 38.7479 183.171 33.4881C183.171 28.2283 179.471 23.2674 173.092 23.2674H168.857Z" fill="#212121"/>
<path d="M198.953 33.4935C198.953 24.1476 205.671 15.5781 217.014 15.5781C228.358 15.5781 235.024 24.1476 235.024 33.4935C235.024 42.8394 228.307 51.4088 217.014 51.4088C205.722 51.4088 198.953 42.8394 198.953 33.4935ZM226.994 33.4935C226.994 27.8947 223.196 22.6896 217.014 22.6896C210.832 22.6896 207.034 27.8983 207.034 33.4935C207.034 39.0886 210.781 44.301 217.014 44.301C223.247 44.301 226.994 39.0923 226.994 33.4935Z" fill="#212121"/>
<path d="M265.026 38.6494V16.4512H272.866V50.5286H264.636L252.367 28.6256V50.5286H244.482V16.4512H252.709L265.026 38.6494Z" fill="#212121"/>
<path d="M284.02 16.4512H292.002V50.5286H284.02V16.4512Z" fill="#212121"/>
</svg>
