<svg width="376" height="98" viewBox="0 0 376 98" fill="none" xmlns="http://www.w3.org/2000/svg">
<path d="M23.5192 16.3076L23.27 16.8432L23.0207 16.3076L13.5957 20.7639V50.5109H15.0296V21.6842L23.27 17.7865L31.512 21.6842V50.5109H32.9442V20.7639L23.5192 16.3076Z" fill="#997700"/>
<path d="M22.5103 17.1182C22.0978 15.1959 19.6196 14.5043 17.4345 13.8943C16.6727 13.6815 15.9531 13.4794 15.3511 13.2329C12.8799 12.2239 10.0787 11.0801 8.50615 8.33505C7.48116 6.5458 7.48291 4.22633 8.50791 2.42822C9.43286 0.8092 10.9949 -0.0934062 12.8431 0.00767147C16.2322 0.177907 18.9614 3.12867 21.1834 9.02664C21.7977 10.6581 22.3752 12.3196 22.8982 13.9635C22.9894 14.249 23.1299 14.5629 23.2738 14.8874C23.5686 15.5523 23.8723 16.2422 23.9232 16.9071L22.5085 17.1164L22.5103 17.1182ZM12.5851 1.44936C10.9633 1.44936 10.1138 2.51688 9.75053 3.15349C8.97477 4.51006 8.97301 6.2603 9.74702 7.60977C11.0739 9.92569 13.5223 10.9241 15.89 11.8923C16.4147 12.1068 17.0957 12.2966 17.8171 12.4987C18.9579 12.8162 20.2286 13.1726 21.3203 13.74C20.8622 12.3391 20.3673 10.9312 19.846 9.54266C17.8487 4.23875 15.5354 1.59299 12.7729 1.4529L12.5868 1.44758L12.5851 1.44936Z" fill="#997700"/>
<path d="M24.2916 17.1186L22.877 16.9094C22.9279 16.2426 23.2332 15.5528 23.5281 14.886C23.6703 14.5633 23.8107 14.2512 23.9019 13.9657C24.432 12.3059 25.0094 10.6443 25.6167 9.02885C27.8387 3.13088 30.5679 0.180121 33.9571 0.00988533C35.7964 -0.0858724 37.369 0.811414 38.294 2.43398C39.319 4.23209 39.319 6.54801 38.294 8.33726C36.7179 11.0859 33.9184 12.2279 31.449 13.2351C30.847 13.4816 30.1274 13.682 29.3657 13.8948C27.1805 14.5065 24.7023 15.1981 24.2881 17.1204L24.2916 17.1186ZM34.2151 1.4498L34.029 1.45512C31.2682 1.59343 28.955 4.24096 26.9576 9.54487C26.4399 10.9192 25.9449 12.3289 25.4833 13.7405C26.575 13.173 27.8457 12.8166 28.9865 12.4992C29.7079 12.297 30.3889 12.1073 30.9137 11.8927C33.2796 10.9263 35.7262 9.9279 37.0549 7.61021C37.8289 6.26251 37.8289 4.51227 37.0531 3.15571C36.6915 2.51732 35.8386 1.4498 34.2151 1.4498Z" fill="#997700"/>
<path d="M38.4365 15.8555L32.2982 20.7518L31.0806 21.7299L23.2743 27.9545L15.3791 21.691L14.1503 20.7129L8.02869 15.8555H0V50.0128H8.06205V26.2427L12.7214 29.7162L14.1781 30.8L21.3394 36.1353H25.2148L32.2148 30.9167L33.666 29.8385L38.4921 26.2427V50.0128H46.5486V15.8555H38.4365Z" fill="#212121"/>
<path d="M56.8262 16.4512H64.8088V50.5286H56.8262V16.4512Z" fill="#212121"/>
<path d="M93.5298 43.716V50.5286H75.957V16.4512H83.8412V43.716H93.5298Z" fill="#212121"/>
<path d="M120.219 43.716V50.5286H102.646V16.4512H110.531V43.716H120.219Z" fill="#212121"/>
<path d="M137.22 22.779V30.5174H150.12V36.6993H137.22V44.1972H150.12V50.525H129.332V16.4512H150.12V22.779H137.22Z" fill="#212121"/>
<path d="M173.482 16.4512C184.775 16.4512 191.201 24.7764 191.201 33.4917C191.201 42.207 184.826 50.5286 173.482 50.5286H160.973V16.4512H173.482ZM168.857 23.2674V43.7124H173.092C179.471 43.7124 183.171 38.7479 183.171 33.4881C183.171 28.2283 179.471 23.2674 173.092 23.2674H168.857Z" fill="#212121"/>
<path d="M198.953 33.4935C198.953 24.1476 205.671 15.5781 217.014 15.5781C228.358 15.5781 235.024 24.1476 235.024 33.4935C235.024 42.8394 228.307 51.4088 217.014 51.4088C205.722 51.4088 198.953 42.8394 198.953 33.4935ZM226.994 33.4935C226.994 27.8947 223.196 22.6896 217.014 22.6896C210.832 22.6896 207.034 27.8983 207.034 33.4935C207.034 39.0886 210.781 44.301 217.014 44.301C223.247 44.301 226.994 39.0923 226.994 33.4935Z" fill="#212121"/>
<path d="M265.026 38.6494V16.4512H272.866V50.5286H264.636L252.367 28.6256V50.5286H244.482V16.4512H252.709L265.026 38.6494Z" fill="#212121"/>
<path d="M284.02 16.4512H292.002V50.5286H284.02V16.4512Z" fill="#212121"/>
<path d="M2.03047 73.3327H11.8465V75.5647H4.76647V80.4847H10.2865V82.7167H4.76647V90.0127H2.03047V73.3327ZM14.454 90.0127V76.7887H17.19V90.0127H14.454ZM15.846 75.0367C15.27 75.0367 14.782 74.8527 14.382 74.4847C13.982 74.1167 13.782 73.6607 13.782 73.1167C13.782 72.5727 13.982 72.1167 14.382 71.7487C14.782 71.3647 15.27 71.1727 15.846 71.1727C16.406 71.1727 16.886 71.3647 17.286 71.7487C17.702 72.1167 17.91 72.5727 17.91 73.1167C17.91 73.6607 17.702 74.1167 17.286 74.4847C16.886 74.8527 16.406 75.0367 15.846 75.0367ZM20.9211 90.0127V76.7887H23.6571V79.5487C23.8651 78.9887 24.1931 78.4927 24.6411 78.0607C25.0891 77.6127 25.6011 77.2607 26.1771 77.0047C26.7691 76.7487 27.3611 76.6207 27.9531 76.6207C28.9611 76.6207 29.8411 76.8447 30.5931 77.2927C31.3611 77.7247 31.9531 78.3567 32.3691 79.1887C32.8011 80.0207 33.0171 81.0287 33.0171 82.2127V90.0127H30.3051V82.8607C30.3051 81.6607 30.0011 80.7167 29.3931 80.0287C28.7851 79.3407 27.9851 78.9967 26.9931 78.9967C26.3531 78.9967 25.7771 79.1727 25.2651 79.5247C24.7691 79.8767 24.3771 80.3647 24.0891 80.9887C23.8011 81.5967 23.6571 82.3007 23.6571 83.1007V90.0127H20.9211ZM41.787 90.1807C40.635 90.1807 39.587 89.9007 38.643 89.3407C37.715 88.7647 36.971 87.9727 36.411 86.9647C35.867 85.9407 35.595 84.7487 35.595 83.3887C35.595 82.0287 35.867 80.8447 36.411 79.8367C36.971 78.8127 37.715 78.0207 38.643 77.4607C39.587 76.9007 40.635 76.6207 41.787 76.6207C42.875 76.6207 43.827 76.8927 44.643 77.4367C45.459 77.9647 46.051 78.7007 46.419 79.6447V72.2527H49.179V90.0127H47.955C47.507 90.0127 47.139 89.8687 46.851 89.5807C46.563 89.2927 46.419 88.9247 46.419 88.4767V87.1327C46.051 88.0767 45.459 88.8207 44.643 89.3647C43.827 89.9087 42.875 90.1807 41.787 90.1807ZM42.411 87.8047C43.099 87.8047 43.747 87.6367 44.355 87.3007C44.963 86.9647 45.459 86.4687 45.843 85.8127C46.227 85.1407 46.419 84.3327 46.419 83.3887C46.419 82.4287 46.227 81.6287 45.843 80.9887C45.459 80.3327 44.963 79.8367 44.355 79.5007C43.747 79.1647 43.099 78.9967 42.411 78.9967C41.739 78.9967 41.091 79.1647 40.467 79.5007C39.859 79.8367 39.363 80.3327 38.979 80.9887C38.595 81.6287 38.403 82.4287 38.403 83.3887C38.403 84.3327 38.595 85.1407 38.979 85.8127C39.363 86.4687 39.859 86.9647 40.467 87.3007C41.091 87.6367 41.739 87.8047 42.411 87.8047ZM52.8447 90.0127V76.7887H55.5807V90.0127H52.8447ZM54.2367 75.0367C53.6607 75.0367 53.1727 74.8527 52.7727 74.4847C52.3727 74.1167 52.1727 73.6607 52.1727 73.1167C52.1727 72.5727 52.3727 72.1167 52.7727 71.7487C53.1727 71.3647 53.6607 71.1727 54.2367 71.1727C54.7967 71.1727 55.2767 71.3647 55.6767 71.7487C56.0927 72.1167 56.3007 72.5727 56.3007 73.1167C56.3007 73.6607 56.0927 74.1167 55.6767 74.4847C55.2767 74.8527 54.7967 75.0367 54.2367 75.0367ZM59.3117 90.0127V76.7887H62.0477V79.5487C62.2557 78.9887 62.5837 78.4927 63.0317 78.0607C63.4797 77.6127 63.9917 77.2607 64.5677 77.0047C65.1597 76.7487 65.7517 76.6207 66.3437 76.6207C67.3517 76.6207 68.2317 76.8447 68.9837 77.2927C69.7517 77.7247 70.3437 78.3567 70.7597 79.1887C71.1917 80.0207 71.4077 81.0287 71.4077 82.2127V90.0127H68.6957V82.8607C68.6957 81.6607 68.3917 80.7167 67.7837 80.0287C67.1757 79.3407 66.3757 78.9967 65.3837 78.9967C64.7437 78.9967 64.1677 79.1727 63.6557 79.5247C63.1597 79.8767 62.7677 80.3647 62.4797 80.9887C62.1917 81.5967 62.0477 82.3007 62.0477 83.1007V90.0127H59.3117ZM81.0177 96.4687C79.9457 96.4687 78.9537 96.3007 78.0417 95.9647C77.1457 95.6287 76.3697 95.1327 75.7137 94.4767C75.0577 93.8207 74.5617 93.0207 74.2257 92.0767L76.7217 91.0687C77.0897 91.9967 77.6657 92.7247 78.4497 93.2527C79.2337 93.7967 80.0897 94.0687 81.0177 94.0687C81.7697 94.0687 82.4257 93.9247 82.9857 93.6367C83.5617 93.3487 84.0097 92.9167 84.3297 92.3407C84.6497 91.7647 84.8097 91.0527 84.8097 90.2047V87.1327C84.4417 88.0767 83.8497 88.8207 83.0337 89.3647C82.2177 89.9087 81.2657 90.1807 80.1777 90.1807C79.0257 90.1807 77.9777 89.9007 77.0337 89.3407C76.1057 88.7647 75.3617 87.9727 74.8017 86.9647C74.2577 85.9407 73.9857 84.7487 73.9857 83.3887C73.9857 82.0287 74.2577 80.8447 74.8017 79.8367C75.3617 78.8127 76.1057 78.0207 77.0337 77.4607C77.9777 76.9007 79.0257 76.6207 80.1777 76.6207C81.2657 76.6207 82.2177 76.8927 83.0337 77.4367C83.8497 77.9647 84.4417 78.7007 84.8097 79.6447V76.7887H87.5697V90.1567C87.5697 91.0847 87.4177 91.9327 87.1137 92.7007C86.8257 93.4687 86.4017 94.1327 85.8417 94.6927C85.2817 95.2527 84.5937 95.6847 83.7777 95.9887C82.9777 96.3087 82.0577 96.4687 81.0177 96.4687ZM80.8017 87.8047C81.4897 87.8047 82.1377 87.6367 82.7457 87.3007C83.3537 86.9647 83.8497 86.4687 84.2337 85.8127C84.6177 85.1407 84.8097 84.3327 84.8097 83.3887C84.8097 82.4287 84.6177 81.6287 84.2337 80.9887C83.8497 80.3327 83.3537 79.8367 82.7457 79.5007C82.1377 79.1647 81.4897 78.9967 80.8017 78.9967C80.1297 78.9967 79.4817 79.1647 78.8577 79.5007C78.2497 79.8367 77.7537 80.3327 77.3697 80.9887C76.9857 81.6287 76.7937 82.4287 76.7937 83.3887C76.7937 84.3327 76.9857 85.1407 77.3697 85.8127C77.7537 86.4687 78.2497 86.9647 78.8577 87.3007C79.4817 87.6367 80.1297 87.8047 80.8017 87.8047ZM102.678 90.1807C101.526 90.1807 100.478 89.9007 99.5337 89.3407C98.6057 88.7647 97.8617 87.9727 97.3017 86.9647C96.7577 85.9407 96.4857 84.7487 96.4857 83.3887C96.4857 82.0287 96.7577 80.8447 97.3017 79.8367C97.8617 78.8127 98.6057 78.0207 99.5337 77.4607C100.478 76.9007 101.526 76.6207 102.678 76.6207C103.766 76.6207 104.718 76.8927 105.534 77.4367C106.35 77.9647 106.942 78.7007 107.31 79.6447V76.7887H110.07V90.0127H108.846C108.398 90.0127 108.03 89.8687 107.742 89.5807C107.454 89.2927 107.31 88.9247 107.31 88.4767V87.1327C106.942 88.0767 106.35 88.8207 105.534 89.3647C104.718 89.9087 103.766 90.1807 102.678 90.1807ZM103.302 87.8047C103.99 87.8047 104.638 87.6367 105.246 87.3007C105.854 86.9647 106.35 86.4687 106.734 85.8127C107.118 85.1407 107.31 84.3327 107.31 83.3887C107.31 82.4287 107.118 81.6287 106.734 80.9887C106.35 80.3327 105.854 79.8367 105.246 79.5007C104.638 79.1647 103.99 78.9967 103.302 78.9967C102.63 78.9967 101.982 79.1647 101.358 79.5007C100.75 79.8367 100.254 80.3327 99.8697 80.9887C99.4857 81.6287 99.2937 82.4287 99.2937 83.3887C99.2937 84.3327 99.4857 85.1407 99.8697 85.8127C100.254 86.4687 100.75 86.9647 101.358 87.3007C101.982 87.6367 102.63 87.8047 103.302 87.8047ZM113.663 90.0127V76.7887H116.399V79.5487C116.607 78.9887 116.935 78.4927 117.383 78.0607C117.831 77.6127 118.343 77.2607 118.919 77.0047C119.511 76.7487 120.103 76.6207 120.695 76.6207C121.703 76.6207 122.583 76.8447 123.335 77.2927C124.103 77.7247 124.695 78.3567 125.111 79.1887C125.543 80.0207 125.759 81.0287 125.759 82.2127V90.0127H123.047V82.8607C123.047 81.6607 122.743 80.7167 122.135 80.0287C121.527 79.3407 120.727 78.9967 119.735 78.9967C119.095 78.9967 118.519 79.1727 118.007 79.5247C117.511 79.8767 117.119 80.3647 116.831 80.9887C116.543 81.5967 116.399 82.3007 116.399 83.1007V90.0127H113.663ZM134.529 90.1807C133.377 90.1807 132.329 89.9007 131.385 89.3407C130.457 88.7647 129.713 87.9727 129.153 86.9647C128.609 85.9407 128.337 84.7487 128.337 83.3887C128.337 82.0287 128.609 80.8447 129.153 79.8367C129.713 78.8127 130.457 78.0207 131.385 77.4607C132.329 76.9007 133.377 76.6207 134.529 76.6207C135.617 76.6207 136.569 76.8927 137.385 77.4367C138.201 77.9647 138.793 78.7007 139.161 79.6447V72.2527H141.921V90.0127H140.697C140.249 90.0127 139.881 89.8687 139.593 89.5807C139.305 89.2927 139.161 88.9247 139.161 88.4767V87.1327C138.793 88.0767 138.201 88.8207 137.385 89.3647C136.569 89.9087 135.617 90.1807 134.529 90.1807ZM135.153 87.8047C135.841 87.8047 136.489 87.6367 137.097 87.3007C137.705 86.9647 138.201 86.4687 138.585 85.8127C138.969 85.1407 139.161 84.3327 139.161 83.3887C139.161 82.4287 138.969 81.6287 138.585 80.9887C138.201 80.3327 137.705 79.8367 137.097 79.5007C136.489 79.1647 135.841 78.9967 135.153 78.9967C134.481 78.9967 133.833 79.1647 133.209 79.5007C132.601 79.8367 132.105 80.3327 131.721 80.9887C131.337 81.6287 131.145 82.4287 131.145 83.3887C131.145 84.3327 131.337 85.1407 131.721 85.8127C132.105 86.4687 132.601 86.9647 133.209 87.3007C133.833 87.6367 134.481 87.8047 135.153 87.8047ZM156.333 90.1807C155.405 90.1807 154.573 90.0207 153.837 89.7007C153.101 89.3647 152.493 88.9167 152.013 88.3567C151.533 87.7967 151.205 87.1887 151.029 86.5327L153.645 85.9567C153.805 86.5487 154.125 87.0207 154.605 87.3727C155.101 87.7087 155.661 87.8767 156.285 87.8767C157.085 87.8767 157.685 87.7327 158.085 87.4447C158.501 87.1407 158.709 86.7647 158.709 86.3167C158.709 85.8847 158.525 85.5487 158.157 85.3087C157.789 85.0687 157.309 84.8687 156.717 84.7087C156.141 84.5487 155.525 84.3807 154.869 84.2047C154.213 84.0287 153.589 83.7967 152.997 83.5087C152.421 83.2207 151.949 82.8367 151.581 82.3567C151.213 81.8607 151.029 81.2127 151.029 80.4127C151.029 79.7087 151.237 79.0687 151.653 78.4927C152.069 77.9167 152.653 77.4607 153.405 77.1247C154.173 76.7887 155.077 76.6207 156.117 76.6207C157.013 76.6207 157.805 76.7647 158.493 77.0527C159.181 77.3407 159.749 77.7487 160.197 78.2767C160.645 78.7887 160.949 79.4047 161.109 80.1247L158.493 80.7967C158.333 80.1887 158.053 79.7247 157.653 79.4047C157.253 79.0847 156.709 78.9247 156.021 78.9247C155.285 78.9247 154.725 79.0607 154.341 79.3327C153.973 79.5887 153.789 79.9407 153.789 80.3887C153.789 80.8207 153.973 81.1647 154.341 81.4207C154.709 81.6607 155.181 81.8687 155.757 82.0447C156.333 82.2047 156.941 82.3727 157.581 82.5487C158.237 82.7247 158.853 82.9567 159.429 83.2447C160.005 83.5167 160.477 83.9007 160.845 84.3967C161.213 84.8767 161.397 85.5087 161.397 86.2927C161.397 86.9807 161.189 87.6207 160.773 88.2127C160.373 88.8047 159.789 89.2847 159.021 89.6527C158.269 90.0047 157.373 90.1807 156.333 90.1807ZM164.359 90.0127V72.2527H167.095V79.5487C167.303 78.9887 167.631 78.4927 168.079 78.0607C168.527 77.6127 169.039 77.2607 169.615 77.0047C170.207 76.7487 170.799 76.6207 171.391 76.6207C172.399 76.6207 173.279 76.8447 174.031 77.2927C174.799 77.7247 175.391 78.3567 175.807 79.1887C176.239 80.0207 176.455 81.0287 176.455 82.2127V90.0127H173.743V82.8607C173.743 81.6607 173.439 80.7167 172.831 80.0287C172.223 79.3407 171.423 78.9967 170.431 78.9967C169.791 78.9967 169.215 79.1727 168.703 79.5247C168.207 79.8767 167.815 80.3647 167.527 80.9887C167.239 81.5967 167.095 82.3007 167.095 83.1007V90.0127H164.359ZM185.225 90.1807C184.073 90.1807 183.025 89.9007 182.081 89.3407C181.153 88.7647 180.409 87.9727 179.849 86.9647C179.305 85.9407 179.033 84.7487 179.033 83.3887C179.033 82.0287 179.305 80.8447 179.849 79.8367C180.409 78.8127 181.153 78.0207 182.081 77.4607C183.025 76.9007 184.073 76.6207 185.225 76.6207C186.313 76.6207 187.265 76.8927 188.081 77.4367C188.897 77.9647 189.489 78.7007 189.857 79.6447V76.7887H192.617V90.0127H191.393C190.945 90.0127 190.577 89.8687 190.289 89.5807C190.001 89.2927 189.857 88.9247 189.857 88.4767V87.1327C189.489 88.0767 188.897 88.8207 188.081 89.3647C187.265 89.9087 186.313 90.1807 185.225 90.1807ZM185.849 87.8047C186.537 87.8047 187.185 87.6367 187.793 87.3007C188.401 86.9647 188.897 86.4687 189.281 85.8127C189.665 85.1407 189.857 84.3327 189.857 83.3887C189.857 82.4287 189.665 81.6287 189.281 80.9887C188.897 80.3327 188.401 79.8367 187.793 79.5007C187.185 79.1647 186.537 78.9967 185.849 78.9967C185.177 78.9967 184.529 79.1647 183.905 79.5007C183.297 79.8367 182.801 80.3327 182.417 80.9887C182.033 81.6287 181.841 82.4287 181.841 83.3887C181.841 84.3327 182.033 85.1407 182.417 85.8127C182.801 86.4687 183.297 86.9647 183.905 87.3007C184.529 87.6367 185.177 87.8047 185.849 87.8047ZM196.21 90.0127V76.7887H198.946V90.0127H196.21ZM198.154 83.3407L198.946 79.6927C199.266 78.7487 199.786 78.0047 200.506 77.4607C201.242 76.9007 202.074 76.6207 203.002 76.6207V79.4527C202.874 79.4207 202.746 79.4047 202.618 79.4047C202.506 79.3887 202.386 79.3807 202.258 79.3807C201.602 79.3807 201.026 79.5327 200.53 79.8367C200.034 80.1247 199.642 80.5647 199.354 81.1567C199.082 81.7327 198.946 82.4607 198.946 83.3407H198.154ZM205.587 90.0127V76.7887H208.323V90.0127H205.587ZM206.979 75.0367C206.403 75.0367 205.915 74.8527 205.515 74.4847C205.115 74.1167 204.915 73.6607 204.915 73.1167C204.915 72.5727 205.115 72.1167 205.515 71.7487C205.915 71.3647 206.403 71.1727 206.979 71.1727C207.539 71.1727 208.019 71.3647 208.419 71.7487C208.835 72.1167 209.043 72.5727 209.043 73.1167C209.043 73.6607 208.835 74.1167 208.419 74.4847C208.019 74.8527 207.539 75.0367 206.979 75.0367ZM212.054 90.0127V76.7887H214.79V79.5487C214.998 78.9887 215.326 78.4927 215.774 78.0607C216.222 77.6127 216.734 77.2607 217.31 77.0047C217.902 76.7487 218.494 76.6207 219.086 76.6207C220.094 76.6207 220.974 76.8447 221.726 77.2927C222.494 77.7247 223.086 78.3567 223.502 79.1887C223.934 80.0207 224.15 81.0287 224.15 82.2127V90.0127H221.438V82.8607C221.438 81.6607 221.134 80.7167 220.526 80.0287C219.918 79.3407 219.118 78.9967 218.126 78.9967C217.486 78.9967 216.91 79.1727 216.398 79.5247C215.902 79.8767 215.51 80.3647 215.222 80.9887C214.934 81.5967 214.79 82.3007 214.79 83.1007V90.0127H212.054ZM233.76 96.4687C232.688 96.4687 231.696 96.3007 230.784 95.9647C229.888 95.6287 229.112 95.1327 228.456 94.4767C227.8 93.8207 227.304 93.0207 226.968 92.0767L229.464 91.0687C229.832 91.9967 230.408 92.7247 231.192 93.2527C231.976 93.7967 232.832 94.0687 233.76 94.0687C234.512 94.0687 235.168 93.9247 235.728 93.6367C236.304 93.3487 236.752 92.9167 237.072 92.3407C237.392 91.7647 237.552 91.0527 237.552 90.2047V87.1327C237.184 88.0767 236.592 88.8207 235.776 89.3647C234.96 89.9087 234.008 90.1807 232.92 90.1807C231.768 90.1807 230.72 89.9007 229.776 89.3407C228.848 88.7647 228.104 87.9727 227.544 86.9647C227 85.9407 226.728 84.7487 226.728 83.3887C226.728 82.0287 227 80.8447 227.544 79.8367C228.104 78.8127 228.848 78.0207 229.776 77.4607C230.72 76.9007 231.768 76.6207 232.92 76.6207C234.008 76.6207 234.96 76.8927 235.776 77.4367C236.592 77.9647 237.184 78.7007 237.552 79.6447V76.7887H240.312V90.1567C240.312 91.0847 240.16 91.9327 239.856 92.7007C239.568 93.4687 239.144 94.1327 238.584 94.6927C238.024 95.2527 237.336 95.6847 236.52 95.9887C235.72 96.3087 234.8 96.4687 233.76 96.4687ZM233.544 87.8047C234.232 87.8047 234.88 87.6367 235.488 87.3007C236.096 86.9647 236.592 86.4687 236.976 85.8127C237.36 85.1407 237.552 84.3327 237.552 83.3887C237.552 82.4287 237.36 81.6287 236.976 80.9887C236.592 80.3327 236.096 79.8367 235.488 79.5007C234.88 79.1647 234.232 78.9967 233.544 78.9967C232.872 78.9967 232.224 79.1647 231.6 79.5007C230.992 79.8367 230.496 80.3327 230.112 80.9887C229.728 81.6287 229.536 82.4287 229.536 83.3887C229.536 84.3327 229.728 85.1407 230.112 85.8127C230.496 86.4687 230.992 86.9647 231.6 87.3007C232.224 87.6367 232.872 87.8047 233.544 87.8047ZM256.26 96.4687C255.188 96.4687 254.196 96.3007 253.284 95.9647C252.388 95.6287 251.612 95.1327 250.956 94.4767C250.3 93.8207 249.804 93.0207 249.468 92.0767L251.964 91.0687C252.332 91.9967 252.908 92.7247 253.692 93.2527C254.476 93.7967 255.332 94.0687 256.26 94.0687C257.012 94.0687 257.668 93.9247 258.228 93.6367C258.804 93.3487 259.252 92.9167 259.572 92.3407C259.892 91.7647 260.052 91.0527 260.052 90.2047V87.1327C259.684 88.0767 259.092 88.8207 258.276 89.3647C257.46 89.9087 256.508 90.1807 255.42 90.1807C254.268 90.1807 253.22 89.9007 252.276 89.3407C251.348 88.7647 250.604 87.9727 250.044 86.9647C249.5 85.9407 249.228 84.7487 249.228 83.3887C249.228 82.0287 249.5 80.8447 250.044 79.8367C250.604 78.8127 251.348 78.0207 252.276 77.4607C253.22 76.9007 254.268 76.6207 255.42 76.6207C256.508 76.6207 257.46 76.8927 258.276 77.4367C259.092 77.9647 259.684 78.7007 260.052 79.6447V76.7887H262.812V90.1567C262.812 91.0847 262.66 91.9327 262.356 92.7007C262.068 93.4687 261.644 94.1327 261.084 94.6927C260.524 95.2527 259.836 95.6847 259.02 95.9887C258.22 96.3087 257.3 96.4687 256.26 96.4687ZM256.044 87.8047C256.732 87.8047 257.38 87.6367 257.988 87.3007C258.596 86.9647 259.092 86.4687 259.476 85.8127C259.86 85.1407 260.052 84.3327 260.052 83.3887C260.052 82.4287 259.86 81.6287 259.476 80.9887C259.092 80.3327 258.596 79.8367 257.988 79.5007C257.38 79.1647 256.732 78.9967 256.044 78.9967C255.372 78.9967 254.724 79.1647 254.1 79.5007C253.492 79.8367 252.996 80.3327 252.612 80.9887C252.228 81.6287 252.036 82.4287 252.036 83.3887C252.036 84.3327 252.228 85.1407 252.612 85.8127C252.996 86.4687 253.492 86.9647 254.1 87.3007C254.724 87.6367 255.372 87.8047 256.044 87.8047ZM266.477 90.0127V76.7887H269.213V90.0127H266.477ZM267.869 75.0367C267.293 75.0367 266.805 74.8527 266.405 74.4847C266.005 74.1167 265.805 73.6607 265.805 73.1167C265.805 72.5727 266.005 72.1167 266.405 71.7487C266.805 71.3647 267.293 71.1727 267.869 71.1727C268.429 71.1727 268.909 71.3647 269.309 71.7487C269.725 72.1167 269.933 72.5727 269.933 73.1167C269.933 73.6607 269.725 74.1167 269.309 74.4847C268.909 74.8527 268.429 75.0367 267.869 75.0367ZM273.281 90.0127V79.0207H271.721V76.7887H273.281V75.8527C273.281 75.0847 273.377 74.4287 273.569 73.8847C273.777 73.3407 274.081 72.8927 274.481 72.5407C274.897 72.1727 275.417 71.9087 276.041 71.7487C276.681 71.5727 277.433 71.4847 278.297 71.4847V73.7647C277.753 73.7647 277.313 73.8367 276.977 73.9807C276.641 74.1087 276.401 74.3247 276.257 74.6287C276.113 74.9327 276.041 75.3407 276.041 75.8527V76.7887H278.489V79.0207H276.041V90.0127H273.281ZM285.353 90.1807C284.345 90.1807 283.505 89.8367 282.833 89.1487C282.161 88.4607 281.825 87.5247 281.825 86.3407V79.0207H279.785V76.7887H287.801V79.0207H284.585V86.5087C284.585 86.9567 284.697 87.2767 284.921 87.4687C285.161 87.6607 285.417 87.7567 285.689 87.7567C285.929 87.7567 286.145 87.7167 286.337 87.6367C286.529 87.5567 286.713 87.4287 286.889 87.2527L288.305 88.9567C287.857 89.3887 287.401 89.7007 286.937 89.8927C286.473 90.0847 285.945 90.1807 285.353 90.1807ZM280.769 77.8207V76.7887C281.105 76.7887 281.361 76.6927 281.537 76.5007C281.729 76.3087 281.825 76.0447 281.825 75.7087V73.5007H284.585V75.2527C284.585 75.4767 284.529 75.7007 284.417 75.9247C284.305 76.1327 284.145 76.3167 283.937 76.4767C283.745 76.6207 283.529 76.7247 283.289 76.7887L280.769 77.8207ZM295.411 90.1807C294.483 90.1807 293.651 90.0207 292.915 89.7007C292.179 89.3647 291.571 88.9167 291.091 88.3567C290.611 87.7967 290.283 87.1887 290.107 86.5327L292.723 85.9567C292.883 86.5487 293.203 87.0207 293.683 87.3727C294.179 87.7087 294.739 87.8767 295.363 87.8767C296.163 87.8767 296.763 87.7327 297.163 87.4447C297.579 87.1407 297.787 86.7647 297.787 86.3167C297.787 85.8847 297.603 85.5487 297.235 85.3087C296.867 85.0687 296.387 84.8687 295.795 84.7087C295.219 84.5487 294.603 84.3807 293.947 84.2047C293.291 84.0287 292.667 83.7967 292.075 83.5087C291.499 83.2207 291.027 82.8367 290.659 82.3567C290.291 81.8607 290.107 81.2127 290.107 80.4127C290.107 79.7087 290.315 79.0687 290.731 78.4927C291.147 77.9167 291.731 77.4607 292.483 77.1247C293.251 76.7887 294.155 76.6207 295.195 76.6207C296.091 76.6207 296.883 76.7647 297.571 77.0527C298.259 77.3407 298.827 77.7487 299.275 78.2767C299.723 78.7887 300.027 79.4047 300.187 80.1247L297.571 80.7967C297.411 80.1887 297.131 79.7247 296.731 79.4047C296.331 79.0847 295.787 78.9247 295.099 78.9247C294.363 78.9247 293.803 79.0607 293.419 79.3327C293.051 79.5887 292.867 79.9407 292.867 80.3887C292.867 80.8207 293.051 81.1647 293.419 81.4207C293.787 81.6607 294.259 81.8687 294.835 82.0447C295.411 82.2047 296.019 82.3727 296.659 82.5487C297.315 82.7247 297.931 82.9567 298.507 83.2447C299.083 83.5167 299.555 83.9007 299.923 84.3967C300.291 84.8767 300.475 85.5087 300.475 86.2927C300.475 86.9807 300.267 87.6207 299.851 88.2127C299.451 88.8047 298.867 89.2847 298.099 89.6527C297.347 90.0047 296.451 90.1807 295.411 90.1807ZM309.743 90.0127V76.7887H312.479V90.0127H309.743ZM311.135 75.0367C310.559 75.0367 310.071 74.8527 309.671 74.4847C309.271 74.1167 309.071 73.6607 309.071 73.1167C309.071 72.5727 309.271 72.1167 309.671 71.7487C310.071 71.3647 310.559 71.1727 311.135 71.1727C311.695 71.1727 312.175 71.3647 312.575 71.7487C312.991 72.1167 313.199 72.5727 313.199 73.1167C313.199 73.6607 312.991 74.1167 312.575 74.4847C312.175 74.8527 311.695 75.0367 311.135 75.0367ZM321.49 90.1807C320.338 90.1807 319.29 89.9007 318.346 89.3407C317.418 88.7647 316.674 87.9727 316.114 86.9647C315.57 85.9407 315.298 84.7487 315.298 83.3887C315.298 82.0287 315.57 80.8447 316.114 79.8367C316.674 78.8127 317.418 78.0207 318.346 77.4607C319.29 76.9007 320.338 76.6207 321.49 76.6207C322.578 76.6207 323.53 76.8927 324.346 77.4367C325.162 77.9647 325.754 78.7007 326.122 79.6447V72.2527H328.882V90.0127H327.658C327.21 90.0127 326.842 89.8687 326.554 89.5807C326.266 89.2927 326.122 88.9247 326.122 88.4767V87.1327C325.754 88.0767 325.162 88.8207 324.346 89.3647C323.53 89.9087 322.578 90.1807 321.49 90.1807ZM322.114 87.8047C322.802 87.8047 323.45 87.6367 324.058 87.3007C324.666 86.9647 325.162 86.4687 325.546 85.8127C325.93 85.1407 326.122 84.3327 326.122 83.3887C326.122 82.4287 325.93 81.6287 325.546 80.9887C325.162 80.3327 324.666 79.8367 324.058 79.5007C323.45 79.1647 322.802 78.9967 322.114 78.9967C321.442 78.9967 320.794 79.1647 320.17 79.5007C319.562 79.8367 319.066 80.3327 318.682 80.9887C318.298 81.6287 318.106 82.4287 318.106 83.3887C318.106 84.3327 318.298 85.1407 318.682 85.8127C319.066 86.4687 319.562 86.9647 320.17 87.3007C320.794 87.6367 321.442 87.8047 322.114 87.8047ZM338.62 90.1807C337.548 90.1807 336.572 90.0127 335.692 89.6767C334.828 89.3407 334.084 88.8687 333.46 88.2607C332.852 87.6527 332.38 86.9487 332.044 86.1487C331.724 85.3327 331.564 84.4447 331.564 83.4847C331.564 82.4447 331.748 81.5087 332.116 80.6767C332.5 79.8287 333.012 79.1007 333.652 78.4927C334.308 77.8847 335.06 77.4207 335.908 77.1007C336.756 76.7807 337.644 76.6207 338.572 76.6207C339.404 76.6207 340.164 76.7327 340.852 76.9567C341.54 77.1807 342.132 77.4927 342.628 77.8927C343.14 78.2927 343.532 78.7567 343.804 79.2847C344.076 79.8127 344.212 80.3807 344.212 80.9887C344.212 81.8367 343.964 82.5407 343.468 83.1007C342.972 83.6607 342.324 84.1007 341.524 84.4207C340.724 84.7407 339.844 84.9567 338.884 85.0687C337.924 85.1807 336.972 85.2127 336.028 85.1647C335.868 85.1487 335.668 85.1407 335.428 85.1407C335.188 85.1247 334.972 85.1167 334.78 85.1167C334.604 85.1007 334.508 85.0927 334.492 85.0927C334.604 85.6207 334.852 86.1007 335.236 86.5327C335.636 86.9487 336.132 87.2767 336.724 87.5167C337.316 87.7567 337.948 87.8767 338.62 87.8767C339.164 87.8767 339.7 87.7807 340.228 87.5887C340.772 87.3967 341.268 87.1327 341.716 86.7967C342.164 86.4607 342.54 86.0767 342.844 85.6447L344.884 87.1087C344.356 87.8127 343.756 88.3967 343.084 88.8607C342.428 89.3087 341.724 89.6447 340.972 89.8687C340.22 90.0767 339.436 90.1807 338.62 90.1807ZM336.268 82.9807C336.86 82.9807 337.46 82.9567 338.068 82.9087C338.676 82.8447 339.236 82.7407 339.748 82.5967C340.276 82.4367 340.7 82.2207 341.02 81.9487C341.34 81.6767 341.5 81.3247 341.5 80.8927C341.5 80.5247 341.38 80.1967 341.14 79.9087C340.916 79.6047 340.596 79.3647 340.18 79.1887C339.764 79.0127 339.276 78.9247 338.716 78.9247C337.884 78.9247 337.14 79.1087 336.484 79.4767C335.828 79.8447 335.308 80.3327 334.924 80.9407C334.556 81.5487 334.356 82.2047 334.324 82.9087C334.548 82.9247 334.828 82.9407 335.164 82.9567C335.5 82.9727 335.868 82.9807 336.268 82.9807ZM352.615 90.1807C351.463 90.1807 350.415 89.9007 349.471 89.3407C348.543 88.7647 347.799 87.9727 347.239 86.9647C346.695 85.9407 346.423 84.7487 346.423 83.3887C346.423 82.0287 346.695 80.8447 347.239 79.8367C347.799 78.8127 348.543 78.0207 349.471 77.4607C350.415 76.9007 351.463 76.6207 352.615 76.6207C353.703 76.6207 354.655 76.8927 355.471 77.4367C356.287 77.9647 356.879 78.7007 357.247 79.6447V76.7887H360.007V90.0127H358.783C358.335 90.0127 357.967 89.8687 357.679 89.5807C357.391 89.2927 357.247 88.9247 357.247 88.4767V87.1327C356.879 88.0767 356.287 88.8207 355.471 89.3647C354.655 89.9087 353.703 90.1807 352.615 90.1807ZM353.239 87.8047C353.927 87.8047 354.575 87.6367 355.183 87.3007C355.791 86.9647 356.287 86.4687 356.671 85.8127C357.055 85.1407 357.247 84.3327 357.247 83.3887C357.247 82.4287 357.055 81.6287 356.671 80.9887C356.287 80.3327 355.791 79.8367 355.183 79.5007C354.575 79.1647 353.927 78.9967 353.239 78.9967C352.567 78.9967 351.919 79.1647 351.295 79.5007C350.687 79.8367 350.191 80.3327 349.807 80.9887C349.423 81.6287 349.231 82.4287 349.231 83.3887C349.231 84.3327 349.423 85.1407 349.807 85.8127C350.191 86.4687 350.687 86.9647 351.295 87.3007C351.919 87.6367 352.567 87.8047 353.239 87.8047ZM368.185 90.1807C367.257 90.1807 366.425 90.0207 365.689 89.7007C364.953 89.3647 364.345 88.9167 363.865 88.3567C363.385 87.7967 363.057 87.1887 362.881 86.5327L365.497 85.9567C365.657 86.5487 365.977 87.0207 366.457 87.3727C366.953 87.7087 367.513 87.8767 368.137 87.8767C368.937 87.8767 369.537 87.7327 369.937 87.4447C370.353 87.1407 370.561 86.7647 370.561 86.3167C370.561 85.8847 370.377 85.5487 370.009 85.3087C369.641 85.0687 369.161 84.8687 368.569 84.7087C367.993 84.5487 367.377 84.3807 366.721 84.2047C366.065 84.0287 365.441 83.7967 364.849 83.5087C364.273 83.2207 363.801 82.8367 363.433 82.3567C363.065 81.8607 362.881 81.2127 362.881 80.4127C362.881 79.7087 363.089 79.0687 363.505 78.4927C363.921 77.9167 364.505 77.4607 365.257 77.1247C366.025 76.7887 366.929 76.6207 367.969 76.6207C368.865 76.6207 369.657 76.7647 370.345 77.0527C371.033 77.3407 371.601 77.7487 372.049 78.2767C372.497 78.7887 372.801 79.4047 372.961 80.1247L370.345 80.7967C370.185 80.1887 369.905 79.7247 369.505 79.4047C369.105 79.0847 368.561 78.9247 367.873 78.9247C367.137 78.9247 366.577 79.0607 366.193 79.3327C365.825 79.5887 365.641 79.9407 365.641 80.3887C365.641 80.8207 365.825 81.1647 366.193 81.4207C366.561 81.6607 367.033 81.8687 367.609 82.0447C368.185 82.2047 368.793 82.3727 369.433 82.5487C370.089 82.7247 370.705 82.9567 371.281 83.2447C371.857 83.5167 372.329 83.9007 372.697 84.3967C373.065 84.8767 373.249 85.5087 373.249 86.2927C373.249 86.9807 373.041 87.6207 372.625 88.2127C372.225 88.8047 371.641 89.2847 370.873 89.6527C370.121 90.0047 369.225 90.1807 368.185 90.1807Z" fill="#212121"/>
</svg>
