<svg width="47" height="59" viewBox="0 0 47 59" fill="none" xmlns="http://www.w3.org/2000/svg">
<g clip-path="url(#clip0_288_1588)">
<path d="M38.3251 25.0625L32.2458 29.9118L31.0399 30.8805L23.3086 37.0453L15.4891 30.842L14.2722 29.8732L8.20938 25.0625H0.257812V58.8917H8.24242V35.35L12.857 38.7901L14.2997 39.8635L21.3922 45.1476H25.2304L32.1632 39.9791L33.6004 38.9112L38.3802 35.35V58.8917H46.3593V25.0625H38.3251Z" fill="#212121"/>
<path d="M23.2868 24.8906L23.0375 25.4262L22.7883 24.8906L13.3633 29.3469V59.0939H14.7972V30.2672L23.0375 26.3696L31.2796 30.2672V59.0939H32.7118V29.3469L23.2868 24.8906Z" fill="#997700"/>
<path d="M22.2798 25.7002C21.8674 23.7779 19.3891 23.0864 17.204 22.4764C16.4423 22.2636 15.7227 22.0614 15.1207 21.8149C12.6495 20.8059 9.84827 19.6621 8.27568 16.9171C7.25069 15.1278 7.25244 12.8084 8.27744 11.0102C9.20239 9.39123 10.7645 8.48863 12.6126 8.5897C16.0017 8.75994 18.731 11.7107 20.953 17.6087C21.5672 19.2401 22.1447 20.9017 22.6677 22.5455C22.759 22.831 22.8994 23.1449 23.0433 23.4694C23.3382 24.1344 23.6418 24.8242 23.6927 25.4892L22.2781 25.6984L22.2798 25.7002ZM12.3546 10.0314C10.7329 10.0314 9.88337 11.0989 9.52006 11.7355C8.7443 13.0921 8.74254 14.8423 9.51655 16.1918C10.8434 18.5077 13.2918 19.5061 15.6595 20.4743C16.1843 20.6889 16.8653 20.8786 17.5866 21.0808C18.7275 21.3982 19.9982 21.7546 21.0899 22.3221C20.6318 20.9212 20.1368 19.5132 19.6155 18.1247C17.6182 12.8208 15.305 10.175 12.5424 10.0349L12.3563 10.0296L12.3546 10.0314Z" fill="#997700"/>
<path d="M24.0631 25.7016L22.6484 25.4924C22.6993 24.8256 23.0047 24.1358 23.2996 23.469C23.4418 23.1463 23.5822 22.8342 23.6734 22.5487C24.2035 20.8889 24.7809 19.2273 25.3882 17.6119C27.6102 11.7139 30.3394 8.76313 33.7285 8.59289C35.5679 8.49714 37.1405 9.39442 38.0655 11.017C39.0905 12.8151 39.0905 15.131 38.0655 16.9203C36.4894 19.6689 33.6899 20.8109 31.2205 21.8181C30.6185 22.0646 29.8989 22.265 29.1371 22.4778C26.952 23.0896 24.4738 23.7811 24.0596 25.7034L24.0631 25.7016ZM33.9866 10.0328L33.8005 10.0381C31.0397 10.1764 28.7264 12.824 26.7291 18.1279C26.2113 19.5022 25.7164 20.912 25.2548 22.3235C26.3465 21.756 27.6172 21.3996 28.758 21.0822C29.4794 20.88 30.1604 20.6903 30.6852 20.4757C33.0511 19.5093 35.4977 18.5109 36.8263 16.1932C37.6004 14.8455 37.6004 13.0953 36.8246 11.7387C36.463 11.1003 35.61 10.0328 33.9866 10.0328Z" fill="#997700"/>
</g>
<defs>
<clipPath id="clip0_288_1588">
<rect width="46.3603" height="58.8901" fill="white"/>
</clipPath>
</defs>
</svg>
