<svg width="47" height="51" viewBox="0 0 47 51" fill="none" xmlns="http://www.w3.org/2000/svg">
<path d="M38.0673 16.4805L31.988 21.3297L30.782 22.2985L23.0507 28.4633L15.2313 22.2599L14.0144 21.2912L7.95157 16.4805H0V50.3097H7.98461V26.7679L12.5992 30.2081L14.0419 31.2814L21.1344 36.5655H24.9726L31.9054 31.397L33.3426 30.3292L38.1224 26.7679V50.3097H46.1015V16.4805H38.0673Z" fill="#212121"/>
<path d="M23.029 16.3086L22.7797 16.8441L22.5305 16.3086L13.1055 20.7649V50.5118H14.5394V21.6852L22.7797 17.7875L31.0218 21.6852V50.5118H32.454V20.7649L23.029 16.3086Z" fill="#997700"/>
<path d="M22.022 17.1182C21.6096 15.1959 19.1313 14.5043 16.9462 13.8943C16.1845 13.6815 15.4649 13.4794 14.8629 13.2329C12.3916 12.2239 9.59046 11.0801 8.01787 8.33505C6.99287 6.5458 6.99463 4.22633 8.01962 2.42822C8.94458 0.8092 10.5066 -0.0934062 12.3548 0.00767147C15.7439 0.177907 18.4732 3.12867 20.6951 9.02664C21.3094 10.6581 21.8869 12.3196 22.4099 13.9635C22.5012 14.249 22.6416 14.5629 22.7855 14.8874C23.0804 15.5523 23.384 16.2422 23.4349 16.9071L22.0203 17.1164L22.022 17.1182ZM12.0968 1.44936C10.475 1.44936 9.62556 2.51688 9.26225 3.15349C8.48648 4.51006 8.48473 6.2603 9.25874 7.60977C10.5856 9.92569 13.034 10.9241 15.4017 11.8923C15.9265 12.1068 16.6075 12.2966 17.3288 12.4987C18.4696 12.8162 19.7404 13.1726 20.832 13.74C20.374 12.3391 19.879 10.9312 19.3577 9.54266C17.3604 4.23875 15.0471 1.59299 12.2846 1.4529L12.0985 1.44758L12.0968 1.44936Z" fill="#997700"/>
<path d="M23.8053 17.1196L22.3906 16.9103C22.4415 16.2436 22.7469 15.5538 23.0418 14.887C23.1839 14.5643 23.3244 14.2522 23.4156 13.9667C23.9457 12.3069 24.5231 10.6453 25.1304 9.02982C27.3524 3.13186 30.0816 0.181098 33.4707 0.0108619C35.3101 -0.0848959 36.8827 0.812391 37.8076 2.43495C38.8326 4.23307 38.8326 6.54899 37.8076 8.33824C36.2315 11.0868 33.4321 12.2288 30.9627 13.2361C30.3607 13.4826 29.641 13.6829 28.8793 13.8957C26.6942 14.5075 24.216 15.1991 23.8017 17.1214L23.8053 17.1196ZM33.7287 1.45078L33.5427 1.45609C30.7819 1.59441 28.4686 4.24194 26.4713 9.54585C25.9535 10.9202 25.4586 12.3299 24.997 13.7415C26.0887 13.174 27.3594 12.8176 28.5002 12.5002C29.2216 12.298 29.9026 12.1083 30.4273 11.8937C32.7933 10.9272 35.2399 9.92888 36.5685 7.61119C37.3425 6.26349 37.3425 4.51325 36.5668 3.15668C36.2052 2.5183 35.3522 1.45078 33.7287 1.45078Z" fill="#997700"/>
</svg>
