<svg width="106" height="58" viewBox="0 0 106 58" fill="none" xmlns="http://www.w3.org/2000/svg">
<g clip-path="url(#clip0_5_203)">
<path d="M30.5334 40.072L32.7194 40.4192L31.721 46.8377C31.9898 46.5405 32.319 46.2989 32.7112 46.0878C33.3695 45.7407 34.313 45.4351 35.6022 45.6407C38.2243 46.0601 40.158 48.7486 39.6616 51.9592C39.1624 55.1699 36.5073 57.1279 33.8824 56.7085C32.5933 56.503 31.7869 55.9197 31.2657 55.3837C30.9585 55.0615 30.7172 54.7282 30.5499 54.3616L30.3085 55.9114L28.1224 55.5642L30.5334 40.072ZM37.4755 51.612C37.7882 49.5984 36.5869 47.9542 34.8397 47.6765C33.0897 47.3987 31.4495 48.5875 31.1368 50.6011C30.8241 52.6147 32.0255 54.2589 33.7727 54.5366C35.5226 54.8171 37.1629 53.6256 37.4755 51.612Z" fill="white"/>
<path d="M47.6789 46.81C50.7728 46.9488 53.096 49.5207 52.9589 52.6536C52.8217 55.7864 50.2818 58.1389 47.1852 58C44.0912 57.8611 41.768 55.2893 41.9052 52.1536C42.0423 49.0235 44.5822 46.6711 47.6789 46.81ZM50.7481 52.5564C50.8386 50.5205 49.4645 49.0207 47.5856 48.9374C45.7068 48.8541 44.2064 50.2206 44.1187 52.2592C44.0282 54.295 45.4023 55.7948 47.2812 55.8781C49.16 55.9614 50.6576 54.5922 50.7481 52.5564Z" fill="white"/>
<path d="M60.3756 46.6989C63.4668 46.5072 66.0478 48.8152 66.2371 51.9453C66.4263 55.0782 64.147 57.689 61.0558 57.8806C57.9619 58.0722 55.3836 55.7642 55.1944 52.6341C55.0024 49.504 57.2844 46.8905 60.3756 46.6989ZM64.0291 52.0842C63.9057 50.0484 62.3834 48.7069 60.5045 48.8236C58.6257 48.9402 57.2789 50.4622 57.4024 52.498C57.5258 54.5338 59.0481 55.8753 60.9269 55.7587C62.8058 55.6392 64.1525 54.12 64.0291 52.0842Z" fill="white"/>
<path d="M67.5289 41.3746L69.7122 41.0024L71.3278 50.726L74.995 45.1019L77.7213 44.638L74.3998 49.6345L79.8114 55.1893L77.3017 55.617L73.2395 51.4232L71.805 53.5979L72.2823 56.4697L70.099 56.8418L67.5289 41.3746Z" fill="white"/>
<path d="M3.29141 23.5522C3.77416 24.2188 4.38855 24.7965 5.13461 25.3297C6.40729 26.2185 8.33825 27.1072 10.9714 27.1072C14.965 27.1072 17.1154 24.9298 17.1154 22.4412C17.1154 15.5533 0.877711 19.775 0.877711 8.22106C0.877711 3.55506 4.87129 -0.444366 11.4102 -0.444366C14.57 -0.444366 16.9837 0.533271 18.6075 1.55535C19.5729 2.13304 20.4068 2.79961 21.0651 3.55506L17.7736 6.88791C17.2909 6.35466 16.7643 5.86584 16.1499 5.4659C15.0966 4.75489 13.4729 3.99944 11.4102 3.99944C7.67997 3.99944 5.70512 5.95471 5.70512 8.22106C5.70512 15.109 21.9428 10.8873 21.9428 22.4412C21.9428 27.3294 17.7736 31.551 10.9714 31.551C7.24111 31.551 4.47632 30.4401 2.67702 29.2403C1.62376 28.5737 0.746054 27.7738 0 26.885L3.29141 23.5522Z" fill="white"/>
<path d="M90.6208 0H95.0094V31.1066H90.6208V0Z" fill="white"/>
<path d="M101.592 0H105.981V31.1066H101.592V0Z" fill="white"/>
<path d="M74.6054 6.88512C70.8751 6.88512 68.0226 4.04109 68.0226 -0.0027771H63.634C63.634 6.21855 68.4614 11.1067 74.6054 11.1067C80.7494 11.1067 85.5768 6.21855 85.5768 -0.0027771H81.1882C81.1882 4.04109 78.3357 6.88512 74.6054 6.88512Z" fill="white"/>
<path d="M74.6054 24.2187C78.3357 24.2187 81.1882 27.0628 81.1882 31.1066H85.5768C85.5768 24.8853 80.7494 19.9971 74.6054 19.9971C68.4614 19.9971 63.634 24.8853 63.634 31.1066H68.0226C68.0226 27.0628 70.8751 24.2187 74.6054 24.2187Z" fill="white"/>
<path d="M53.9793 30.9956C53.9793 27.2183 56.6563 24.5521 59.6844 24.5521C60.1671 24.5521 60.5182 24.6409 60.8693 24.6854L61.4398 24.7742V20.1082H60.3427C58.2361 20.1082 56.6563 20.9526 55.603 21.7969C54.9886 22.2857 54.462 22.8634 53.9793 23.4411V20.5526H49.5907V30.9956H53.9793Z" fill="white"/>
<path d="M53.9793 0H49.5907V10.8873H53.9793V0Z" fill="white"/>
<path d="M29.8422 30.9956C29.8422 26.9517 32.6947 24.1077 36.425 24.1077C38.3121 24.1077 39.6725 24.8631 40.6819 25.5741C41.2524 25.9741 41.7351 26.4629 42.1301 26.9961L45.2021 24.1077C44.6316 23.3522 43.8855 22.6412 43.0517 22.0191C41.6035 20.9526 39.4092 19.886 36.425 19.886C30.281 19.886 25.4536 24.7742 25.4536 30.9956H29.8422Z" fill="white"/>
<path d="M40.7697 5.33257C39.7603 6.17689 38.3121 6.8879 36.425 6.8879C32.6947 6.8879 29.8422 4.04386 29.8422 0H25.4536C25.4536 6.22133 30.281 11.1095 36.425 11.1095C39.4092 11.1095 41.6035 9.99856 43.1395 8.88761C44.0172 8.22104 44.7632 7.51003 45.4215 6.66571L42.3495 3.77724C41.8668 4.35493 41.3402 4.88819 40.7697 5.33257Z" fill="white"/>
</g>
<defs>
<clipPath id="clip0_5_203">
<rect width="106" height="58" fill="white"/>
</clipPath>
</defs>
</svg>
