<svg width="64" height="63" viewBox="0 0 64 63" fill="none" xmlns="http://www.w3.org/2000/svg">
<ellipse cx="31.6889" cy="31.0208" rx="31.6889" ry="31.0208" fill="#212121"/>
<path d="M29.1691 18.1328C27.6093 18.1337 26.0715 18.5122 24.6792 19.2378C23.2869 19.9635 22.0789 21.0162 21.1525 22.3112C20.226 23.6062 19.6069 25.1074 19.3449 26.6942C19.0828 28.2811 19.1851 29.9092 19.6436 31.4478C20.1021 32.9864 20.904 34.3925 21.9847 35.5531C23.0655 36.7138 24.3951 37.5966 25.8666 38.1306C27.338 38.6646 28.9104 38.8349 30.4572 38.6278C32.0041 38.4207 33.4823 37.8421 34.773 36.9383L40.9353 43.2925C41.1064 43.4821 41.3128 43.6341 41.5422 43.7396C41.7715 43.845 42.0191 43.9017 42.2701 43.9063C42.5212 43.9109 42.7705 43.8632 43.0033 43.7662C43.2361 43.6691 43.4476 43.5247 43.6251 43.3415C43.8027 43.1583 43.9426 42.94 44.0367 42.6998C44.1307 42.4595 44.1769 42.2022 44.1724 41.9431C44.168 41.6841 44.1131 41.4286 44.0109 41.1919C43.9087 40.9552 43.7614 40.7422 43.5777 40.5656L37.4204 34.2062C38.439 32.659 39.0298 30.8545 39.1291 28.9868C39.2284 27.1191 38.8325 25.2588 37.984 23.6058C37.1354 21.9529 35.8664 20.57 34.3133 19.6056C32.7601 18.6413 30.9817 18.1321 29.1691 18.1328ZM22.937 28.4231C22.937 26.7174 23.5936 25.0815 24.7624 23.8754C25.9311 22.6693 27.5163 21.9917 29.1691 21.9917C30.822 21.9917 32.4071 22.6693 33.5759 23.8754C34.7446 25.0815 35.4012 26.7174 35.4012 28.4231C35.4012 30.1288 34.7446 31.7646 33.5759 32.9708C32.4071 34.1769 30.822 34.8545 29.1691 34.8545C27.5163 34.8545 25.9311 34.1769 24.7624 32.9708C23.5936 31.7646 22.937 30.1288 22.937 28.4231Z" fill="white"/>
</svg>
