<svg width="133" height="73" viewBox="0 0 133 73" fill="none" xmlns="http://www.w3.org/2000/svg">
<path d="M62.6236 72.5697C60.8751 64.4207 50.369 61.4888 41.1054 58.9027C37.8762 58.0006 34.8256 57.1436 32.2735 56.0987C21.7972 51.8212 9.922 46.9723 3.25525 35.3351C-1.09005 27.7499 -1.0826 17.9169 3.2627 10.294C7.18388 3.43047 13.806 -0.39598 21.6409 0.032522C36.0087 0.75421 47.5788 13.2635 56.9985 38.267C59.6027 45.1831 62.0507 52.2271 64.268 59.1959C64.6549 60.4063 65.2501 61.7369 65.8602 63.1126C67.1103 65.9317 68.3975 68.856 68.6132 71.6751L62.6161 72.5622L62.6236 72.5697ZM20.5472 6.14432C13.6721 6.14432 10.0708 10.6699 8.53061 13.3687C5.24188 19.1197 5.23445 26.5395 8.51574 32.2604C14.1408 42.0784 24.5204 46.3108 34.5577 50.4154C36.7825 51.325 39.6694 52.1294 42.7275 52.9864C47.5639 54.332 52.9508 55.8431 57.5789 58.2487C55.6369 52.3098 53.5387 46.3409 51.3288 40.4546C42.8614 17.9695 33.0547 6.75325 21.3433 6.15936L20.5546 6.1368L20.5472 6.14432Z" fill="#997700"/>
<path d="M70.1775 72.5709L64.1804 71.6838C64.3961 68.8572 65.6908 65.9328 66.9408 63.1062C67.5435 61.738 68.1387 60.4149 68.5257 59.2046C70.7727 52.1681 73.2207 45.1242 75.7951 38.2756C85.2149 13.2722 96.785 0.762894 111.153 0.0412061C118.95 -0.364744 125.617 3.43916 129.538 10.3177C133.884 17.9406 133.884 27.7585 129.538 35.3438C122.857 46.9961 110.989 51.8374 100.52 56.1074C97.968 57.1523 94.9174 58.0018 91.6882 58.9039C82.4247 61.4975 71.9186 64.4293 70.1626 72.5784L70.1775 72.5709ZM112.246 6.14549L111.458 6.16804C99.7538 6.75441 89.9471 17.9782 81.4797 40.4633C79.2847 46.2894 77.1865 52.2659 75.2296 58.2499C79.8577 55.8442 85.2446 54.3332 90.081 52.9876C93.1391 52.1306 96.026 51.3262 98.2508 50.4166C108.281 46.3195 118.653 42.0871 124.285 32.2616C127.567 26.5482 127.567 19.1284 124.278 13.3774C122.745 10.6711 119.129 6.14549 112.246 6.14549Z" fill="#997700"/>
</svg>
