<svg width="12" height="11" viewBox="0 0 12 11" fill="none" xmlns="http://www.w3.org/2000/svg">
    <path fill-rule="evenodd" clip-rule="evenodd" d="M2.40911 0.515775C2.56982 -0.168548 3.62657 -0.173437 3.79386 0.51024L3.81554 0.598838C4.02001 1.43449 4.74095 2.06868 5.63738 2.21405C6.407 2.33886 6.407 3.35793 5.63738 3.48273C4.74095 3.6281 4.02001 4.26229 3.81554 5.09794L3.79386 5.18655C3.62657 5.87022 2.56982 5.86533 2.40911 5.18101L2.39126 5.10499C2.19425 4.26609 1.47411 3.62711 0.576084 3.48148C-0.192025 3.35691 -0.192031 2.33987 0.576084 2.21531C1.47411 2.06968 2.19425 1.43069 2.39126 0.5918L2.40911 0.515775ZM9.4449 3.75314C9.48159 3.73899 9.52102 3.73171 9.56079 3.73171C9.60057 3.73171 9.64 3.73899 9.67668 3.75314C9.71337 3.7673 9.74663 3.78803 9.7744 3.81412L9.77715 3.81667L10.8371 4.79589L10.8401 4.79868C10.8681 4.82414 10.8904 4.85444 10.9055 4.88782C10.9207 4.9212 10.9285 4.95699 10.9285 4.99316C10.9285 5.02932 10.9207 5.06512 10.9055 5.09849C10.8904 5.13187 10.8681 5.16217 10.8401 5.18763L10.8373 5.19017L5.80142 9.83626L4.12828 9.96921L4.27329 8.43548L9.3417 3.81915L9.34718 3.81412C9.37495 3.78803 9.40821 3.7673 9.4449 3.75314ZM9.56079 2.7495C9.37821 2.7495 9.19752 2.78293 9.02934 2.84783C8.86236 2.91222 8.71106 3.00628 8.58412 3.12458L3.37888 7.86549C3.289 7.94737 3.23368 8.05572 3.22274 8.17147L3.00576 10.4665C2.9921 10.611 3.0488 10.7536 3.16068 10.8562C3.27255 10.9587 3.42814 11.0107 3.58576 10.9982L6.08941 10.7993C6.21563 10.7892 6.3339 10.7386 6.4232 10.6561L11.5962 5.88361C11.7239 5.76712 11.8253 5.62869 11.8946 5.47623C11.9642 5.32316 12 5.15897 12 4.99316C12 4.82733 11.9642 4.66315 11.8946 4.51008C11.8253 4.3577 11.724 4.21934 11.5964 4.10289L10.5391 3.12605C10.4117 3.00706 10.2599 2.91249 10.0922 2.84783C9.92407 2.78293 9.74329 2.7495 9.56079 2.7495Z" fill="black"/>
</svg>
