<svg width="22" height="22" viewBox="0 0 22 22" fill="none" xmlns="http://www.w3.org/2000/svg">
<g opacity="0.5" clip-path="url(#clip0_29_83)">
<path d="M4.67521e-05 10.9898C0.0181965 4.90484 4.96181 -0.0195918 11.0326 -0.000186989C17.0765 0.0192178 22.0301 4.99185 22 11.013C21.9713 17.1474 17.0189 22.0355 10.8711 21.9998C4.8936 21.9648 -0.0174771 16.9903 4.67521e-05 10.9898ZM11.0057 2.00289C6.04329 2.00289 2.00278 6.02906 2.00278 10.9754C2.00278 15.9562 6.02389 19.9999 10.9806 19.9986C12.1646 19.9993 13.337 19.7666 14.431 19.3139C15.525 18.8612 16.5191 18.1974 17.3565 17.3603C18.1939 16.5232 18.8582 15.5293 19.3114 14.4354C19.7647 13.3415 19.9979 12.1689 19.9979 10.9848C19.9998 6.04096 15.9593 2.00289 11.0057 2.00289Z" fill="white"/>
<path d="M10.007 7.99861C10.007 6.98393 9.99946 5.96862 10.0101 4.95457C10.0152 4.7218 10.1041 4.49869 10.2605 4.32621C10.4168 4.15373 10.6301 4.04345 10.8613 4.01563C11.3745 3.95804 11.8244 4.2441 11.9552 4.72797C11.9869 4.87176 11.9999 5.01902 11.9941 5.16614C11.9966 6.89129 11.9966 8.61644 11.9941 10.3416C11.9904 10.418 12.0038 10.4943 12.0331 10.5649C12.0624 10.6356 12.107 10.6989 12.1637 10.7503C13.0019 11.5791 13.8364 12.4118 14.6671 13.2485C14.9468 13.5296 15.0582 13.8639 14.9481 14.2538C14.9049 14.4301 14.8121 14.5903 14.6808 14.7155C14.5495 14.8407 14.3851 14.9257 14.2071 14.9605C14.0474 15.0033 13.8792 15.0026 13.7199 14.9586C13.5606 14.9146 13.4159 14.8288 13.3008 14.7102C12.292 13.7086 11.2873 12.7042 10.2867 11.6968C10.0764 11.4858 10.0038 11.2229 10.0057 10.9281C10.0101 9.95223 10.0057 8.97636 10.0057 8.00112L10.007 7.99861Z" fill="white"/>
</g>
<defs>
<clipPath id="clip0_29_83">
<rect width="22" height="22" fill="white"/>
</clipPath>
</defs>
</svg>
