<svg width="28" height="28" viewBox="0 0 28 28" fill="none" xmlns="http://www.w3.org/2000/svg">
<path d="M0 25.0226V2.97491C0.0179472 2.94133 0.0321308 2.90561 0.0422588 2.86849C0.361548 1.10808 1.59644 0 3.26567 0C10.4285 0 17.5914 0 24.7543 0C26.609 0 27.9953 1.46993 27.9965 3.44068C28.0012 10.479 27.9992 17.5164 27.9906 24.5531C27.9908 24.9509 27.9309 25.3462 27.8134 25.7237C27.3685 27.1298 26.1758 27.9925 24.7273 27.9937C19.2313 27.9937 13.7361 27.9937 8.24165 27.9937C6.56421 27.9937 4.88794 28.0025 3.2105 27.9937C1.98147 27.985 1.03065 27.4103 0.422588 26.2721C0.219511 25.894 0.137341 25.442 0 25.0226ZM14.2037 24.8698C17.3746 24.8698 20.5441 24.8698 23.7119 24.8698C24.0641 24.8698 24.4526 24.8698 24.651 24.4754C24.8494 24.081 24.624 23.743 24.4162 23.43C23.3527 21.8048 22.2868 20.1821 21.2186 18.5619C21.1367 18.4331 21.0436 18.3127 20.9404 18.2026C20.7252 17.9725 20.4344 17.8407 20.1297 17.835C19.825 17.8294 19.5302 17.9505 19.3076 18.1725C18.838 18.6308 18.4025 19.1316 17.9471 19.6074C17.4564 20.122 16.8718 20.2572 16.3612 19.9329C16.1395 19.7822 15.945 19.5901 15.7872 19.3657C15.1064 18.4417 14.4431 17.5027 13.774 16.5686C12.745 15.1329 11.7151 13.698 10.6844 12.264C10.0752 11.4201 9.41316 11.4877 8.953 12.4293L8.94126 12.4556C7.23448 16.0674 5.5273 19.6783 3.81973 23.2885C3.73591 23.4606 3.67243 23.6431 3.63074 23.8319C3.60433 23.9317 3.59707 24.0362 3.6094 24.1391C3.62173 24.242 3.65339 24.3411 3.70248 24.4307C3.75158 24.5202 3.8171 24.5983 3.89514 24.6602C3.97317 24.7221 4.0621 24.7666 4.15663 24.7909C4.37669 24.8507 4.60339 24.8781 4.83042 24.8723C7.95523 24.874 11.0796 24.8732 14.2037 24.8698ZM18.0891 11.5503C18.694 11.5518 19.2856 11.362 19.7893 11.0049C20.2931 10.6479 20.6863 10.1395 20.9192 9.54418C21.1522 8.94883 21.2144 8.29318 21.0981 7.66009C20.9819 7.027 20.6922 6.44489 20.2659 5.98732C19.8395 5.52976 19.2955 5.21727 18.7027 5.08935C18.1099 4.96143 17.4948 5.02382 16.9353 5.26864C16.3757 5.51345 15.8967 5.92971 15.5588 6.4648C15.221 6.99989 15.0394 7.6298 15.0371 8.27492C15.0357 8.70399 15.1136 9.12915 15.2664 9.52607C15.4193 9.92298 15.6439 10.2839 15.9276 10.5881C16.2113 10.8923 16.5484 11.1339 16.9197 11.299C17.291 11.4641 17.6892 11.5495 18.0915 11.5503H18.0891Z" fill="white"/>
</svg>
