<svg width="28" height="28" viewBox="0 0 28 28" fill="none" xmlns="http://www.w3.org/2000/svg">
<path fill-rule="evenodd" clip-rule="evenodd" d="M23.1017 25.737C24.7276 18.1559 26.3338 10.5737 27.9201 2.99062C28.0587 2.32982 28.0875 1.3772 27.4095 0.662832C26.7115 -0.0726582 25.7352 -0.0688789 25.0316 0.0767258C17.4529 1.64129 9.87622 3.22969 2.30153 4.8419C1.87475 4.93275 1.43761 5.06665 1.06028 5.28698C0.674243 5.51239 0.243632 5.89525 0.071536 6.50563C-0.0983808 7.10829 0.0628577 7.65428 0.258605 8.04125C0.452761 8.42507 0.739538 8.77454 1.04201 9.08562C1.64348 9.70396 2.22963 10.2779 2.80196 10.8383L2.80199 10.8383C3.74912 11.7657 4.65843 12.6561 5.53678 13.6494C5.99601 14.1841 6.30654 14.8311 6.43669 15.5251C6.68524 17.0065 6.85038 18.4244 7.01967 19.878C7.14 20.9113 7.26243 21.9625 7.4184 23.0673L7.41865 23.069C7.47637 23.474 7.63593 23.894 7.8363 24.2375C7.93987 24.415 8.0768 24.611 8.25276 24.7887C8.41912 24.9567 8.69067 25.1795 9.07183 25.2906C9.4507 25.4011 9.7979 25.3604 10.0273 25.3096C10.2707 25.2557 10.4921 25.1655 10.6768 25.0718C11.0313 24.8917 11.4029 24.6196 11.6751 24.2922L11.6775 24.2893C12.3563 23.4682 13.0022 22.6032 13.6706 21.7019L13.8289 21.8628C15.5352 23.5962 17.1743 25.2614 18.8318 26.9084L18.8343 26.9108C19.1478 27.2208 19.4949 27.5116 19.8721 27.7127C20.247 27.9126 20.7847 28.0926 21.3894 27.9472C22.0168 27.7964 22.4174 27.3693 22.6529 26.976C22.8793 26.5978 23.0131 26.1595 23.1017 25.737ZM9.99362 22.0561C9.72887 21.9829 9.53491 21.7565 9.5032 21.4836C9.41224 20.7006 9.32135 19.9589 9.23386 19.2449L9.23384 19.2447L9.23383 19.2447L9.23383 19.2446L9.23382 19.2446L9.23382 19.2446C9.06066 17.8315 8.90078 16.5267 8.77983 15.225L8.77957 15.2222C8.75361 14.9295 8.79099 14.5869 8.87963 14.2827C8.95866 14.0115 9.12564 13.606 9.48412 13.3737C13.1948 10.9299 16.9607 8.53374 20.9585 6.35042C21.2384 6.19756 21.5871 6.26159 21.7945 6.50393C22.0018 6.74627 22.0112 7.10072 21.8169 7.35366L10.7084 21.8167C10.5411 22.0346 10.2584 22.1293 9.99362 22.0561Z" fill="white"/>
</svg>
