<svg width="38" height="23" viewBox="0 0 38 23" fill="none" xmlns="http://www.w3.org/2000/svg">
<path fill-rule="evenodd" clip-rule="evenodd" d="M21.0459 8.72855C22.4522 7.89808 23.3875 6.40662 23.3838 4.70629C23.3838 2.10858 21.1837 0 18.4834 0C15.7635 0 13.5691 2.12225 13.5732 4.74168C13.5792 6.48322 14.5768 8.00383 16.0526 8.81066C15.6191 8.93023 15.1896 9.08071 14.7669 9.26331C13.3001 9.8976 12.0774 10.7317 11.1197 11.7686C11.1956 11.6695 11.2733 11.5715 11.3527 11.4749C10.8426 11.154 10.2983 10.8954 9.73156 10.7026C10.6021 10.0215 11.1578 8.98481 11.1522 7.8269C11.1424 5.7859 9.40685 4.12302 7.28503 4.12623C5.1632 4.12945 3.43983 5.78912 3.44309 7.84219C3.44491 8.99131 3.98382 10.0114 4.8325 10.6869C2.49675 11.4989 0.62055 13.4776 0.164255 15.9422C0.0209727 16.7173 0.0167886 17.5188 0.0126123 18.3187C0.0110885 18.6106 0.00956581 18.9023 0.00128853 19.1924C-0.020712 19.9502 0.23596 20.1916 1.00679 20.1916H8.48859C8.5426 20.1916 8.59706 20.1897 8.65434 20.1869C8.65659 20.4398 8.6574 20.6925 8.65401 20.9445C8.64423 21.7088 8.95224 22.0009 9.7247 22.0009H18.705C21.7242 22.0019 24.7437 22.0008 27.7635 21.9976C28.4569 21.9968 28.7828 21.6839 28.7828 21.0057L28.7847 20.5007C28.7858 20.2277 28.7869 19.9546 28.7875 19.6814C29.4299 19.6814 30.0724 19.6808 30.7149 19.6802H30.7149H30.715H30.715H30.7151C32.545 19.6785 34.3749 19.6768 36.2043 19.6887C36.6508 19.6919 36.9939 19.5801 37.2302 19.2004V16.0902C37.2073 15.9888 37.1854 15.8872 37.1635 15.7854C37.1205 15.5861 37.0775 15.3865 37.0273 15.1883C36.6356 13.678 35.7561 12.3347 34.5219 11.3621C33.9176 10.8859 33.2444 10.5112 32.5293 10.2478C33.3004 9.57248 33.7817 8.59766 33.7817 7.50832C33.7809 5.45606 32.0575 3.81007 29.9325 3.81007C27.8074 3.81007 26.0726 5.47215 26.0726 7.51074C26.0726 8.59787 26.5622 9.57725 27.3436 10.2546C26.7424 10.4742 26.1686 10.7702 25.6375 11.1381C24.3436 9.95961 22.7509 9.12983 21.0459 8.72855Z" fill="white"/>
</svg>
