<svg width="54" height="40" viewBox="0 0 54 40" fill="none" xmlns="http://www.w3.org/2000/svg">
<path d="M36.1548 17.3169H5.50781V5.54883H36.1548V17.3169ZM6.1708 16.6485H35.4918V6.21646H6.1708V16.6485Z" fill="#222226"/>
<path d="M44.6776 28.8211H2.75V2.77441H44.6776V28.8211ZM3.41298 28.1527H44.017V3.44204H3.41298V28.1527Z" fill="#222226"/>
<path d="M53.3333 40.0004H0V-0.000976562H53.3333V40.0004ZM0.660528 39.3321H52.6703V0.667395H0.660528V39.3321Z" fill="#222226"/>
<path fill-rule="evenodd" clip-rule="evenodd" d="M12.2501 11.5775C12.2501 10.3945 11.5296 9.83476 10.4863 9.83476H9.8275V13.3202H10.4863C11.5299 13.3202 12.2501 12.76 12.2501 11.5775ZM9.08594 9.15723H10.4721C11.9348 9.15723 13.0056 9.99417 13.0056 11.5775C13.0056 13.1608 11.9348 13.9975 10.4721 13.9975H9.08594V9.15723Z" fill="#222226"/>
<path fill-rule="evenodd" clip-rule="evenodd" d="M17.9666 12.2753C17.9666 13.4437 17.1771 14.0943 16.092 14.0943C15.007 14.0943 14.2188 13.444 14.2188 12.2753V9.15625H14.9598V12.2535C14.948 12.4073 14.9691 12.5619 15.0215 12.7068C15.074 12.8518 15.1567 12.9837 15.2639 13.0937C15.3712 13.2037 15.5007 13.2893 15.6435 13.3446C15.7863 13.3999 15.9393 13.4238 16.092 13.4145C16.2449 13.424 16.398 13.4003 16.541 13.345C16.6841 13.2897 16.8137 13.2042 16.9211 13.0942C17.0286 12.9842 17.1114 12.8522 17.164 12.7072C17.2166 12.5622 17.2377 12.4075 17.226 12.2535V9.15724H17.9666V12.2753Z" fill="#222226"/>
<path fill-rule="evenodd" clip-rule="evenodd" d="M18.9692 9.1582H22.6756V9.83672H21.1922V13.9984H20.4516V9.83672H18.9688L18.9692 9.1582Z" fill="#222226"/>
<path fill-rule="evenodd" clip-rule="evenodd" d="M27.8117 12.8221C27.3112 13.6449 26.7477 14.0947 25.7117 14.0947C24.3452 14.0947 23.3299 13.0567 23.3299 11.5777C23.3174 11.2506 23.3708 10.9244 23.4868 10.6188C23.6028 10.3131 23.779 10.0343 24.0048 9.79913C24.2306 9.56398 24.5013 9.37738 24.8005 9.25058C25.0998 9.12378 25.4215 9.05942 25.7461 9.06137C26.1723 9.04397 26.5942 9.15336 26.9591 9.37591C27.3241 9.59846 27.6161 9.92433 27.7987 10.313L27.2093 10.7415C26.8656 10.0711 26.3917 9.7389 25.7333 9.7389C24.8273 9.7389 24.0855 10.5132 24.0855 11.5786C24.0855 12.6295 24.7782 13.4174 25.7265 13.4174C26.3713 13.4174 26.8788 13.1062 27.243 12.4151L27.8117 12.8221Z" fill="#222226"/>
<path fill-rule="evenodd" clip-rule="evenodd" d="M29.0469 9.1582H29.7875V11.1908H32.0249V9.1582H32.7672V13.9984H32.0249V11.8683H29.7875V13.9984H29.0469V9.1582Z" fill="#222226"/>
<path fill-rule="evenodd" clip-rule="evenodd" d="M9.55453 22.8018C9.55453 21.6191 8.83433 21.0591 7.79099 21.0591H7.13194V24.5446H7.79099C8.83458 24.5446 9.55453 23.9849 9.55453 22.8018ZM6.39062 20.3818H7.77675C9.23924 20.3818 10.3101 21.2188 10.3101 22.8018C10.3101 24.3849 9.23924 25.2218 7.77675 25.2218H6.39062V20.3818Z" fill="#222226"/>
<path fill-rule="evenodd" clip-rule="evenodd" d="M12.7344 25.2211H13.475V20.3809H12.7344V25.2211Z" fill="#222226"/>
<path fill-rule="evenodd" clip-rule="evenodd" d="M19.7137 24.4749C19.5677 24.7427 19.35 24.9638 19.0854 25.1129C18.8209 25.262 18.5201 25.3332 18.2173 25.3183C16.8648 25.3183 15.876 24.2606 15.876 22.8013C15.8667 22.4745 15.9224 22.1491 16.0399 21.8443C16.1574 21.5396 16.3343 21.2617 16.5602 21.0271C16.7861 20.7924 17.0563 20.6058 17.3549 20.4783C17.6536 20.3508 17.9745 20.2849 18.2988 20.2845C18.7154 20.2703 19.1276 20.3735 19.4891 20.5826C19.8506 20.7916 20.1471 21.0981 20.3453 21.4678L19.7817 21.8616C19.645 21.5811 19.4314 21.346 19.1662 21.1841C18.901 21.0223 18.5953 20.9406 18.2853 20.9487C17.3861 20.9487 16.6316 21.675 16.6316 22.8018C16.6316 23.9014 17.2835 24.641 18.2303 24.641C19.102 24.641 19.5416 24.0808 19.6449 23.3278H18.0243V22.7117H20.3853V25.2215H19.8917L19.7137 24.4749Z" fill="#222226"/>
<path fill-rule="evenodd" clip-rule="evenodd" d="M22.9609 25.2211H23.7015V20.3809H22.9609V25.2211Z" fill="#222226"/>
<path fill-rule="evenodd" clip-rule="evenodd" d="M25.8445 20.3809H29.5501V21.0581H28.0672V25.2211H27.3266V21.0581H25.8438L25.8445 20.3809Z" fill="#222226"/>
<path fill-rule="evenodd" clip-rule="evenodd" d="M32.8401 21.6953L32.2562 23.2239H33.7526L33.1701 21.6953C33.0734 21.4463 33.0054 21.2322 33.0054 21.2322C33.0054 21.2322 32.9368 21.4463 32.8401 21.6953ZM32.6341 20.3818H33.3764L35.2973 25.2221H34.5152L33.9996 23.874H32.0092L31.4935 25.2221H30.7109L32.6341 20.3818Z" fill="#222226"/>
<path fill-rule="evenodd" clip-rule="evenodd" d="M37.4141 20.3809H38.1551V24.5572H40.5645V25.2211H37.4141V20.3809Z" fill="#222226"/>
<path fill-rule="evenodd" clip-rule="evenodd" d="M6.0276 33.1768L5.44368 34.7053H6.94006L6.35614 33.1768C6.26038 32.9277 6.19138 32.7136 6.19138 32.7136C6.19138 32.7136 6.12312 32.9277 6.0276 33.1768ZM5.82109 31.8633H6.5624L8.48456 36.7035H7.70151L7.18585 35.3554H5.19641L4.68076 36.7035H3.89844L5.82109 31.8633Z" fill="#222226"/>
<path fill-rule="evenodd" clip-rule="evenodd" d="M14.1588 35.9574C14.0129 36.2252 13.7952 36.4464 13.5306 36.5955C13.266 36.7446 12.9652 36.8157 12.6624 36.8008C11.3102 36.8008 10.3213 35.743 10.3213 34.284C10.3119 33.9571 10.3676 33.6317 10.4851 33.327C10.6026 33.0222 10.7795 32.7443 11.0054 32.5097C11.2312 32.275 11.5014 32.0884 11.8 31.9608C12.0986 31.8333 12.4196 31.7673 12.7439 31.7669C13.1604 31.7527 13.5726 31.8558 13.9341 32.0647C14.2956 32.2737 14.5921 32.5802 14.7903 32.9497L14.227 33.3435C14.0904 33.063 13.8767 32.8279 13.6115 32.6661C13.3463 32.5043 13.0406 32.4225 12.7307 32.4306C11.8315 32.4306 11.0769 33.1569 11.0769 34.284C11.0769 35.3833 11.7288 36.1227 12.6759 36.1227C13.5476 36.1227 13.9871 35.5625 14.0905 34.8107H12.4699V34.1941H14.8308V36.7042H14.3375L14.1588 35.9574Z" fill="#222226"/>
<path fill-rule="evenodd" clip-rule="evenodd" d="M17.5586 31.8633H20.7156V32.5272H18.2992V33.8684H20.5236V34.5323H18.2997V36.0396H20.7365V36.7035H17.5591L17.5586 31.8633Z" fill="#222226"/>
<path fill-rule="evenodd" clip-rule="evenodd" d="M23.3359 31.8633H24.0905L26.2467 35.2363C26.3222 35.3546 26.3912 35.477 26.4532 35.6029V31.8633H27.1653V36.7038H26.4107L24.2553 33.3302C24.1799 33.2122 24.1113 33.09 24.0498 32.9641V36.7038H23.3359V31.8633Z" fill="#222226"/>
<path fill-rule="evenodd" clip-rule="evenodd" d="M34.2179 35.5289C33.7175 36.3517 33.154 36.8012 32.118 36.8012C30.7515 36.8012 29.7362 35.7635 29.7362 34.2845C29.7236 33.9574 29.7769 33.6312 29.8928 33.3254C30.0087 33.0197 30.1848 32.7408 30.4106 32.5056C30.6363 32.2704 30.907 32.0837 31.2063 31.9568C31.5056 31.83 31.8272 31.7655 32.1519 31.7674C32.578 31.75 32.9997 31.8594 33.3646 32.0819C33.7295 32.3044 34.0214 32.6302 34.204 33.0188L33.6161 33.4478C33.2723 32.7774 32.7984 32.4452 32.1401 32.4452C31.234 32.4452 30.4922 33.2195 30.4922 34.2849C30.4922 35.3358 31.1849 36.1237 32.133 36.1237C32.778 36.1237 33.2856 35.8125 33.6497 35.1212L34.2179 35.5289Z" fill="#222226"/>
<path fill-rule="evenodd" clip-rule="evenodd" d="M36.7344 36.7033H37.4749V31.8633H36.7344V36.7033Z" fill="#222226"/>
<path fill-rule="evenodd" clip-rule="evenodd" d="M40.2734 31.8633H43.4305V32.5272H41.014V33.8684H43.2382V34.5323H41.014V36.0396H43.4508V36.7035H40.2734V31.8633Z" fill="#222226"/>
<path fill-rule="evenodd" clip-rule="evenodd" d="M47.8631 33.8966C48.8983 34.0971 49.414 34.5328 49.414 35.3415C49.414 36.123 48.7416 36.802 47.6568 36.802C46.5113 36.802 45.8454 36.1381 45.6875 35.2739L46.3394 34.9353C46.4757 35.7302 46.9221 36.1522 47.6504 36.1522C48.2889 36.1522 48.6726 35.7995 48.6726 35.371C48.6726 34.8657 48.2753 34.6442 47.4513 34.4858C46.5592 34.3125 45.9073 33.877 45.9073 33.0611C45.9073 32.2938 46.5865 31.768 47.5539 31.768C47.9402 31.7441 48.3235 31.8491 48.6448 32.0666C48.966 32.2841 49.2074 32.6021 49.3317 32.9715L48.7424 33.3181C48.6756 33.0528 48.5205 32.8188 48.303 32.6551C48.0855 32.4913 47.8188 32.4079 47.5475 32.4188C47.04 32.4188 46.6076 32.6339 46.6076 33.0485C46.6076 33.4842 47.0196 33.733 47.8638 33.8986" fill="#222226"/>
<path fill-rule="evenodd" clip-rule="evenodd" d="M12.2423 11.5784C12.2423 10.3954 11.5218 9.83573 10.4785 9.83573H9.81968V13.3212H10.4785C11.5221 13.3212 12.2423 12.761 12.2423 11.5784ZM9.07812 9.1582H10.4643C11.927 9.1582 12.9978 9.99515 12.9978 11.5784C12.9978 13.1617 11.927 13.9984 10.4643 13.9984H9.07812V9.1582Z" fill="#222226"/>
<path fill-rule="evenodd" clip-rule="evenodd" d="M17.9666 12.2763C17.9666 13.4447 17.1771 14.0953 16.092 14.0953C15.007 14.0953 14.2188 13.445 14.2188 12.2763V9.15723H14.9598V12.2545C14.948 12.4083 14.9691 12.5629 15.0215 12.7078C15.074 12.8527 15.1567 12.9847 15.2639 13.0947C15.3712 13.2047 15.5007 13.2902 15.6435 13.3456C15.7863 13.4009 15.9393 13.4248 16.092 13.4155C16.2449 13.4249 16.398 13.4012 16.541 13.346C16.6841 13.2907 16.8137 13.2052 16.9211 13.0952C17.0286 12.9852 17.1114 12.8532 17.164 12.7082C17.2166 12.5632 17.2377 12.4085 17.226 12.2545V9.15822H17.9666V12.2763Z" fill="#222226"/>
<path fill-rule="evenodd" clip-rule="evenodd" d="M18.9614 9.1582H22.6678V9.83672H21.1844V13.9984H20.4438V9.83672H18.9609L18.9614 9.1582Z" fill="#222226"/>
<path fill-rule="evenodd" clip-rule="evenodd" d="M27.8117 12.823C27.3112 13.6459 26.7477 14.0957 25.7117 14.0957C24.3452 14.0957 23.3299 13.0577 23.3299 11.5786C23.3174 11.2516 23.3708 10.9254 23.4868 10.6197C23.6028 10.3141 23.779 10.0352 24.0048 9.8001C24.2306 9.56496 24.5013 9.37836 24.8005 9.25156C25.0998 9.12476 25.4215 9.06039 25.7461 9.06234C26.1723 9.04494 26.5942 9.15433 26.9591 9.37688C27.3241 9.59943 27.6161 9.92531 27.7987 10.3139L27.2093 10.7424C26.8656 10.0721 26.3917 9.73987 25.7333 9.73987C24.8273 9.73987 24.0855 10.5142 24.0855 11.5796C24.0855 12.6305 24.7782 13.4184 25.7265 13.4184C26.3713 13.4184 26.8788 13.1072 27.243 12.4161L27.8117 12.823Z" fill="#222226"/>
<path fill-rule="evenodd" clip-rule="evenodd" d="M29.043 9.1582H29.7835V11.1908H32.021V9.1582H32.7633V13.9984H32.021V11.8683H29.7835V13.9984H29.043V9.1582Z" fill="#222226"/>
<path fill-rule="evenodd" clip-rule="evenodd" d="M9.55844 22.8028C9.55844 21.62 8.83824 21.0601 7.7949 21.0601H7.13585V24.5455H7.7949C8.83848 24.5455 9.55844 23.9858 9.55844 22.8028ZM6.39453 20.3828H7.78066C9.24315 20.3828 10.314 21.2198 10.314 22.8028C10.314 24.3859 9.24315 25.2228 7.78066 25.2228H6.39453V20.3828Z" fill="#222226"/>
<path fill-rule="evenodd" clip-rule="evenodd" d="M12.7305 25.2211H13.471V20.3809H12.7305V25.2211Z" fill="#222226"/>
<path fill-rule="evenodd" clip-rule="evenodd" d="M19.7176 24.4749C19.5716 24.7427 19.3539 24.9638 19.0894 25.1129C18.8248 25.262 18.524 25.3332 18.2212 25.3183C16.8687 25.3183 15.8799 24.2606 15.8799 22.8013C15.8706 22.4745 15.9263 22.1491 16.0438 21.8443C16.1613 21.5396 16.3382 21.2617 16.5641 21.0271C16.79 20.7924 17.0602 20.6058 17.3588 20.4783C17.6575 20.3508 17.9784 20.2849 18.3028 20.2845C18.7193 20.2703 19.1315 20.3735 19.493 20.5826C19.8545 20.7916 20.151 21.0981 20.3492 21.4678L19.7856 21.8616C19.6489 21.5811 19.4353 21.346 19.1701 21.1841C18.9049 21.0223 18.5992 20.9406 18.2892 20.9487C17.39 20.9487 16.6355 21.675 16.6355 22.8018C16.6355 23.9014 17.2874 24.641 18.2342 24.641C19.1059 24.641 19.5455 24.0808 19.6489 23.3278H18.0282V22.7117H20.3892V25.2215H19.8956L19.7176 24.4749Z" fill="#222226"/>
<path fill-rule="evenodd" clip-rule="evenodd" d="M22.957 25.2211H23.6976V20.3809H22.957V25.2211Z" fill="#222226"/>
<path fill-rule="evenodd" clip-rule="evenodd" d="M25.8484 20.3809H29.554V21.0581H28.0711V25.2211H27.3305V21.0581H25.8477L25.8484 20.3809Z" fill="#222226"/>
<path fill-rule="evenodd" clip-rule="evenodd" d="M32.8362 21.6963L32.2523 23.2249H33.7487L33.1662 21.6963C33.0695 21.4473 33.0014 21.2331 33.0014 21.2331C33.0014 21.2331 32.9329 21.4473 32.8362 21.6963ZM32.6302 20.3828H33.3725L35.2934 25.2231H34.5113L33.9957 23.8749H32.0052L31.4896 25.2231H30.707L32.6302 20.3828Z" fill="#222226"/>
<path fill-rule="evenodd" clip-rule="evenodd" d="M37.418 20.3809H38.159V24.5572H40.5684V25.2211H37.418V20.3809Z" fill="#222226"/>
<path fill-rule="evenodd" clip-rule="evenodd" d="M6.0315 33.1768L5.44759 34.7053H6.94396L6.36005 33.1768C6.26428 32.9277 6.19528 32.7136 6.19528 32.7136C6.19528 32.7136 6.12702 32.9277 6.0315 33.1768ZM5.825 31.8633H6.56631L8.48847 36.7035H7.70541L7.18976 35.3554H5.20032L4.68466 36.7035H3.90234L5.825 31.8633Z" fill="#222226"/>
<path fill-rule="evenodd" clip-rule="evenodd" d="M14.1588 35.9574C14.0129 36.2252 13.7952 36.4464 13.5306 36.5955C13.266 36.7446 12.9652 36.8157 12.6624 36.8008C11.3102 36.8008 10.3213 35.743 10.3213 34.284C10.3119 33.9571 10.3676 33.6317 10.4851 33.327C10.6026 33.0222 10.7795 32.7443 11.0054 32.5097C11.2312 32.275 11.5014 32.0884 11.8 31.9608C12.0986 31.8333 12.4196 31.7673 12.7439 31.7669C13.1604 31.7527 13.5726 31.8558 13.9341 32.0647C14.2956 32.2737 14.5921 32.5802 14.7903 32.9497L14.227 33.3435C14.0904 33.063 13.8767 32.8279 13.6115 32.6661C13.3463 32.5043 13.0406 32.4225 12.7307 32.4306C11.8315 32.4306 11.0769 33.1569 11.0769 34.284C11.0769 35.3833 11.7288 36.1227 12.6759 36.1227C13.5476 36.1227 13.9871 35.5625 14.0905 34.8107H12.4699V34.1941H14.8308V36.7042H14.3375L14.1588 35.9574Z" fill="#222226"/>
<path fill-rule="evenodd" clip-rule="evenodd" d="M17.5586 31.8633H20.7156V32.5272H18.2992V33.8684H20.5236V34.5323H18.2997V36.0396H20.7365V36.7035H17.5591L17.5586 31.8633Z" fill="#222226"/>
<path fill-rule="evenodd" clip-rule="evenodd" d="M23.3398 31.8633H24.0944L26.2506 35.2363C26.3261 35.3546 26.3951 35.477 26.4571 35.6029V31.8633H27.1692V36.7038H26.4146L24.2592 33.3302C24.1838 33.2122 24.1152 33.09 24.0537 32.9641V36.7038H23.3398V31.8633Z" fill="#222226"/>
<path fill-rule="evenodd" clip-rule="evenodd" d="M34.2219 35.5289C33.7214 36.3517 33.1579 36.8012 32.1219 36.8012C30.7554 36.8012 29.7401 35.7635 29.7401 34.2845C29.7275 33.9574 29.7808 33.6312 29.8967 33.3254C30.0126 33.0197 30.1888 32.7408 30.4145 32.5056C30.6403 32.2704 30.9109 32.0837 31.2102 31.9568C31.5095 31.83 31.8311 31.7655 32.1558 31.7674C32.5819 31.75 33.0037 31.8594 33.3685 32.0819C33.7334 32.3044 34.0253 32.6302 34.2079 33.0188L33.62 33.4478C33.2762 32.7774 32.8023 32.4452 32.144 32.4452C31.2379 32.4452 30.4961 33.2195 30.4961 34.2849C30.4961 35.3358 31.1888 36.1237 32.1369 36.1237C32.7819 36.1237 33.2895 35.8125 33.6537 35.1212L34.2219 35.5289Z" fill="#222226"/>
<path fill-rule="evenodd" clip-rule="evenodd" d="M36.7344 36.7033H37.4749V31.8633H36.7344V36.7033Z" fill="#222226"/>
<path fill-rule="evenodd" clip-rule="evenodd" d="M40.2734 31.8633H43.4305V32.5272H41.014V33.8684H43.2382V34.5323H41.014V36.0396H43.4508V36.7035H40.2734V31.8633Z" fill="#222226"/>
</svg>
